<?xml version="1.0" encoding="iso-8859-1"?>
<!-- Generator: Adobe Illustrator 19.0.0, SVG Export Plug-In . SVG Version: 6.00 Build 0)  -->
<svg version="1.1" id="Capa_1" xmlns="http://www.w3.org/2000/svg" xmlns:xlink="http://www.w3.org/1999/xlink" x="0px" y="0px"
	 viewBox="0 0 512 512" style="enable-background:new 0 0 512 512;" xml:space="preserve">
<g>
	<g>
		<path d="M205.21,88.798l-4.749-13.961c-3.637-10.691-15.289-16.43-25.987-12.793L13.847,116.686
			c-5.576,1.896-9.997,6.007-12.305,11.489c-1.992,4.734-1.998,10.073-0.344,14.935l4.679,13.757
			c1.029,3.022,4.313,4.636,7.334,3.604l188.398-64.349C204.624,95.092,206.236,91.814,205.21,88.798z"/>
	</g>
</g>
<g>
	<g>
		<path d="M303.72,378.382L218.6,128.16c-1.028-3.022-4.313-4.636-7.333-3.604L22.868,188.905c-3.015,1.03-4.626,4.308-3.6,7.324
			l85.041,249.989c2.897,8.514,10.878,13.888,19.409,13.888c2.182,0,4.4-0.351,6.579-1.093l160.63-54.643
			c5.18-1.762,9.363-5.436,11.78-10.345C305.122,389.116,305.482,383.562,303.72,378.382z M206.401,293.971
			c-2.68,5.282-7.972,8.246-13.416,8.246c-2.57,0-5.175-0.661-7.555-2.05l-18.767-10.954c-3.052-1.782-6.974-0.428-8.278,2.857
			l-7.402,18.643c-2.338,5.889-7.987,9.478-13.959,9.478c-1.921,0-3.875-0.37-5.763-1.156c-7.64-3.176-11.068-12.141-8.016-19.832
			l9.556-24.07c1.054-2.654,0.01-5.678-2.456-7.118l-26.453-15.44c-7.161-4.18-9.578-13.374-5.399-20.535
			c4.182-7.163,13.376-9.577,20.536-5.398l21.011,12.264c3.052,1.782,6.974,0.428,8.278-2.857l9.083-22.877
			c3.149-7.933,12.307-11.691,20.168-8.128c7.362,3.336,10.566,12.093,7.583,19.605l-11.25,28.336
			c-1.053,2.654-0.01,5.678,2.456,7.118l23.86,13.927C207.137,278.069,210.026,286.827,206.401,293.971z"/>
	</g>
</g>
<g>
	<g>
		<path d="M511.428,156.321c-1.274-5.319-4.544-9.824-9.209-12.687L357.589,54.925c-4.663-2.861-10.161-3.734-15.485-2.46
			c-5.32,1.275-9.826,4.546-12.671,9.185l-7.09,11.509c-1.948,3.162-0.974,7.304,2.179,9.266L492.737,187.15
			c2.721,1.694,6.299,0.849,7.974-1.883l8.257-13.462C511.83,167.141,512.704,161.642,511.428,156.321z"/>
	</g>
</g>
<g>
	<g>
		<path d="M477.101,212.787L307.998,107.51c-2.717-1.691-6.29-0.851-7.969,1.874l-38.515,62.526
			c-0.903,1.466-1.105,3.258-0.55,4.889l73.342,215.598c1.897,5.576,1.333,11.589-1.608,16.761
			c-2.537,4.463-6.764,7.722-11.625,9.376l-28.406,9.663c-4.629,1.574-5.328,7.832-1.159,10.389l21.652,13.28
			c3.333,2.045,7.027,3.019,10.676,3.019c6.893,0,13.632-3.473,17.494-9.768l137.64-224.407
			C480.631,218.002,479.796,214.464,477.101,212.787z M381.397,266.341l-60.591,8.55c-0.118,0.017-0.235,0.023-0.353,0.037
			c-0.164,0.019-0.327,0.038-0.491,0.052c-0.407,0.034-0.814,0.056-1.216,0.058c-0.007,0-0.014,0.001-0.02,0.001
			c-0.001,0-0.002,0-0.003,0c-0.011,0-0.021,0.001-0.032,0.001c-0.244,0-0.483-0.021-0.725-0.033
			c-0.173-0.009-0.345-0.007-0.52-0.022c-0.007,0-0.013-0.002-0.02-0.003c-0.985-0.083-1.948-0.265-2.878-0.534
			c-0.16-0.046-0.314-0.104-0.472-0.155c-0.282-0.092-0.564-0.185-0.839-0.293c-0.202-0.079-0.398-0.168-0.597-0.256
			c-0.222-0.099-0.443-0.198-0.661-0.307c-0.209-0.105-0.413-0.217-0.618-0.332c-0.199-0.112-0.395-0.227-0.589-0.347
			c-0.198-0.123-0.392-0.25-0.584-0.383c-0.194-0.134-0.383-0.273-0.572-0.416c-0.174-0.133-0.347-0.266-0.516-0.406
			c-0.2-0.167-0.392-0.341-0.584-0.518c-0.142-0.131-0.285-0.26-0.421-0.396c-0.214-0.213-0.416-0.437-0.617-0.664
			c-0.102-0.115-0.208-0.225-0.306-0.343c-0.235-0.281-0.454-0.575-0.67-0.874c-0.054-0.076-0.114-0.147-0.167-0.224
			c-0.531-0.772-0.996-1.596-1.379-2.469c-0.049-0.112-0.086-0.229-0.133-0.342c-0.128-0.312-0.255-0.626-0.362-0.949
			c-0.082-0.245-0.144-0.496-0.213-0.747c-0.055-0.2-0.117-0.397-0.164-0.602c-0.065-0.279-0.111-0.564-0.159-0.848
			c-0.026-0.152-0.064-0.3-0.086-0.455c-0.005-0.037-0.005-0.074-0.01-0.111c-0.041-0.308-0.062-0.622-0.084-0.935
			c-0.015-0.208-0.036-0.416-0.042-0.624c-0.006-0.228,0.004-0.459,0.008-0.69c0.005-0.292,0.008-0.586,0.03-0.875
			c0.003-0.042,0.001-0.083,0.004-0.125l3.042-36.045c0.698-8.263,7.955-14.393,16.224-13.699
			c8.263,0.698,14.396,7.96,13.699,16.223l-0.85,10.07c-0.311,3.694,2.89,6.721,6.561,6.203l34.78-4.908
			c8.209-1.155,15.806,4.558,16.964,12.769C395.325,257.587,389.608,265.182,381.397,266.341z"/>
	</g>
</g>
<g>
</g>
<g>
</g>
<g>
</g>
<g>
</g>
<g>
</g>
<g>
</g>
<g>
</g>
<g>
</g>
<g>
</g>
<g>
</g>
<g>
</g>
<g>
</g>
<g>
</g>
<g>
</g>
<g>
</g>
</svg>
