<?xml version="1.0" encoding="utf-8"?>
<!-- Generator: Adobe Illustrator 23.0.3, SVG Export Plug-In . SVG Version: 6.00 Build 0)  -->
<svg version="1.1" xmlns="http://www.w3.org/2000/svg" xmlns:xlink="http://www.w3.org/1999/xlink" x="0px" y="0px"
	 viewBox="0 0 700 700" style="enable-background:new 0 0 700 700;" xml:space="preserve">
<style type="text/css">
	.st0{fill-rule:evenodd;clip-rule:evenodd;fill:#BC7229;}
	.st1{fill-rule:evenodd;clip-rule:evenodd;fill:#F7941D;}
	.st2{fill:#603913;}
	.st3{fill:#F15A29;}
	.st4{fill:#334B5E;}
	.st5{fill:#2C3C4F;}
	.st6{fill:#FFFFFF;}
	.st7{fill:#4B6576;}
	.st8{fill:#F3705A;}
	.st9{fill:#F15640;}
	.st10{clip-path:url(#SVGID_2_);}
	.st11{fill:#EF4136;}
</style>
<g id="back">
	<g id="XMLID_26_">
		<path class="st0" d="M305.19,332.17c4.14,0.17,8.27,0.34,12.41,0.52c0.34-1.38,0.69-2.76,1.03-4.14c1.03,1.03,2.07,2.07,3.1,3.1
			c2.07,1.03,4.14,2.07,6.2,3.1c0.2,3.72,0.66,8.33-1.55,9.82c-1.9,0.86-3.79,1.72-5.69,2.59c-0.34-0.17-0.69-0.34-1.03-0.52
			c0.17-1.21,0.34-2.41,0.52-3.62c-0.69,0-1.38,0-2.07,0c-0.34,2.07-0.69,4.14-1.03,6.2c0.86,0.86,1.72,1.72,2.59,2.59
			c-0.69,2.07-1.38,4.14-2.07,6.2c-1.21,0.17-2.41,0.34-3.62,0.52c0,4.65,0,9.31,0,13.96c-2.76,0.69-5.52,1.38-8.27,2.07
			c0.11,4.5-0.84,5.66-4.14,6.72c0,1.21,0,2.41,0,3.62c-13.15,0.79-24.9,1.03-35.16-2.59c-1.29,5.61-11.91,30.13-13.96,33.09
			c4.83,8.1,9.65,16.2,14.48,24.3c1.38-0.17,2.76-0.34,4.14-0.52c0.17,2.24,0.34,4.48,0.52,6.72c-2.76,1.03-5.52,2.07-8.27,3.1
			c0.34,1.72,0.69,3.45,1.03,5.17c-5.97,2.11-6.47,1.24-10.86-2.59c-2.07,0.34-4.14,0.69-6.2,1.03c-0.52-0.86-1.03-1.72-1.55-2.59
			c1.03-0.69,2.07-1.38,3.1-2.07c-2.41-5.17-4.83-10.34-7.24-15.51c-3.62-0.17-7.24-0.34-10.86-0.52
			c-5.05-9.68-3.42-9.71-14.48-13.96c-0.52,0.34-1.03,0.69-1.55,1.03c-0.52,0.86-1.03,1.72-1.55,2.59
			c-0.86-0.69-1.72-1.38-2.59-2.07c-5.24-9.63-37.61-3.35-48.08-21.72c1.91-2.61,3.09-2.94,0.52-5.17c-5,2.82-4.68,1.76-8.79-1.55
			c-3.27-5-6.55-10-9.82-14.99c-1.38,1.38-2.76,2.76-4.14,4.14c-0.17,0-0.34,0-0.52,0c-3.35-1.66-3.59-3.12-9.31-3.1
			c-0.69-1.55-1.38-3.1-2.07-4.65c0,0.34,0,0.69,0,1.03c-0.69,0.86-1.38,1.72-2.07,2.59c-4.97-1.77-8.57-0.48-12.93-1.03
			c-1.38-4.14-2.76-8.27-4.14-12.41c-1.72,0.17-3.45,0.34-5.17,0.52c-1.46-4.4-2.03-6.09,3.62-6.72c-1.18-8.34-5.06-9.97-4.65-17.58
			c1.38-0.17,2.76-0.34,4.14-0.52c-0.34-1.38-0.69-2.76-1.03-4.14c0.34,0,0.69,0,1.03,0c12.68-4.7,34.52,2.08,41.88-7.76
			c-1.03-0.52-2.07-1.03-3.1-1.55c-0.17-2.76-0.34-5.52-0.52-8.27c-10.68-3.45-21.37-6.89-32.06-10.34
			c3.42-7.26,0.18-8.95,2.59-16.55c1.72-3.1,3.45-6.2,5.17-9.31c-1.72-2.07-3.45-4.14-5.17-6.2c0.15-3.22,0.85-4.32,2.07-6.2
			c5.8-2.68,6.33-3.5,11.37,0.52c2.85-2.43,2.83-4.46,8.27-4.65c0.49-4.82,0.77-11.38,2.59-14.99c3.62-1.72,7.24-3.45,10.86-5.17
			c-0.87-4.84,1.35-9,5.17-11.89c2.26,1.37,2.8,2.84,5.69,3.62c2.07-1.03,4.14-2.07,6.2-3.1c-0.3-2.53-0.36-2.78,0.52-4.65
			c5.22-1.66,11.61-1.61,18.1-3.62c-0.19-3.27-0.37-5.45,1.55-6.72c3.27-1.03,6.55-2.07,9.82-3.1c1.03,1.9,2.07,3.79,3.1,5.69
			c3.45-0.34,6.89-0.69,10.34-1.03c2.39-1.14,1.13-2.93,5.17-3.62c8.46,10.46,4.75,29.35,4.65,41.88c4.05-0.46,4.8,0.38,7.24,2.59
			c0,0.52,0,1.03,0,1.55c-1.72,1.21-3.45,2.41-5.17,3.62c1.72,2.07,3.45,4.14,5.17,6.2c1.06,3.2-0.5,4.9,1.03,8.27
			c16.82,2.09,35.28,5.5,50.15,9.82c-5.69,7.93-11.38,15.86-17.06,23.78c0.52,0.69,1.03,1.38,1.55,2.07
			c4.21-2.93,5.36-0.46,8.79,2.59c2.92-1.5,4.73-2.13,8.79-1.55c0,0.52,0,1.03,0,1.55c-1.05,2.29-1.55,4.07-1.55,7.76
			c2.58-0.17,5.17-0.34,7.76-0.52c0-2.76,0-5.52,0-8.27c1.38,0,2.76,0,4.14,0c0.35,5.2,3.46,6.67,5.69,10.34
			c1.67-1.35,1.95-1.41,1.55-3.62c0.17-0.34,0.34-0.69,0.52-1.03c4.23,0.02,4.5,0.91,6.72,2.59c0,0.17,0,0.34,0,0.52
			C306.22,327.68,305.71,329.93,305.19,332.17z"/>
	</g>
	<g id="XMLID_56_">
		<path class="st1" d="M306.84,329.61c4.14,0.17,8.27,0.34,12.41,0.52c0.34-1.38,0.69-2.76,1.03-4.14c1.03,1.03,2.07,2.07,3.1,3.1
			c2.07,1.03,4.14,2.07,6.2,3.1c0.2,3.72,0.66,8.33-1.55,9.82c-1.9,0.86-3.79,1.72-5.69,2.59c-0.34-0.17-0.69-0.34-1.03-0.52
			c0.17-1.21,0.34-2.41,0.52-3.62c-0.69,0-1.38,0-2.07,0c-0.34,2.07-0.69,4.14-1.03,6.2c0.86,0.86,1.72,1.72,2.59,2.59
			c-0.69,2.07-1.38,4.14-2.07,6.2c-1.21,0.17-2.41,0.34-3.62,0.52c0,4.65,0,9.31,0,13.96c-2.76,0.69-5.52,1.38-8.27,2.07
			c0.11,4.5-0.84,5.66-4.14,6.72c0,1.21,0,2.41,0,3.62c-13.15,0.79-24.9,1.03-35.16-2.59c-1.29,5.61-11.91,30.13-13.96,33.09
			c4.83,8.1,9.65,16.2,14.48,24.3c1.38-0.17,2.76-0.34,4.14-0.52c0.17,2.24,0.34,4.48,0.52,6.72c-2.76,1.03-5.52,2.07-8.27,3.1
			c0.34,1.72,0.69,3.45,1.03,5.17c-5.97,2.11-6.47,1.24-10.86-2.59c-2.07,0.34-4.14,0.69-6.2,1.03c-0.52-0.86-1.03-1.72-1.55-2.59
			c1.03-0.69,2.07-1.38,3.1-2.07c-2.41-5.17-4.83-10.34-7.24-15.51c-3.62-0.17-7.24-0.34-10.86-0.52
			c-5.05-9.68-3.42-9.71-14.48-13.96c-0.52,0.34-1.03,0.69-1.55,1.03c-0.52,0.86-1.03,1.72-1.55,2.59
			c-0.86-0.69-1.72-1.38-2.59-2.07c-5.24-9.63-37.61-3.35-48.08-21.72c1.91-2.61,3.09-2.94,0.52-5.17c-5,2.82-4.68,1.76-8.79-1.55
			c-3.27-5-6.55-10-9.82-14.99c-1.38,1.38-2.76,2.76-4.14,4.14c-0.17,0-0.34,0-0.52,0c-3.35-1.66-3.59-3.12-9.31-3.1
			c-0.69-1.55-1.38-3.1-2.07-4.65c0,0.34,0,0.69,0,1.03c-0.69,0.86-1.38,1.72-2.07,2.59c-4.97-1.77-8.57-0.48-12.93-1.03
			c-1.38-4.14-2.76-8.27-4.14-12.41c-1.72,0.17-3.45,0.34-5.17,0.52c-1.46-4.4-2.03-6.09,3.62-6.72c-1.18-8.34-5.06-9.97-4.65-17.58
			c1.38-0.17,2.76-0.34,4.14-0.52c-0.34-1.38-0.69-2.76-1.03-4.14c0.34,0,0.69,0,1.03,0c12.68-4.7,34.52,2.08,41.88-7.76
			c-1.03-0.52-2.07-1.03-3.1-1.55c-0.17-2.76-0.34-5.52-0.52-8.27c-10.68-3.45-21.37-6.89-32.06-10.34
			c3.42-7.26,0.18-8.95,2.59-16.55c1.72-3.1,3.45-6.2,5.17-9.31c-1.72-2.07-3.45-4.14-5.17-6.2c0.15-3.22,0.85-4.32,2.07-6.2
			c5.8-2.68,6.33-3.5,11.37,0.52c2.85-2.43,2.83-4.46,8.27-4.65c0.49-4.82,0.77-11.38,2.59-14.99c3.62-1.72,7.24-3.45,10.86-5.17
			c-0.87-4.84,1.35-9,5.17-11.89c2.26,1.37,2.8,2.84,5.69,3.62c2.07-1.03,4.14-2.07,6.2-3.1c-0.3-2.53-0.36-2.78,0.52-4.65
			c5.22-1.66,11.61-1.61,18.1-3.62c-0.19-3.27-0.37-5.45,1.55-6.72c3.27-1.03,6.55-2.07,9.82-3.1c1.03,1.9,2.07,3.79,3.1,5.69
			c3.45-0.34,6.89-0.69,10.34-1.03c2.39-1.14,1.13-2.93,5.17-3.62c8.46,10.46,4.75,29.35,4.65,41.88c4.05-0.46,4.8,0.38,7.24,2.59
			c0,0.52,0,1.03,0,1.55c-1.72,1.21-3.45,2.41-5.17,3.62c1.72,2.07,3.45,4.14,5.17,6.2c1.06,3.2-0.5,4.9,1.03,8.27
			c16.82,2.09,35.28,5.5,50.15,9.82c-5.69,7.93-11.38,15.86-17.06,23.78c0.52,0.69,1.03,1.38,1.55,2.07
			c4.21-2.93,5.36-0.46,8.79,2.59c2.92-1.5,4.73-2.13,8.79-1.55c0,0.52,0,1.03,0,1.55c-1.05,2.29-1.55,4.07-1.55,7.76
			c2.58-0.17,5.17-0.34,7.76-0.52c0-2.76,0-5.52,0-8.27c1.38,0,2.76,0,4.14,0c0.35,5.2,3.46,6.67,5.69,10.34
			c1.67-1.35,1.95-1.41,1.55-3.62c0.17-0.34,0.34-0.69,0.52-1.03c4.23,0.02,4.5,0.91,6.72,2.59c0,0.17,0,0.34,0,0.52
			C307.88,325.13,307.36,327.37,306.84,329.61z"/>
	</g>
	<g id="XMLID_9_">
		<g id="XMLID_53_">
			<path class="st2" d="M416.72,379.54c0,0.74-0.14,1.44-0.43,2.09s-0.67,1.22-1.16,1.71s-1.06,0.88-1.71,1.16
				c-0.65,0.29-1.35,0.43-2.09,0.43h-8.99v-17.98h8.99c0.74,0,1.44,0.14,2.09,0.43s1.22,0.67,1.71,1.16s0.88,1.06,1.16,1.71
				c0.28,0.65,0.43,1.35,0.43,2.09c0,0.33-0.05,0.68-0.14,1.03c-0.09,0.35-0.22,0.69-0.39,1.02c-0.17,0.33-0.37,0.62-0.6,0.89
				c-0.23,0.27-0.49,0.49-0.78,0.67c0.29,0.16,0.56,0.37,0.79,0.65c0.23,0.27,0.43,0.57,0.6,0.9c0.17,0.33,0.29,0.67,0.38,1.02
				C416.67,378.87,416.72,379.21,416.72,379.54z M405.93,374.15h5.39c0.25,0,0.48-0.05,0.7-0.14c0.22-0.09,0.41-0.22,0.57-0.38
				s0.29-0.36,0.38-0.58c0.09-0.22,0.14-0.46,0.14-0.71s-0.05-0.49-0.14-0.7c-0.09-0.22-0.22-0.41-0.38-0.57
				c-0.16-0.16-0.35-0.29-0.57-0.38c-0.22-0.09-0.45-0.14-0.7-0.14h-5.39V374.15z M405.93,381.34h5.39c0.25,0,0.48-0.05,0.7-0.14
				c0.22-0.09,0.41-0.22,0.57-0.38s0.29-0.35,0.38-0.57c0.09-0.22,0.14-0.45,0.14-0.7s-0.05-0.48-0.14-0.7
				c-0.09-0.22-0.22-0.41-0.38-0.57s-0.35-0.29-0.57-0.38c-0.22-0.09-0.45-0.14-0.7-0.14h-5.39V381.34z"/>
		</g>
		<g id="XMLID_91_">
			<path class="st2" d="M428.94,383.37c-0.28,0.25-0.57,0.49-0.88,0.71c-0.31,0.22-0.64,0.41-0.98,0.58s-0.7,0.29-1.06,0.39
				c-0.36,0.1-0.73,0.14-1.11,0.14c-0.83,0-1.61-0.15-2.33-0.44c-0.73-0.29-1.37-0.71-1.91-1.25c-0.55-0.54-0.98-1.2-1.29-1.97
				s-0.47-1.64-0.47-2.6v-7.42h3.41v7.42c0,0.45,0.07,0.85,0.21,1.21s0.32,0.65,0.56,0.9c0.23,0.24,0.51,0.43,0.82,0.55
				c0.31,0.13,0.65,0.19,1.01,0.19c0.35,0,0.68-0.08,1-0.24s0.59-0.38,0.82-0.65c0.23-0.27,0.42-0.57,0.55-0.91
				c0.13-0.34,0.2-0.69,0.2-1.05v-7.42h3.42v13.43h-0.83L428.94,383.37z"/>
		</g>
		<g id="XMLID_94_">
			<path class="st2" d="M445.24,374.18l-2.51,2.52c-0.13-0.35-0.3-0.67-0.51-0.95s-0.46-0.52-0.73-0.71
				c-0.27-0.19-0.57-0.34-0.88-0.44c-0.32-0.1-0.64-0.15-0.98-0.15c-0.47,0-0.91,0.1-1.32,0.29c-0.41,0.19-0.77,0.46-1.08,0.81
				c-0.3,0.35-0.54,0.76-0.72,1.24s-0.26,1-0.26,1.58c0,0.47,0.09,0.91,0.26,1.32c0.18,0.41,0.42,0.77,0.72,1.08
				c0.31,0.31,0.67,0.55,1.08,0.73c0.41,0.18,0.85,0.26,1.32,0.26c0.33,0,0.66-0.05,0.97-0.14c0.31-0.09,0.6-0.22,0.87-0.39
				c0.27-0.17,0.51-0.38,0.73-0.63c0.21-0.25,0.39-0.52,0.52-0.82l2.51,2.52c-0.32,0.45-0.68,0.86-1.1,1.22
				c-0.41,0.36-0.86,0.67-1.34,0.92c-0.48,0.25-0.99,0.44-1.52,0.57c-0.53,0.13-1.08,0.19-1.64,0.19c-0.94,0-1.83-0.18-2.66-0.53
				c-0.83-0.36-1.56-0.84-2.18-1.46c-0.62-0.62-1.11-1.34-1.47-2.17s-0.54-1.71-0.54-2.66c0-1.03,0.18-1.99,0.54-2.88
				s0.85-1.67,1.47-2.34c0.62-0.66,1.35-1.19,2.18-1.57c0.83-0.38,1.72-0.58,2.66-0.58c0.56,0,1.11,0.07,1.65,0.21
				c0.54,0.14,1.05,0.35,1.54,0.62s0.94,0.6,1.35,1C444.59,373.22,444.94,373.67,445.24,374.18z"/>
		</g>
		<g id="XMLID_96_">
			<path class="st2" d="M450.34,384.94h-3.42v-18.77h3.42v5.93c0.41-0.31,0.83-0.53,1.27-0.66s0.88-0.19,1.33-0.19
				c0.83,0,1.61,0.16,2.33,0.47c0.73,0.31,1.36,0.74,1.9,1.29s0.97,1.19,1.28,1.92s0.47,1.51,0.47,2.34v7.67h-3.45v-7.67h0.03
				c0-0.35-0.07-0.68-0.2-1s-0.32-0.59-0.55-0.82c-0.23-0.23-0.51-0.42-0.81-0.55c-0.31-0.13-0.64-0.2-0.99-0.2
				c-0.36,0-0.7,0.07-1.02,0.2c-0.32,0.13-0.59,0.32-0.83,0.55c-0.23,0.23-0.42,0.51-0.55,0.82s-0.2,0.65-0.2,1V384.94z"/>
		</g>
		<g id="XMLID_100_">
			<path class="st2" d="M474.35,384.94h-0.83l-1.33-1.84c-0.33,0.29-0.67,0.57-1.03,0.82c-0.36,0.25-0.75,0.48-1.15,0.66
				s-0.81,0.34-1.24,0.45s-0.85,0.16-1.29,0.16c-0.95,0-1.83-0.16-2.67-0.48c-0.83-0.32-1.56-0.78-2.18-1.39
				c-0.62-0.61-1.11-1.35-1.47-2.23c-0.36-0.88-0.54-1.88-0.54-3c0-1.04,0.18-2,0.54-2.88c0.36-0.87,0.85-1.62,1.47-2.25
				s1.35-1.11,2.18-1.46c0.83-0.35,1.72-0.52,2.67-0.52c0.43,0,0.87,0.05,1.29,0.16c0.43,0.11,0.84,0.26,1.24,0.45
				c0.4,0.19,0.78,0.42,1.15,0.68c0.36,0.26,0.7,0.54,1.02,0.84l1.33-1.59h0.83V384.94z M470.9,378.1c0-0.47-0.09-0.92-0.27-1.36
				c-0.18-0.44-0.42-0.83-0.73-1.17s-0.67-0.61-1.08-0.82c-0.41-0.2-0.85-0.31-1.32-0.31c-0.47,0-0.91,0.08-1.32,0.24
				c-0.41,0.16-0.77,0.39-1.08,0.7c-0.31,0.31-0.54,0.69-0.72,1.15c-0.18,0.46-0.26,0.98-0.26,1.56c0,0.59,0.09,1.11,0.26,1.56
				c0.18,0.46,0.42,0.84,0.72,1.15c0.3,0.31,0.67,0.54,1.08,0.7c0.41,0.16,0.85,0.24,1.32,0.24c0.47,0,0.91-0.1,1.32-0.31
				c0.41-0.21,0.78-0.48,1.08-0.81c0.31-0.34,0.55-0.73,0.73-1.17C470.81,379.02,470.9,378.57,470.9,378.1z"/>
		</g>
		<g id="XMLID_127_">
			<path class="st2" d="M480.38,384.94h-3.42v-13.43h0.83l1.13,1.59c0.55-0.5,1.18-0.89,1.88-1.16c0.7-0.27,1.43-0.41,2.18-0.41H486
				v3.41h-3.02c-0.36,0-0.7,0.07-1.02,0.2c-0.32,0.13-0.59,0.32-0.83,0.55s-0.42,0.51-0.55,0.83c-0.13,0.32-0.2,0.66-0.2,1.02
				V384.94z"/>
		</g>
		<g id="XMLID_141_">
			<path class="st2" d="M492.68,381.65c0.13,0.04,0.27,0.07,0.4,0.08c0.13,0.01,0.27,0.02,0.4,0.02c0.33,0,0.66-0.05,0.97-0.14
				c0.31-0.09,0.6-0.22,0.87-0.39c0.27-0.17,0.51-0.38,0.73-0.63c0.21-0.25,0.39-0.52,0.52-0.82l2.51,2.52
				c-0.32,0.45-0.68,0.86-1.1,1.22s-0.86,0.67-1.34,0.92c-0.48,0.25-0.99,0.44-1.52,0.57c-0.53,0.13-1.08,0.19-1.64,0.19
				c-0.95,0-1.83-0.18-2.67-0.53c-0.83-0.35-1.56-0.84-2.18-1.47s-1.11-1.37-1.47-2.24c-0.36-0.87-0.54-1.82-0.54-2.85
				c0-1.06,0.18-2.03,0.54-2.91c0.36-0.88,0.85-1.63,1.47-2.24c0.62-0.62,1.35-1.1,2.18-1.44c0.83-0.34,1.72-0.51,2.67-0.51
				c0.56,0,1.11,0.07,1.64,0.2c0.54,0.13,1.04,0.33,1.52,0.58s0.93,0.56,1.35,0.92s0.79,0.77,1.1,1.22L492.68,381.65z
				 M494.44,374.59c-0.16-0.06-0.32-0.1-0.47-0.11c-0.15-0.02-0.32-0.03-0.48-0.03c-0.47,0-0.91,0.09-1.32,0.26
				c-0.41,0.17-0.77,0.42-1.08,0.73c-0.31,0.32-0.54,0.7-0.72,1.15s-0.26,0.95-0.26,1.51c0,0.13,0.01,0.27,0.02,0.43
				c0.01,0.16,0.03,0.32,0.06,0.48c0.03,0.16,0.06,0.32,0.11,0.47c0.04,0.15,0.1,0.28,0.16,0.4L494.44,374.59z"/>
		</g>
		<g id="XMLID_144_">
			<path class="st2" d="M508.19,384.94h-7.82v-3.41h7.82c0.23,0,0.43-0.08,0.6-0.25c0.17-0.17,0.25-0.37,0.25-0.6
				c0-0.24-0.08-0.4-0.25-0.48c-0.17-0.08-0.37-0.11-0.6-0.11h-3.56c-0.59,0-1.15-0.11-1.67-0.34s-0.97-0.53-1.35-0.92
				s-0.69-0.84-0.91-1.36c-0.22-0.52-0.33-1.07-0.33-1.67s0.11-1.15,0.33-1.67s0.52-0.97,0.91-1.35c0.38-0.38,0.84-0.69,1.35-0.91
				c0.52-0.22,1.07-0.33,1.67-0.33h6.93v3.41h-6.93c-0.23,0-0.44,0.08-0.6,0.25c-0.17,0.17-0.25,0.37-0.25,0.6
				c0,0.24,0.08,0.45,0.25,0.62c0.17,0.17,0.37,0.26,0.6,0.26h3.56c0.58,0,1.14,0.1,1.66,0.29s0.97,0.47,1.35,0.82
				c0.38,0.35,0.69,0.77,0.92,1.27s0.34,1.03,0.34,1.62c0,0.59-0.11,1.15-0.34,1.66c-0.23,0.51-0.53,0.96-0.92,1.35
				c-0.38,0.39-0.84,0.69-1.35,0.92S508.78,384.94,508.19,384.94z"/>
		</g>
		<g id="XMLID_146_">
			<path class="st2" d="M521,384.94c-0.83,0-1.6-0.16-2.33-0.47s-1.36-0.74-1.91-1.29s-0.98-1.18-1.29-1.91s-0.47-1.5-0.47-2.33
				v-3.99h-1.67v-3.41H515v-5.37h3.41v5.37h5.19v3.41h-5.19v3.99c0,0.36,0.07,0.7,0.2,1.01s0.32,0.59,0.55,0.82
				c0.23,0.23,0.51,0.42,0.83,0.56c0.32,0.14,0.66,0.21,1.02,0.21h2.6v3.41H521z"/>
		</g>
	</g>
	<g id="XMLID_8_">
		<g id="XMLID_45_">
			<path class="st2" d="M374.34,361.37h-9.75v-48.7h9.75v19.5h19.46v-19.5h9.75v48.7h-9.75V341.9h-19.46V361.37z"/>
			<path class="st2" d="M404.55,362.37H392.8V342.9h-17.46v19.46H363.6v-50.7h11.75v19.5h17.46v-19.5h11.75V362.37z M394.8,360.37
				h7.75v-46.7h-7.75v19.5h-21.46v-19.5h-7.75v46.7h7.75V340.9h21.46V360.37z"/>
		</g>
		<g id="XMLID_47_">
			<path class="st2" d="M451,341.9c0,2.69-0.51,5.23-1.53,7.59c-1.02,2.37-2.41,4.43-4.18,6.18c-1.77,1.75-3.83,3.14-6.2,4.16
				c-2.37,1.02-4.9,1.53-7.59,1.53c-2.7,0-5.23-0.51-7.59-1.53s-4.43-2.41-6.18-4.16c-1.75-1.75-3.14-3.82-4.16-6.18
				c-1.02-2.37-1.53-4.9-1.53-7.59v-29.24h9.71v29.24c0,1.34,0.25,2.59,0.76,3.77c0.51,1.18,1.21,2.21,2.09,3.09
				c0.88,0.88,1.92,1.58,3.11,2.09c1.19,0.51,2.45,0.76,3.79,0.76c1.33,0,2.6-0.25,3.79-0.76c1.19-0.51,2.22-1.21,3.11-2.09
				c0.88-0.88,1.58-1.91,2.09-3.09c0.51-1.18,0.76-2.43,0.76-3.77v-29.24H451V341.9z"/>
			<path class="st2" d="M431.5,362.37c-2.82,0-5.51-0.54-7.99-1.61c-2.47-1.06-4.66-2.54-6.49-4.37c-1.84-1.84-3.31-4.02-4.37-6.49
				c-1.07-2.48-1.61-5.17-1.61-7.99v-30.24h11.71v30.24c0,1.19,0.23,2.33,0.68,3.37c0.46,1.06,1.09,1.99,1.88,2.78
				c0.79,0.79,1.73,1.42,2.79,1.88c2.12,0.9,4.67,0.91,6.79,0c1.06-0.46,2-1.09,2.79-1.88c0.79-0.79,1.42-1.73,1.88-2.78
				c0.45-1.05,0.68-2.18,0.68-3.37v-30.24H452v30.24c0,2.82-0.54,5.51-1.61,7.99c-1.07,2.47-2.54,4.66-4.39,6.5
				c-1.85,1.84-4.04,3.31-6.51,4.37C437.01,361.82,434.32,362.37,431.5,362.37z M413.04,313.66v28.24c0,2.54,0.49,4.97,1.45,7.2
				c0.96,2.24,2.29,4.21,3.95,5.87c1.66,1.66,3.63,2.99,5.87,3.95c2.23,0.96,4.65,1.45,7.2,1.45c2.54,0,4.96-0.49,7.2-1.45
				c2.24-0.96,4.22-2.29,5.89-3.95c1.67-1.66,3-3.63,3.96-5.87c0.96-2.23,1.45-4.65,1.45-7.2v-28.24h-7.75v28.24
				c0,1.47-0.28,2.87-0.85,4.17c-0.56,1.29-1.33,2.43-2.3,3.4c-0.97,0.97-2.12,1.74-3.42,2.3c-2.62,1.12-5.74,1.12-8.36,0
				c-1.3-0.56-2.45-1.33-3.42-2.3c-0.97-0.97-1.74-2.11-2.3-3.4c-0.56-1.3-0.85-2.7-0.85-4.17v-28.24H413.04z"/>
		</g>
		<g id="XMLID_49_">
			<path class="st2" d="M498.41,361.37h-10.43L469.2,329.3v32.06h-9.75v-48.7h10.43l18.78,32.1v-32.1h9.75V361.37z"/>
			<path class="st2" d="M499.41,362.37h-12l-17.21-29.38v29.38h-11.75v-50.7h12l17.21,29.41v-29.41h11.75V362.37z M488.56,360.37
				h8.85v-46.7h-7.75v34.78l-20.36-34.78h-8.85v46.7h7.75v-34.75L488.56,360.37z"/>
		</g>
		<g id="XMLID_51_">
			<path class="st2" d="M527.89,361.37h-9.71v-38.96h-14.64v-9.75h38.96v9.75h-14.6V361.37z"/>
			<path class="st2" d="M528.89,362.37h-11.71v-38.96h-14.64v-11.75h40.96v11.75h-14.6V362.37z M519.18,360.37h7.71v-38.96h14.6
				v-7.75h-36.96v7.75h14.64V360.37z"/>
		</g>
	</g>
	<g id="XMLID_6_">
		<g id="XMLID_13_">
			<path class="st2" d="M215,304.91h-10.35V264h-15.6v-10.24h41.51V264H215V304.91z"/>
			<path class="st2" d="M216,305.91h-12.35V265h-15.6v-12.24h43.51V265H216V305.91z M205.65,303.91H214V263h15.56v-8.24h-39.51V263
				h15.6V303.91z"/>
		</g>
		<g id="XMLID_24_">
			<path class="st2" d="M246.45,304.91h-10.39v-51.16h20.77c1.91,0,3.74,0.24,5.5,0.73c1.76,0.49,3.41,1.18,4.94,2.07
				c1.53,0.89,2.93,1.96,4.2,3.21s2.35,2.63,3.26,4.16c0.9,1.52,1.6,3.15,2.1,4.89c0.49,1.74,0.74,3.54,0.74,5.42
				c0,1.76-0.22,3.47-0.67,5.14c-0.45,1.67-1.09,3.25-1.92,4.74c-0.83,1.5-1.85,2.88-3.06,4.14c-1.21,1.26-2.56,2.35-4.05,3.28
				l5.75,13.38h-11.04l-4.52-10.31l-11.62,0.07V304.91z M246.45,264v20.48h10.39c1.42,0,2.76-0.27,4.02-0.8
				c1.25-0.54,2.35-1.27,3.29-2.19c0.94-0.93,1.68-2.02,2.23-3.26c0.54-1.25,0.81-2.57,0.81-3.98s-0.27-2.73-0.81-3.98
				c-0.54-1.25-1.28-2.34-2.23-3.26c-0.94-0.93-2.04-1.66-3.29-2.19c-1.25-0.54-2.59-0.8-4.02-0.8H246.45z"/>
			<path class="st2" d="M275.15,305.91h-13.21l-4.52-10.31l-9.96,0.06v10.24h-12.39v-53.16h21.77c1.99,0,3.93,0.26,5.77,0.77
				c1.83,0.51,3.58,1.24,5.18,2.17c1.6,0.93,3.08,2.06,4.4,3.36c1.32,1.3,2.47,2.77,3.41,4.36c0.94,1.59,1.69,3.31,2.2,5.12
				c0.52,1.82,0.78,3.73,0.78,5.7c0,1.84-0.24,3.65-0.7,5.4c-0.47,1.74-1.14,3.41-2.01,4.97c-0.87,1.57-1.95,3.03-3.21,4.34
				c-1.06,1.11-2.24,2.1-3.52,2.97L275.15,305.91z M263.24,303.91h8.87l-5.49-12.77l0.73-0.45c1.42-0.88,2.72-1.93,3.86-3.12
				c1.14-1.19,2.12-2.52,2.91-3.93c0.79-1.42,1.4-2.94,1.83-4.52c0.42-1.57,0.64-3.21,0.64-4.88c0-1.78-0.24-3.51-0.7-5.15
				c-0.47-1.64-1.14-3.21-2-4.65c-0.86-1.44-1.9-2.77-3.1-3.95c-1.2-1.18-2.55-2.21-4-3.06c-1.45-0.84-3.03-1.51-4.7-1.97
				c-1.67-0.46-3.43-0.7-5.23-0.7h-19.77v49.16h8.39v-10.23l13.27-0.08L263.24,303.91z M256.84,285.47h-11.39V263h11.39
				c1.55,0,3.04,0.3,4.41,0.88c1.36,0.58,2.58,1.39,3.6,2.4c1.03,1.01,1.85,2.22,2.44,3.58c0.6,1.37,0.9,2.84,0.9,4.38
				s-0.3,3.01-0.9,4.38c-0.59,1.36-1.41,2.56-2.44,3.58c-1.03,1.01-2.24,1.82-3.6,2.4C259.87,285.18,258.39,285.47,256.84,285.47z
				 M247.45,283.47h9.39c1.28,0,2.5-0.24,3.63-0.72c1.13-0.48,2.14-1.15,2.98-1.99c0.85-0.83,1.52-1.83,2.01-2.95
				c0.49-1.12,0.73-2.32,0.73-3.58s-0.25-2.46-0.73-3.58c-0.49-1.13-1.17-2.12-2.01-2.95c-0.85-0.83-1.85-1.5-2.98-1.99
				c-1.12-0.48-2.34-0.72-3.63-0.72h-9.39V283.47z"/>
		</g>
		<g id="XMLID_31_">
			<path class="st2" d="M319.95,304.91h-35.57v-51.16h35.57V264h-25.19v10.24h17.04v10.24h-17.04v10.2h25.19V304.91z"/>
			<path class="st2" d="M320.95,305.91h-37.57v-53.16h37.57V265h-25.19v8.24h17.04v12.24h-17.04v8.2h25.19V305.91z M285.38,303.91
				h33.57v-8.24h-25.19v-12.2h17.04v-8.24h-17.04V263h25.19v-8.24h-33.57V303.91z"/>
		</g>
		<g id="XMLID_33_">
			<path class="st2" d="M368.15,304.91h-10.39v-10.24h-20.77v10.24h-10.35v-30.68c0-2.83,0.54-5.49,1.63-7.97
				c1.09-2.48,2.56-4.66,4.43-6.51s4.06-3.32,6.59-4.39c2.52-1.07,5.22-1.61,8.09-1.61s5.57,0.54,8.09,1.61
				c2.52,1.07,4.72,2.53,6.6,4.39c1.88,1.85,3.37,4.03,4.45,6.51c1.09,2.49,1.63,5.14,1.63,7.97V304.91z M357.77,284.47v-10.24
				c0-1.4-0.27-2.73-0.81-3.98c-0.54-1.25-1.28-2.34-2.22-3.26c-0.94-0.93-2.04-1.66-3.31-2.19c-1.27-0.54-2.61-0.8-4.04-0.8
				c-1.42,0-2.77,0.27-4.03,0.8c-1.27,0.53-2.37,1.27-3.31,2.19c-0.94,0.93-1.68,2.02-2.23,3.26c-0.54,1.25-0.81,2.57-0.81,3.98
				v10.24H357.77z"/>
			<path class="st2" d="M369.15,305.91h-12.39v-10.24h-18.77v10.24h-12.35v-31.68c0-2.96,0.58-5.77,1.71-8.37
				c1.13-2.59,2.69-4.88,4.65-6.82c1.95-1.94,4.27-3.48,6.9-4.6c2.63-1.12,5.49-1.69,8.48-1.69c2.99,0,5.85,0.57,8.48,1.69
				c2.63,1.12,4.95,2.66,6.92,4.6c1.96,1.94,3.53,4.23,4.67,6.82c1.14,2.6,1.71,5.42,1.71,8.37V305.91z M358.77,303.91h8.39v-29.68
				c0-2.68-0.52-5.23-1.54-7.57c-1.03-2.36-2.46-4.44-4.24-6.2c-1.78-1.76-3.9-3.16-6.29-4.18c-2.39-1.01-4.98-1.53-7.7-1.53
				c-2.72,0-5.31,0.51-7.7,1.53c-2.39,1.01-4.5,2.42-6.27,4.18c-1.77,1.76-3.19,3.84-4.22,6.2c-1.03,2.35-1.54,4.9-1.54,7.57v29.68
				h8.35v-10.24h22.77V303.91z M358.77,285.47h-22.77v-11.24c0-1.53,0.3-3.01,0.9-4.38c0.59-1.36,1.41-2.56,2.44-3.58
				c1.03-1.01,2.25-1.82,3.63-2.4c2.77-1.17,6.08-1.17,8.85,0c1.38,0.58,2.6,1.39,3.62,2.4c1.03,1.01,1.85,2.22,2.44,3.58
				c0.6,1.37,0.9,2.84,0.9,4.38V285.47z M337.99,283.47h18.77v-9.24c0-1.26-0.25-2.46-0.73-3.58c-0.49-1.12-1.16-2.12-2.01-2.95
				c-0.85-0.83-1.86-1.5-3-1.98c-2.27-0.96-5.02-0.96-7.29,0c-1.14,0.48-2.15,1.15-3,1.98c-0.85,0.83-1.52,1.83-2.01,2.95
				c-0.48,1.12-0.73,2.32-0.73,3.58V283.47z"/>
		</g>
		<g id="XMLID_36_">
			<path class="st2" d="M374.12,269.1c0-2.12,0.41-4.1,1.23-5.96s1.94-3.48,3.35-4.87c1.41-1.39,3.06-2.49,4.94-3.3
				c1.88-0.81,3.9-1.21,6.04-1.21h23.81V264h-23.81c-0.72,0-1.4,0.13-2.03,0.39c-0.63,0.26-1.18,0.62-1.65,1.09
				c-0.47,0.46-0.84,1-1.1,1.62c-0.27,0.62-0.4,1.28-0.4,2s0.13,1.39,0.4,2.02c0.27,0.63,0.63,1.18,1.1,1.64
				c0.47,0.46,1.02,0.83,1.65,1.09c0.63,0.26,1.3,0.39,2.03,0.39h10.39c2.15,0,4.17,0.4,6.06,1.19c1.89,0.8,3.55,1.89,4.96,3.28
				c1.41,1.39,2.52,3.02,3.33,4.89c0.81,1.87,1.21,3.86,1.21,5.98s-0.4,4.1-1.21,5.96c-0.81,1.85-1.92,3.48-3.33,4.87
				c-1.41,1.39-3.06,2.49-4.96,3.3c-1.89,0.81-3.92,1.21-6.06,1.21h-23.05v-10.24h23.05c0.72,0,1.4-0.13,2.03-0.39
				c0.63-0.26,1.18-0.62,1.65-1.09s0.84-1,1.1-1.62c0.27-0.62,0.4-1.28,0.4-2s-0.13-1.38-0.4-2c-0.27-0.62-0.63-1.16-1.1-1.62
				c-0.47-0.46-1.02-0.83-1.65-1.09c-0.63-0.26-1.3-0.39-2.03-0.39h-10.39c-2.15,0-4.16-0.4-6.04-1.21
				c-1.88-0.81-3.53-1.91-4.94-3.3c-1.41-1.39-2.53-3.02-3.35-4.89C374.53,273.21,374.12,271.22,374.12,269.1z"/>
			<path class="st2" d="M400.07,305.91h-24.05v-12.24h24.05c0.6,0,1.13-0.1,1.64-0.31c0.5-0.21,0.95-0.51,1.33-0.88
				c0.38-0.37,0.67-0.8,0.89-1.31c0.21-0.49,0.32-1.03,0.32-1.6c0-0.58-0.1-1.11-0.32-1.6c-0.21-0.5-0.51-0.94-0.89-1.3
				c-0.38-0.37-0.82-0.67-1.33-0.88c-0.51-0.21-1.05-0.31-1.64-0.31h-10.39c-2.28,0-4.44-0.44-6.44-1.29
				c-1.99-0.85-3.75-2.03-5.25-3.51c-1.5-1.47-2.69-3.22-3.56-5.2c-0.87-1.99-1.31-4.13-1.31-6.38c0-2.25,0.44-4.39,1.32-6.36
				c0.87-1.96,2.07-3.71,3.56-5.18c1.49-1.47,3.26-2.65,5.25-3.51c2-0.86,4.16-1.29,6.44-1.29h24.81V265h-24.81
				c-0.59,0-1.14,0.11-1.64,0.31c-0.51,0.21-0.95,0.5-1.33,0.88c-0.38,0.37-0.68,0.81-0.89,1.31c-0.21,0.5-0.32,1.02-0.32,1.6
				c0,0.58,0.11,1.13,0.32,1.63c0.22,0.51,0.5,0.94,0.88,1.32c0.38,0.37,0.82,0.67,1.33,0.88c0.5,0.21,1.05,0.32,1.64,0.32h10.39
				c2.27,0,4.44,0.43,6.45,1.27c2,0.84,3.78,2.02,5.27,3.49c1.5,1.47,2.69,3.22,3.55,5.2c0.86,1.99,1.29,4.13,1.29,6.37
				c0,2.24-0.44,4.38-1.29,6.36c-0.86,1.97-2.05,3.71-3.54,5.18s-3.27,2.65-5.27,3.51C404.51,305.48,402.34,305.91,400.07,305.91z
				 M378.02,303.91h22.05c2,0,3.91-0.38,5.67-1.13c1.77-0.75,3.33-1.79,4.65-3.09c1.31-1.29,2.36-2.83,3.12-4.56
				c0.75-1.72,1.13-3.59,1.13-5.56c0-1.97-0.38-3.85-1.13-5.58c-0.75-1.74-1.8-3.28-3.11-4.57c-1.31-1.29-2.88-2.33-4.64-3.07
				c-1.76-0.74-3.67-1.12-5.67-1.12h-10.39c-0.85,0-1.67-0.16-2.41-0.47c-0.74-0.31-1.4-0.75-1.96-1.3
				c-0.56-0.55-1.01-1.22-1.32-1.96c-0.32-0.75-0.48-1.56-0.48-2.4c0-0.85,0.16-1.65,0.48-2.39c0.32-0.74,0.76-1.39,1.32-1.94
				c0.56-0.55,1.22-0.99,1.96-1.3c0.75-0.31,1.56-0.47,2.41-0.47h22.81v-8.24h-22.81c-2,0-3.9,0.38-5.65,1.13
				c-1.76,0.76-3.32,1.8-4.63,3.09c-1.31,1.3-2.37,2.83-3.13,4.56c-0.76,1.72-1.15,3.59-1.15,5.55c0,1.97,0.39,3.84,1.15,5.57
				c0.77,1.74,1.82,3.28,3.13,4.58c1.31,1.3,2.87,2.34,4.63,3.09c1.75,0.75,3.65,1.13,5.65,1.13h10.39c0.85,0,1.66,0.16,2.41,0.47
				c0.75,0.31,1.41,0.75,1.96,1.3c0.56,0.55,1,1.2,1.32,1.94c0.32,0.74,0.48,1.55,0.48,2.39c0,0.85-0.16,1.65-0.48,2.39
				c-0.32,0.73-0.76,1.39-1.32,1.94c-0.56,0.55-1.22,0.99-1.96,1.3c-0.75,0.31-1.56,0.47-2.41,0.47h-22.05V303.91z"/>
		</g>
		<g id="XMLID_38_">
			<path class="st2" d="M463.36,284.47c0,2.83-0.54,5.49-1.63,7.97c-1.08,2.49-2.57,4.65-4.45,6.49c-1.88,1.84-4.08,3.3-6.6,4.37
				c-2.52,1.07-5.22,1.61-8.09,1.61s-5.57-0.54-8.09-1.61c-2.52-1.07-4.72-2.53-6.59-4.37c-1.87-1.84-3.35-4.01-4.43-6.49
				c-1.09-2.48-1.63-5.14-1.63-7.97v-30.71h10.35v30.71c0,1.4,0.27,2.72,0.81,3.96c0.54,1.24,1.28,2.32,2.23,3.25
				c0.94,0.93,2.04,1.66,3.31,2.19s2.61,0.8,4.04,0.8s2.77-0.27,4.04-0.8s2.37-1.27,3.31-2.19c0.94-0.93,1.68-2.01,2.23-3.25
				c0.54-1.24,0.81-2.56,0.81-3.96v-30.71h10.39V284.47z"/>
			<path class="st2" d="M442.59,305.91c-2.99,0-5.85-0.57-8.48-1.69c-2.63-1.11-4.95-2.65-6.9-4.58c-1.95-1.92-3.52-4.21-4.65-6.8
				c-1.14-2.6-1.71-5.42-1.71-8.37v-31.71h12.35v31.71c0,1.26,0.25,2.45,0.73,3.56c0.49,1.12,1.17,2.1,2.01,2.94
				c0.84,0.83,1.85,1.5,3,1.98c2.27,0.96,5.02,0.96,7.29,0c1.14-0.48,2.15-1.15,3-1.98s1.52-1.82,2.01-2.94
				c0.48-1.1,0.73-2.3,0.73-3.56v-31.71h12.39v31.71c0,2.96-0.58,5.77-1.71,8.37c-1.13,2.59-2.7,4.88-4.67,6.81
				c-1.96,1.92-4.29,3.46-6.91,4.58C448.44,305.35,445.58,305.91,442.59,305.91z M422.86,254.76v29.71c0,2.68,0.52,5.23,1.54,7.57
				c1.03,2.36,2.45,4.44,4.22,6.18c1.77,1.75,3.88,3.15,6.27,4.16c2.38,1.01,4.97,1.53,7.7,1.53s5.31-0.51,7.7-1.53
				c2.39-1.02,4.51-2.42,6.29-4.16c1.78-1.74,3.21-3.82,4.24-6.18c1.03-2.35,1.54-4.89,1.54-7.57v-29.71h-8.39v29.71
				c0,1.54-0.3,3.01-0.9,4.36c-0.59,1.35-1.41,2.54-2.44,3.56s-2.25,1.82-3.62,2.4c-2.77,1.17-6.08,1.17-8.85,0
				c-1.38-0.58-2.6-1.39-3.62-2.4c-1.03-1.01-1.85-2.21-2.44-3.56c-0.6-1.36-0.9-2.83-0.9-4.36v-29.71H422.86z"/>
		</g>
		<g id="XMLID_40_">
			<path class="st2" d="M482.76,304.91h-10.39v-51.16h20.77c1.91,0,3.74,0.24,5.5,0.73c1.76,0.49,3.41,1.18,4.94,2.07
				s2.93,1.96,4.2,3.21s2.35,2.63,3.26,4.16c0.9,1.52,1.6,3.15,2.1,4.89c0.49,1.74,0.74,3.54,0.74,5.42c0,1.76-0.22,3.47-0.67,5.14
				c-0.45,1.67-1.09,3.25-1.92,4.74c-0.83,1.5-1.85,2.88-3.06,4.14c-1.21,1.26-2.56,2.35-4.05,3.28l5.75,13.38H498.9l-4.52-10.31
				l-11.62,0.07V304.91z M482.76,264v20.48h10.39c1.42,0,2.76-0.27,4.02-0.8c1.25-0.54,2.35-1.27,3.29-2.19
				c0.94-0.93,1.68-2.02,2.23-3.26c0.54-1.25,0.81-2.57,0.81-3.98s-0.27-2.73-0.81-3.98c-0.54-1.25-1.29-2.34-2.23-3.26
				c-0.94-0.93-2.04-1.66-3.29-2.19c-1.25-0.54-2.59-0.8-4.02-0.8H482.76z"/>
			<path class="st2" d="M511.46,305.91h-13.21l-4.52-10.31l-9.96,0.06v10.24h-12.39v-53.16h21.77c1.99,0,3.93,0.26,5.77,0.77
				c1.83,0.51,3.58,1.24,5.18,2.17c1.6,0.93,3.08,2.06,4.4,3.36c1.32,1.3,2.47,2.77,3.41,4.36c0.94,1.59,1.68,3.31,2.2,5.12
				c0.52,1.82,0.78,3.74,0.78,5.7c0,1.84-0.24,3.65-0.7,5.4c-0.46,1.73-1.14,3.41-2.01,4.97c-0.87,1.57-1.95,3.03-3.21,4.34
				c-1.06,1.11-2.24,2.1-3.52,2.97L511.46,305.91z M499.55,303.91h8.87l-5.5-12.77l0.73-0.45c1.42-0.88,2.72-1.93,3.86-3.12
				c1.14-1.19,2.12-2.52,2.91-3.93c0.79-1.42,1.4-2.94,1.83-4.52c0.42-1.57,0.64-3.21,0.64-4.88c0-1.77-0.24-3.51-0.7-5.15
				c-0.47-1.65-1.14-3.21-2-4.65c-0.86-1.44-1.9-2.77-3.1-3.95c-1.2-1.18-2.55-2.21-4-3.06c-1.45-0.84-3.03-1.51-4.7-1.97
				c-1.67-0.46-3.43-0.7-5.23-0.7h-19.77v49.16h8.39v-10.23l13.27-0.08L499.55,303.91z M493.15,285.47h-11.39V263h11.39
				c1.55,0,3.04,0.3,4.41,0.88c1.36,0.58,2.58,1.39,3.6,2.4c1.03,1.01,1.85,2.22,2.44,3.58c0.59,1.37,0.9,2.84,0.9,4.38
				s-0.3,3.01-0.9,4.38c-0.59,1.36-1.41,2.56-2.44,3.58c-1.03,1.01-2.24,1.82-3.6,2.4C496.18,285.18,494.7,285.47,493.15,285.47z
				 M483.76,283.47h9.39c1.28,0,2.5-0.24,3.62-0.72c1.13-0.48,2.14-1.15,2.98-1.99c0.85-0.83,1.52-1.83,2.01-2.95
				c0.48-1.12,0.73-2.32,0.73-3.58s-0.25-2.46-0.73-3.58c-0.49-1.12-1.17-2.12-2.01-2.95c-0.85-0.83-1.85-1.5-2.98-1.99
				c-1.12-0.48-2.34-0.72-3.63-0.72h-9.39V283.47z"/>
		</g>
		<g id="XMLID_43_">
			<path class="st2" d="M556.26,304.91h-35.57v-51.16h35.57V264h-25.19v10.24h17.04v10.24h-17.04v10.2h25.19V304.91z"/>
			<path class="st2" d="M557.26,305.91h-37.57v-53.16h37.57V265h-25.19v8.24h17.04v12.24h-17.04v8.2h25.19V305.91z M521.69,303.91
				h33.57v-8.24h-25.19v-12.2h17.04v-8.24h-17.04V263h25.19v-8.24h-33.57V303.91z"/>
		</g>
	</g>
	<g id="Dotted_line">
		<g id="XMLID_79_">
			<g id="XMLID_62_">
				<path class="st3" d="M482.53,399.92l-3.99-0.34c0.13-1.59,0.2-3.22,0.2-4.83h4C482.75,396.48,482.68,398.22,482.53,399.92z"/>
			</g>
			<g id="XMLID_60_">
				<path class="st3" d="M452.2,444.25l-1.46-3.72c2.63-1.03,5.18-2.39,7.58-4.03l2.26,3.3C457.92,441.61,455.1,443.11,452.2,444.25
					z M467.77,433.69l-2.88-2.77c1.97-2.05,3.79-4.33,5.39-6.79l3.35,2.19C471.88,428.98,469.92,431.46,467.77,433.69z
					 M478.05,418.05l-3.68-1.58c1.13-2.64,2.06-5.42,2.76-8.26l3.88,0.96C480.27,412.21,479.27,415.2,478.05,418.05z"/>
			</g>
			<g id="XMLID_55_">
				<path class="st3" d="M437.72,447v-4c1.58,0,3.17-0.11,4.72-0.31l0.53,3.96C441.24,446.88,439.47,447,437.72,447z"/>
			</g>
		</g>
		<g id="XMLID_81_">
			<g id="XMLID_23_">
				<path class="st3" d="M252.6,244.39l-3.35-2.18c0.93-1.43,1.89-2.84,2.85-4.2l3.27,2.31C254.44,241.63,253.51,243,252.6,244.39z"
					/>
			</g>
			<g id="XMLID_22_">
				<path class="st3" d="M261.07,232.87l-3.08-2.56c2.09-2.52,4.29-4.94,6.52-7.2l2.84,2.81
					C265.2,228.11,263.09,230.44,261.07,232.87z M423.04,230.02c-2.75-1.64-5.51-3.23-8.21-4.74l1.95-3.49
					c2.74,1.52,5.53,3.14,8.31,4.8L423.04,230.02z M406.49,220.81c-2.84-1.47-5.7-2.88-8.49-4.19l1.71-3.62
					c2.83,1.33,5.73,2.76,8.62,4.25L406.49,220.81z M274.23,219.61l-2.56-3.07c2.51-2.09,5.13-4.06,7.79-5.84l2.23,3.32
					C279.15,215.72,276.64,217.61,274.23,219.61z M389.36,212.75c-2.94-1.25-5.9-2.42-8.78-3.49l1.39-3.75
					c2.94,1.09,5.95,2.29,8.95,3.56L389.36,212.75z M289.7,209.25l-1.86-3.54c2.87-1.51,5.86-2.86,8.88-4.04l1.45,3.73
					C295.29,206.51,292.44,207.81,289.7,209.25z M371.66,206.19c-3.04-0.96-6.09-1.83-9.06-2.58l0.99-3.88
					c3.04,0.77,6.17,1.67,9.28,2.65L371.66,206.19z M307.02,202.5l-1.03-3.86c3.1-0.83,6.3-1.5,9.53-2.01l0.62,3.95
					C313.05,201.06,309.98,201.71,307.02,202.5z M353.41,201.58c-3.13-0.59-6.25-1.06-9.29-1.4l0.45-3.97
					c3.13,0.36,6.35,0.84,9.57,1.45L353.41,201.58z M325.42,199.59l-0.23-3.99c3.17-0.18,6.42-0.22,9.71-0.11l-0.13,4
					C331.6,199.38,328.48,199.42,325.42,199.59z"/>
			</g>
			<g id="XMLID_21_">
				<path class="st3" d="M435.36,237.71c-1.4-0.91-2.8-1.81-4.19-2.69l2.14-3.38c1.4,0.89,2.81,1.79,4.23,2.72L435.36,237.71z"/>
			</g>
		</g>
		<g id="XMLID_83_">
			<g id="XMLID_20_">
				
					<rect x="427.79" y="441.54" transform="matrix(0.384 -0.9233 0.9233 0.384 -145.2517 670.3549)" class="st3" width="4" height="5"/>
			</g>
			<g id="XMLID_19_">
				<path class="st3" d="M417.32,441.02l-9.39-3.91l1.54-3.69l9.39,3.91L417.32,441.02z M398.53,433.21l-9.39-3.91l1.54-3.69
					l9.39,3.91L398.53,433.21z M379.75,425.39l-9.39-3.91l1.54-3.69l9.39,3.91L379.75,425.39z M360.96,417.58l-9.39-3.91l1.54-3.69
					l9.39,3.91L360.96,417.58z"/>
			</g>
			<g id="XMLID_18_">
				
					<rect x="338.64" y="404.46" transform="matrix(0.384 -0.9233 0.9233 0.384 -165.9269 565.2177)" class="st3" width="4" height="5"/>
			</g>
		</g>
		<g id="XMLID_84_">
			<g id="XMLID_17_">
				<path class="st3" d="M333.03,402.24c-1.61-0.2-3.21-0.31-4.78-0.34l0.07-4c1.7,0.03,3.45,0.16,5.2,0.37L333.03,402.24z"/>
			</g>
			<g id="XMLID_16_">
				<path class="st3" d="M282.73,440.62l-3.79-1.27c1.22-3.65,2.68-7.19,4.34-10.53l3.58,1.79
					C285.27,433.78,283.88,437.15,282.73,440.62z M292.4,421.36l-3.25-2.33c2.31-3.21,4.85-6.13,7.55-8.66l2.73,2.92
					C296.93,415.65,294.56,418.36,292.4,421.36z M307.97,406.98L306,403.5c3.42-1.93,7.04-3.38,10.78-4.32l0.97,3.88
					C314.36,403.91,311.07,405.23,307.97,406.98z"/>
			</g>
			<g id="XMLID_14_">
				<path class="st3" d="M279.24,455.94l-3.97-0.49c0.21-1.68,0.47-3.38,0.79-5.07l3.93,0.74
					C279.69,452.73,279.44,454.35,279.24,455.94z"/>
			</g>
		</g>
		<g id="XMLID_85_">
			<path class="st3" d="M213.45,396l-4-0.18c0.02-0.46,0.05-0.91,0.11-1.31l3.97,0.52C213.48,395.32,213.46,395.65,213.45,396z"/>
		</g>
		<g id="XMLID_86_">
			<g id="XMLID_11_">
				<path class="st3" d="M210.89,401.21l-3.58-1.78c0.74-1.49,1.55-3.01,2.39-4.51l3.48,1.96
					C212.38,398.33,211.61,399.78,210.89,401.21z"/>
			</g>
			<g id="XMLID_7_">
				<path class="st3" d="M243.55,478.92c-3.48-0.17-6.98-0.77-10.39-1.77l1.13-3.84c3.11,0.91,6.29,1.46,9.46,1.61L243.55,478.92z
					 M254.09,478.11l-0.81-3.92c3.13-0.65,6.16-1.71,9-3.15l1.81,3.57C260.93,476.22,257.57,477.39,254.09,478.11z M223.46,473.06
					c-3.06-1.72-5.94-3.79-8.54-6.14l2.68-2.97c2.38,2.16,5.02,4.05,7.82,5.62L223.46,473.06z M207.95,459.04
					c-2.01-2.87-3.71-5.97-5.04-9.23l3.7-1.51c1.22,2.98,2.77,5.82,4.61,8.45L207.95,459.04z M200.03,439.71
					c-0.51-2.92-0.76-5.95-0.76-9c0-0.48,0.01-0.95,0.02-1.43l4,0.1c-0.01,0.45-0.02,0.89-0.02,1.33c0,2.83,0.24,5.63,0.7,8.32
					L200.03,439.71z M204.39,419.7l-3.92-0.78c0.66-3.28,1.59-6.64,2.78-9.99l3.77,1.34C205.9,413.44,205.01,416.61,204.39,419.7z"
					/>
			</g>
			<g id="XMLID_5_">
				<path class="st3" d="M272.86,468.61l-2.66-2.98c1.17-1.04,2.29-2.18,3.35-3.38l3,2.65
					C275.38,466.21,274.14,467.46,272.86,468.61z"/>
			</g>
		</g>
		<g id="XMLID_87_">
			<g id="XMLID_4_">
				<path class="st3" d="M210.75,385.38c-0.17-1.63-0.38-3.26-0.63-4.85l3.95-0.62c0.26,1.66,0.48,3.36,0.65,5.07L210.75,385.38z"/>
			</g>
			<g id="XMLID_3_">
				<path class="st3" d="M207.96,370.75c-1.02-3.47-2.23-6.57-3.59-9.2l3.55-1.84c1.49,2.86,2.79,6.2,3.88,9.92L207.96,370.75z"/>
			</g>
			<g id="XMLID_2_">
				<path class="st3" d="M198.66,354.33c-1.18-0.8-2.33-1.16-3.43-1.08l-0.3-3.99c2.02-0.15,4.03,0.44,5.97,1.75L198.66,354.33z"/>
			</g>
		</g>
		<g id="XMLID_88_">
			<path class="st3" d="M213.49,396.21h-4c0-0.84-0.02-1.67-0.04-2.5l4-0.11C213.47,394.46,213.49,395.33,213.49,396.21z"/>
		</g>
	</g>
	<g id="XMLID_71_">
		<polygon class="st3" points="185.03,346.93 181.99,343.89 176.23,349.64 170.06,343.47 167.01,346.51 173.19,352.69 
			167.01,358.86 170.06,361.91 176.23,355.73 181.99,361.49 185.03,358.44 179.28,352.69 		"/>
	</g>
</g>
<g id="lupa">
	<g id="XMLID_131_">
		
			<rect x="314.94" y="462.25" transform="matrix(0.5158 -0.8567 0.8567 0.5158 -240.3676 512.4941)" class="st4" width="36.51" height="13.28"/>
	</g>
	<g id="XMLID_129_">
		
			<rect x="302.21" y="483.61" transform="matrix(0.5158 -0.8567 0.8567 0.5158 -264.8292 511.9361)" class="st4" width="36.51" height="13.28"/>
	</g>
	<g id="XMLID_126_">
		
			<rect x="317.48" y="466.76" transform="matrix(0.5158 -0.8567 0.8567 0.5158 -240.4568 515.4135)" class="st5" width="36.51" height="7.33"/>
	</g>
	<g id="XMLID_105_">
		
			<rect x="304.76" y="488.11" transform="matrix(0.5158 -0.8567 0.8567 0.5158 -264.9096 514.8588)" class="st5" width="36.51" height="7.33"/>
	</g>
	<g id="XMLID_93_">
		<path class="st6" d="M373.2,380.72l-49.21,22.59l13.49,44.32c17.35,10.89,46.56,4.23,57.08-13.25
			C405.07,416.91,392.87,395.33,373.2,380.72z"/>
	</g>
	<g id="XMLID_76_">
		<path class="st7" d="M373.49,462.31c-12.93,3.21-26.42,0.38-37.15-8.01c-6.11-4.77-10.82-11.19-13.56-18.45
			c-5.39-14.31-3.06-29.86,6.28-41.97c4.74-6.14,11.13-10.9,18.38-13.67c12.74-4.87,26.47-3.62,37.9,3.26
			c20.38,12.27,26.98,38.83,14.71,59.22C394.11,452.57,384.67,459.53,373.49,462.31z M355.89,391.45
			c-9.03,2.24-16.41,8.43-20.23,17.14c-2.06,4.7-2.86,9.91-2.28,15.02c1.23,10.87,7.92,19.92,17.94,24.29
			c4.63,2.02,9.75,2.81,14.77,2.27c10.16-1.09,18.75-6.95,23.44-15.84c7.02-13.3,2.85-30.08-9.58-38.55
			C372.82,390.92,364.19,389.39,355.89,391.45z"/>
	</g>
	<g id="XMLID_75_">
		<path class="st4" d="M385.34,383.48c-0.2-0.12-0.4-0.23-0.6-0.34l-6.85,11.37c0.2,0.11,0.41,0.22,0.6,0.34
			c14.11,8.49,18.68,26.89,10.18,41c-4.11,6.83-10.65,11.66-18.39,13.58c-7.74,1.92-15.77,0.72-22.61-3.4
			c-0.2-0.12-0.39-0.25-0.59-0.37l-6.85,11.37c0.2,0.12,0.39,0.25,0.59,0.37c9.87,5.94,21.47,7.69,32.65,4.91
			c11.18-2.78,20.62-9.75,26.56-19.62C412.32,422.31,405.72,395.75,385.34,383.48z"/>
	</g>
	<g id="XMLID_74_">
		<path class="st8" d="M340.07,470.57l-12.18-7.33c-2.52-1.52-5.8-0.7-7.32,1.82l-22.61,37.56c-1.52,2.52-0.7,5.8,1.82,7.32
			l12.18,7.33c1.26,0.76,2.71,0.94,4.04,0.61c1.32-0.33,2.52-1.16,3.28-2.42l22.61-37.56C343.41,475.36,342.59,472.09,340.07,470.57
			z"/>
	</g>
	<g id="XMLID_73_">
		<path class="st9" d="M333.5,466.61l-28.11,46.69l6.57,3.95c1.26,0.76,2.71,0.94,4.04,0.61c1.32-0.33,2.52-1.16,3.28-2.42
			l22.61-37.56c1.52-2.52,0.7-5.8-1.82-7.32L333.5,466.61z"/>
	</g>
	<g id="XMLID_10_">
		<g id="XMLID_58_">
			<defs>
				<rect id="SVGID_1_" x="344.13" y="399.45" width="35.42" height="38.7"/>
			</defs>
			<clipPath id="SVGID_2_">
				<use xlink:href="#SVGID_1_"  style="overflow:visible;"/>
			</clipPath>
			<g id="XMLID_61_" class="st10">
				<path class="st11" d="M350.89,437.83c3.4,0,5.21-2.8,5.74-4.46c0.01-0.03,0.02-0.05,0.02-0.08c1.24-4.72,3.21-12.21,4.67-17.66
					h5.23c0.98,0,1.78-0.73,1.78-1.64s-0.8-1.64-1.78-1.64h-4.34c0.47-1.72,0.81-2.94,0.94-3.36l0.15-0.47
					c0.55-1.73,1.84-5.8,3.84-5.8c1.85,0,2.13,2.63,2.14,2.76c0.08,0.9,0.93,1.58,1.91,1.5c0.98-0.07,1.71-0.86,1.64-1.76
					c-0.17-2-1.57-5.78-5.69-5.78c-4.67,0-6.42,5.51-7.26,8.16l-0.14,0.45c-0.17,0.52-0.62,2.14-1.21,4.3h-6.23
					c-0.98,0-1.78,0.73-1.78,1.64s0.8,1.64,1.78,1.64h5.35c-1.83,6.83-4.19,15.84-4.45,16.83c-0.1,0.26-0.83,2.08-2.32,2.08
					c-2.28,0-3.27-2.95-3.27-2.97c-0.27-0.87-1.26-1.37-2.2-1.12c-0.94,0.25-1.49,1.16-1.21,2.03
					C344.82,434.48,346.93,437.83,350.89,437.83L350.89,437.83z M350.89,437.83"/>
			</g>
		</g>
		<g id="XMLID_27_">
			<path class="st11" d="M377.29,433.6c1.05,0,1.93-0.69,1.93-1.78c0-0.51-0.22-0.97-0.69-1.47l-3.7-3.91l3.59-3.86
				c0.33-0.38,0.58-0.79,0.58-1.32c0-0.97-0.85-1.68-1.96-1.68c-0.74,0-1.32,0.43-1.82,0.99l-2.79,3.35l-2.73-3.35
				c-0.55-0.63-1.13-0.99-1.96-0.99c-1.05,0-1.93,0.69-1.93,1.78c0,0.51,0.22,0.97,0.69,1.47l3.45,3.66l-3.78,4.12
				c-0.36,0.38-0.58,0.79-0.58,1.32c0,0.97,0.85,1.68,1.96,1.68c0.74,0,1.32-0.43,1.82-0.99l2.98-3.61l2.98,3.61
				C375.88,433.25,376.46,433.6,377.29,433.6L377.29,433.6z M377.29,433.6"/>
		</g>
	</g>
</g>
</svg>
