<svg id="Layer_1" data-name="Layer 1" xmlns="http://www.w3.org/2000/svg" xmlns:xlink="http://www.w3.org/1999/xlink" viewBox="0 0 732 732"><defs><style>.cls-1{fill:none;}.cls-2{fill:#f7941e;}.cls-3{opacity:0.25;}.cls-4{fill:#8c6239;}.cls-5{fill:#fff;}.cls-6{fill:#cdedff;}.cls-7{fill:#c08d1a;}.cls-8{isolation:isolate;}.cls-9{clip-path:url(#clip-path);}.cls-10{fill:#245850;}.cls-11{fill:#430000;}.cls-12{fill:#200000;}.cls-13{fill:#747978;}.cls-14{fill:#e2e2e2;}.cls-15{fill:#c9c9c9;}.cls-16{fill:#777a7a;}.cls-17{fill:#767979;}.cls-18{fill:#efeeed;}.cls-19{fill:#9da3a2;}.cls-20{fill:#feda94;}.cls-21{fill:#64610e;}.cls-22{fill:#e44800;}.cls-23{opacity:0.2;}.cls-24{fill:#1c1e1c;}</style><clipPath id="clip-path" transform="translate(0)"><path class="cls-1" d="M506,494.18,188.07,309.42a6.86,6.86,0,0,1-2.51-2.65L503.49,491.53A6.88,6.88,0,0,0,506,494.18Z"/></clipPath></defs><title>about</title><rect class="cls-2" width="732" height="732" rx="50"/><g class="cls-3"><path class="cls-4" d="M295.47,688h-.05c-4.91-.11-10-.31-15.09-.62a2.5,2.5,0,0,1,.3-5c5,.3,10.05.51,14.9.61a2.5,2.5,0,0,1-.06,5Zm15,0a2.5,2.5,0,0,1-.05-5c5.1-.12,10.09-.36,14.84-.73a2.5,2.5,0,0,1,.39,5c-4.84.37-9.93.62-15.12.74Zm-45-1.76h-.24c-4.95-.47-10-1-15-1.68a2.5,2.5,0,1,1,.64-5c4.94.64,9.93,1.2,14.84,1.67a2.5,2.5,0,0,1-.24,5Zm74.84-.6a2.5,2.5,0,0,1-.35-5c5.12-.74,10-1.65,14.52-2.72a2.5,2.5,0,0,1,1.15,4.87c-4.66,1.1-9.7,2-15,2.8A2.17,2.17,0,0,1,340.36,685.58Zm-104.6-3.23a2.83,2.83,0,0,1-.41,0c-4.94-.8-9.93-1.7-14.84-2.66a2.5,2.5,0,0,1,1-4.91c4.86,1,9.79,1.84,14.68,2.63a2.5,2.5,0,0,1-.39,5Zm133.71-3.83a2.5,2.5,0,0,1-.88-4.84c2-.76,4-1.59,5.86-2.45q3.89-1.8,7.62-3.59a2.5,2.5,0,0,1,2.16,4.51c-2.51,1.2-5.07,2.4-7.68,3.62-1.95.91-4,1.78-6.2,2.59A2.48,2.48,0,0,1,369.47,678.52Zm-163.15-2a2.76,2.76,0,0,1-.57-.06c-5-1.16-9.9-2.41-14.64-3.7a2.5,2.5,0,1,1,1.32-4.82c4.68,1.27,9.54,2.5,14.46,3.65a2.5,2.5,0,0,1-.57,4.93Zm-28.93-7.95a2.58,2.58,0,0,1-.77-.12c-5-1.6-9.78-3.29-14.28-5a2.5,2.5,0,1,1,1.79-4.66c4.42,1.7,9.13,3.36,14,4.93a2.5,2.5,0,0,1-.76,4.88Zm219.23-2.81a2.5,2.5,0,0,1-1.12-4.74c4.38-2.19,8.73-4.42,13.31-6.81a2.5,2.5,0,0,1,2.31,4.43c-4.6,2.41-9,4.65-13.38,6.85A2.53,2.53,0,0,1,396.62,665.8Zm-247.19-8a2.43,2.43,0,0,1-1.07-.25c-2.28-1.08-4.48-2.19-6.54-3.3-2.35-1.26-4.67-2.64-6.89-4.1a2.5,2.5,0,0,1,2.76-4.18c2.09,1.38,4.28,2.69,6.49,3.88,2,1.06,4.12,2.14,6.33,3.19a2.5,2.5,0,0,1-1.08,4.76Zm273.78-5.81a2.5,2.5,0,0,1-1.19-4.7c4.58-2.47,9-4.86,13.15-7.17a2.5,2.5,0,1,1,2.41,4.39q-6.31,3.46-13.19,7.18A2.49,2.49,0,0,1,423.21,651.94ZM124.58,641.2a2.48,2.48,0,0,1-1.72-.69A90.63,90.63,0,0,1,112.63,629a2.5,2.5,0,1,1,4-3,85.79,85.79,0,0,0,9.67,10.87,2.51,2.51,0,0,1,.09,3.54A2.48,2.48,0,0,1,124.58,641.2Zm325-3.63a2.5,2.5,0,0,1-1.2-4.7c5.3-2.88,9.51-5.13,13.28-7.08a2.5,2.5,0,0,1,2.3,4.45c-3.74,1.93-7.93,4.16-13.19,7A2.46,2.46,0,0,1,449.53,637.57Zm26.68-13.66a2.5,2.5,0,0,1-1-4.77c5.05-2.32,9.65-4.21,14.06-5.78a2.5,2.5,0,1,1,1.68,4.71c-4.27,1.52-8.74,3.36-13.66,5.61A2.39,2.39,0,0,1,476.21,623.91Zm-369.58-6.56a2.5,2.5,0,0,1-2.21-1.34,105.52,105.52,0,0,1-6.14-14.07,2.5,2.5,0,0,1,4.72-1.67,100.76,100.76,0,0,0,5.84,13.41,2.5,2.5,0,0,1-1,3.38A2.63,2.63,0,0,1,106.63,617.35Zm397.83-3.25a2.5,2.5,0,0,1-.51-5,92.17,92.17,0,0,1,15.26-1.92,2.5,2.5,0,1,1,.2,5A87.49,87.49,0,0,0,505,614,2.31,2.31,0,0,1,504.46,614.1Zm37-.1a2.56,2.56,0,0,1-.47,0c-2.38-.46-4.76-.84-7.06-1.12a2.5,2.5,0,1,1,.61-5c2.41.29,4.9.69,7.39,1.16a2.5,2.5,0,0,1-.47,5ZM96.63,589.16a2.51,2.51,0,0,1-2.45-2A119.34,119.34,0,0,1,92.06,572a2.5,2.5,0,1,1,5-.37,115.2,115.2,0,0,0,2,14.53,2.5,2.5,0,0,1-1.94,3A2.21,2.21,0,0,1,96.63,589.16Zm-2.27-29.83h-.13a2.51,2.51,0,0,1-2.37-2.63,120.2,120.2,0,0,1,1.74-15.21,2.5,2.5,0,1,1,4.92.89A113.76,113.76,0,0,0,96.86,557,2.5,2.5,0,0,1,94.36,559.33Zm5.33-29.44a2.63,2.63,0,0,1-.77-.12,2.5,2.5,0,0,1-1.61-3.15,104.46,104.46,0,0,1,5.79-14.22,2.5,2.5,0,1,1,4.47,2.23,100,100,0,0,0-5.5,13.53A2.49,2.49,0,0,1,99.69,529.89Zm13.39-26.7a2.44,2.44,0,0,1-1.47-.48,2.5,2.5,0,0,1-.55-3.49,87.79,87.79,0,0,1,10.2-11.53,2.5,2.5,0,0,1,3.46,3.61,82.63,82.63,0,0,0-9.62,10.87A2.49,2.49,0,0,1,113.08,503.19Zm21.37-20.81a2.5,2.5,0,0,1-1.49-4.51c3.84-2.85,8.08-5.72,12.61-8.5a2.5,2.5,0,1,1,2.62,4.25c-4.41,2.71-8.52,5.49-12.25,8.26A2.43,2.43,0,0,1,134.45,482.38Zm25.47-15.81a2.5,2.5,0,0,1-1.17-4.71c4.27-2.25,8.83-4.51,13.56-6.72a2.51,2.51,0,0,1,2.12,4.54c-4.66,2.17-9.15,4.39-13.34,6.61A2.61,2.61,0,0,1,159.92,466.57Zm27.19-12.72a2.5,2.5,0,0,1-1-4.81c4.45-1.86,9.17-3.75,14-5.6a2.5,2.5,0,0,1,1.79,4.67c-4.81,1.84-9.48,3.7-13.87,5.54A2.41,2.41,0,0,1,187.11,453.85Zm28-10.75a2.5,2.5,0,0,1-.84-4.85c4.58-1.62,9.38-3.25,14.27-4.86a2.5,2.5,0,1,1,1.56,4.75c-4.86,1.6-9.62,3.22-14.16,4.82A2.45,2.45,0,0,1,215.16,443.1Zm28.52-9.39a2.5,2.5,0,0,1-.73-4.89c4.63-1.44,9.48-2.9,14.41-4.34a2.5,2.5,0,1,1,1.41,4.79c-4.91,1.44-9.74,2.9-14.35,4.32A2.34,2.34,0,0,1,243.68,433.71Zm28.83-8.47a2.5,2.5,0,0,1-.68-4.9c4.65-1.3,9.53-2.64,14.52-4a2.5,2.5,0,1,1,1.29,4.83c-5,1.33-9.83,2.67-14.46,4A2.57,2.57,0,0,1,272.51,425.24Zm29-7.8a2.5,2.5,0,0,1-.63-4.92q7.26-1.87,14.57-3.72a2.5,2.5,0,0,1,1.22,4.85q-7.29,1.83-14.53,3.71A2.32,2.32,0,0,1,301.52,417.44Zm29.16-7.36a2.5,2.5,0,0,1-.6-4.92q7.31-1.8,14.61-3.57a2.5,2.5,0,1,1,1.18,4.86q-7.29,1.77-14.59,3.56A2.46,2.46,0,0,1,330.68,410.08ZM359.85,403a2.5,2.5,0,0,1-.58-4.93l14.61-3.49a2.5,2.5,0,1,1,1.16,4.86L360.43,403A2.3,2.3,0,0,1,359.85,403Zm29.23-7a2.51,2.51,0,0,1-.58-4.94q7.37-1.74,14.6-3.49a2.5,2.5,0,1,1,1.17,4.87L389.66,396A3,3,0,0,1,389.08,396.06Zm29.21-7a2.5,2.5,0,0,1-.59-4.93q7.38-1.8,14.57-3.6a2.5,2.5,0,0,1,1.21,4.86q-7.2,1.78-14.6,3.59A2.46,2.46,0,0,1,418.29,389Zm29.15-7.29a2.5,2.5,0,0,1-.63-4.92c5.1-1.32,10-2.6,14.51-3.83a2.5,2.5,0,0,1,1.3,4.83c-4.55,1.23-9.44,2.52-14.56,3.84A2.7,2.7,0,0,1,447.44,381.75Zm29-7.85a2.5,2.5,0,0,1-.69-4.9c5.05-1.44,9.88-2.88,14.36-4.26a2.5,2.5,0,1,1,1.47,4.78c-4.51,1.39-9.37,2.83-14.46,4.29A2.65,2.65,0,0,1,476.45,373.9ZM505.16,365a2.5,2.5,0,0,1-.81-4.87c5-1.7,9.72-3.4,14-5.07a2.5,2.5,0,0,1,1.8,4.66c-4.38,1.7-9.17,3.43-14.23,5.14A2.29,2.29,0,0,1,505.16,365Zm28-10.93a2.5,2.5,0,0,1-1-4.77,133.38,133.38,0,0,0,13.06-6.83,2.5,2.5,0,0,1,2.58,4.28,139.85,139.85,0,0,1-13.54,7.09A2.46,2.46,0,0,1,533.14,354.09Zm25.5-15.67a2.5,2.5,0,0,1-1.56-4.45c3.79-3,7.57-6.28,11.22-9.67a2.5,2.5,0,1,1,3.4,3.67c-3.74,3.47-7.62,6.8-11.5,9.91A2.49,2.49,0,0,1,558.64,338.42Zm22-20.36a2.5,2.5,0,0,1-1.82-4.21c3.36-3.58,6.66-7.33,9.8-11.15a2.5,2.5,0,1,1,3.86,3.18c-3.21,3.9-6.58,7.74-10,11.39A2.46,2.46,0,0,1,580.65,318.06Zm19-23.17a2.5,2.5,0,0,1-2-4c2.88-4,5.64-8.17,8.21-12.34a2.5,2.5,0,1,1,4.25,2.63c-2.62,4.26-5.45,8.51-8.4,12.62A2.5,2.5,0,0,1,599.69,294.89Zm15.71-25.53a2.49,2.49,0,0,1-2.21-3.65c2.31-4.44,4.43-8.95,6.32-13.39a2.5,2.5,0,0,1,4.6,2c-1.93,4.57-4.12,9.19-6.49,13.75A2.49,2.49,0,0,1,615.4,269.36Zm11.65-27.61a2.58,2.58,0,0,1-.77-.12,2.51,2.51,0,0,1-1.61-3.15,142.73,142.73,0,0,0,3.8-14.24,2.5,2.5,0,1,1,4.89,1A146.57,146.57,0,0,1,629.43,240,2.51,2.51,0,0,1,627.05,241.75Zm6.08-29.32h-.22a2.5,2.5,0,0,1-2.28-2.7c.24-2.86.36-5.71.36-8.48,0-2.06-.06-4.12-.2-6.13a2.5,2.5,0,0,1,5-.33c.14,2.11.21,4.29.21,6.46,0,2.91-.12,5.9-.38,8.9A2.5,2.5,0,0,1,633.13,212.43ZM631,182.65a2.49,2.49,0,0,1-2.42-1.88,68.76,68.76,0,0,0-5-13.56A2.5,2.5,0,0,1,628,165a73,73,0,0,1,5.35,14.55,2.5,2.5,0,0,1-1.8,3A2.25,2.25,0,0,1,631,182.65ZM617.7,156a2.47,2.47,0,0,1-1.93-.92,64.17,64.17,0,0,0-10.36-10,2.5,2.5,0,0,1,3.05-4,68,68,0,0,1,11.17,10.78A2.5,2.5,0,0,1,617.7,156Zm-23.49-18.28a2.47,2.47,0,0,1-1.11-.26,97.39,97.39,0,0,0-13.55-5.44,2.5,2.5,0,1,1,1.52-4.76A101.66,101.66,0,0,1,595.33,133a2.5,2.5,0,0,1-1.12,4.74ZM436.79,130c-1.89,0-3.81,0-5.71-.11a2.49,2.49,0,0,1-2.4-2.59,2.51,2.51,0,0,1,2.59-2.41,138.6,138.6,0,0,0,14.73-.2,2.5,2.5,0,0,1,.33,5C443.2,129.84,440,130,436.79,130Zm-20.55-1.4-.33,0c-4.88-.65-9.92-1.53-15-2.62A2.5,2.5,0,1,1,402,121c4.92,1.06,9.82,1.92,14.57,2.55a2.5,2.5,0,0,1-.33,5Zm149.55-.09a2,2,0,0,1-.49-.05c-4.59-.9-9.51-1.65-14.62-2.21a2.5,2.5,0,1,1,.55-5c5.25.58,10.31,1.34,15,2.28a2.5,2.5,0,0,1-.48,5Zm-104.68-.09a2.5,2.5,0,0,1-.22-5l.83-.07c4.58-.41,9.31-.83,14.13-1.23a2.5,2.5,0,0,1,.42,5c-4.82.4-9.53.82-14.11,1.23l-.82.07Zm29.9-2.43a2.5,2.5,0,0,1-.16-5c5.38-.36,10.3-.63,15-.82a2.5,2.5,0,0,1,.2,5c-4.71.18-9.58.45-14.92.81Zm45-.87h-.12c-4.29-.19-8.85-.29-13.55-.29H521a2.5,2.5,0,0,1,0-5h1.35c4.77,0,9.41.1,13.78.3a2.5,2.5,0,0,1-.11,5Zm-149.07-2.8a2.47,2.47,0,0,1-.7-.1c-4.68-1.36-9.53-2.93-14.41-4.66a2.5,2.5,0,1,1,1.67-4.71c4.79,1.7,9.55,3.24,14.14,4.57a2.5,2.5,0,0,1-.7,4.9Zm-28.28-10a2.44,2.44,0,0,1-.95-.19c-4.47-1.83-9.13-3.86-13.85-6a2.5,2.5,0,0,1,2.08-4.55c4.67,2.14,9.26,4.14,13.67,6a2.5,2.5,0,0,1-1,4.81Zm-27.3-12.45a2.61,2.61,0,0,1-1.11-.26c-4.22-2.1-8.61-4.34-13.41-6.86a2.5,2.5,0,1,1,2.32-4.43c4.77,2.5,9.12,4.73,13.31,6.81a2.5,2.5,0,0,1-1.11,4.74Zm-26.6-13.9a2.53,2.53,0,0,1-1.19-.3l-5.24-2.84-8-4.3a2.5,2.5,0,1,1,2.37-4.4q3.87,2.07,8,4.31l5.24,2.83a2.5,2.5,0,0,1-1.19,4.7ZM179.5,80a2.5,2.5,0,0,1-1.65-4.38,76.56,76.56,0,0,1,13-8.62,2.5,2.5,0,0,1,2.39,4.4,72.38,72.38,0,0,0-12,8A2.53,2.53,0,0,1,179.5,80Zm98.74-8.16a2.48,2.48,0,0,1-1.12-.26c-1.26-.64-2.5-1.25-3.7-1.83a100.33,100.33,0,0,0-9.75-4.08A2.5,2.5,0,0,1,265.35,61a103.28,103.28,0,0,1,10.23,4.29q1.86.89,3.78,1.86a2.5,2.5,0,0,1-1.12,4.73ZM205.7,65.61a2.5,2.5,0,0,1-.83-4.86,93.92,93.92,0,0,1,14.9-3.89,2.5,2.5,0,0,1,.85,4.93,88.31,88.31,0,0,0-14.09,3.68A2.45,2.45,0,0,1,205.7,65.61ZM250,61.94a2.25,2.25,0,0,1-.44,0,84.35,84.35,0,0,0-14.49-1.33,2.5,2.5,0,0,1,0-5h0A88.39,88.39,0,0,1,250.49,57a2.5,2.5,0,0,1-.45,5Z" transform="translate(0)"/></g><path class="cls-2" d="M192,572.5c0,39.83-33,72.13-72.87,72.13C81.29,644.63,47,612.33,47,572.5s34.29-72.13,72.13-72.13C159,500.37,192,532.67,192,572.5Z" transform="translate(0)"/><path class="cls-2" d="M696,146.12c0,42-34.86,76.1-76.88,76.1-39.93,0-76.1-34.07-76.1-76.1S579.19,70,619.12,70C661.14,70,696,104.1,696,146.12Z" transform="translate(0)"/><g class="cls-3"><circle class="cls-2" cx="107.5" cy="113.5" r="93.5"/><g id="Page-1"><g id="Shape"><path class="cls-5" d="M99.51,121.49c-8.88-8.88-10.89-17.76-11.34-21.31a3.18,3.18,0,0,1,.92-2.67l7.18-7.19a3.21,3.21,0,0,0,.46-4L85.28,68.59a3.19,3.19,0,0,0-4.15-1.17L62.76,76.07A3.19,3.19,0,0,0,61,79.25c1,9.15,4.95,31.62,27,53.71s44.56,26.08,53.71,27a3.19,3.19,0,0,0,3.19-1.76l8.65-18.37a3.2,3.2,0,0,0-1.16-4.15l-17.77-11.44a3.21,3.21,0,0,0-4,.45l-7.18,7.19a3.19,3.19,0,0,1-2.67.91c-3.56-.45-12.44-2.46-21.32-11.34Z" transform="translate(0)"/></g><path class="cls-5" d="M134.77,116.71a3.21,3.21,0,0,1-3.21-3.21A24.08,24.08,0,0,0,107.5,89.44a3.21,3.21,0,1,1,0-6.42A30.52,30.52,0,0,1,138,113.5,3.21,3.21,0,0,1,134.77,116.71Z" transform="translate(0)"/><path class="cls-5" d="M150.81,116.71a3.21,3.21,0,0,1-3.2-3.21A40.15,40.15,0,0,0,107.5,73.4a3.21,3.21,0,1,1,0-6.42A46.57,46.57,0,0,1,154,113.5a3.21,3.21,0,0,1-3.21,3.21Z" transform="translate(0)"/></g></g><g class="cls-3"><path class="cls-2" d="M707,146.12c0,48.07-39.87,87-87.94,87-45.66,0-87-39-87-87s41.38-87,87-87C667.13,59.08,707,98.05,707,146.12Z" transform="translate(0)"/><path class="cls-5" d="M619.26,144.6A17.38,17.38,0,1,0,607,139.51,16.82,16.82,0,0,0,619.26,144.6Z" transform="translate(0)"/><path class="cls-5" d="M649.67,165.33a43.61,43.61,0,0,0-.59-4.56,35.85,35.85,0,0,0-1.12-4.59,22.66,22.66,0,0,0-1.88-4.27,16.26,16.26,0,0,0-2.84-3.7,12.54,12.54,0,0,0-4.09-2.57,14.2,14.2,0,0,0-5.21-.94,5.25,5.25,0,0,0-2.82,1.2l-2.94,1.89a16.63,16.63,0,0,1-3.81,1.68,14.82,14.82,0,0,1-9.31,0,16.63,16.63,0,0,1-3.81-1.68l-2.94-1.89a5.28,5.28,0,0,0-2.83-1.2,14.24,14.24,0,0,0-5.21.94,12.49,12.49,0,0,0-4.08,2.57,16,16,0,0,0-2.84,3.7,23.16,23.16,0,0,0-1.89,4.28,37.44,37.44,0,0,0-1.12,4.58,43.45,43.45,0,0,0-.58,4.56c-.1,1.38-.15,2.81-.15,4.26a12,12,0,0,0,3.56,9.07,12.86,12.86,0,0,0,9.17,3.34h34.75a12.86,12.86,0,0,0,9.17-3.34,12,12,0,0,0,3.55-9.07C649.81,168.14,649.76,166.7,649.67,165.33Z" transform="translate(0)"/><path class="cls-5" d="M576.63,144.6a17.38,17.38,0,1,0-12.29-5.09A16.82,16.82,0,0,0,576.63,144.6Z" transform="translate(0)"/><path class="cls-6" d="M607,165.33a43.61,43.61,0,0,0-.59-4.56,35.85,35.85,0,0,0-1.12-4.59,22.66,22.66,0,0,0-1.88-4.27,16.26,16.26,0,0,0-2.84-3.7,12.54,12.54,0,0,0-4.09-2.57,14.2,14.2,0,0,0-5.21-.94,5.25,5.25,0,0,0-2.82,1.2l-2.94,1.89a16.63,16.63,0,0,1-3.81,1.68,14.82,14.82,0,0,1-9.31,0,16.43,16.43,0,0,1-3.81-1.68c-1.09-.7-2.09-1.33-2.94-1.89a5.28,5.28,0,0,0-2.83-1.2,14.24,14.24,0,0,0-5.21.94,12.49,12.49,0,0,0-4.08,2.57,16,16,0,0,0-2.84,3.7,23.16,23.16,0,0,0-1.89,4.28,37.44,37.44,0,0,0-1.12,4.58,43.45,43.45,0,0,0-.58,4.56c-.1,1.38-.15,2.81-.15,4.26a12,12,0,0,0,3.56,9.07,12.85,12.85,0,0,0,9.17,3.34h34.75a12.82,12.82,0,0,0,9.16-3.34,12,12,0,0,0,3.56-9.07C607.18,168.14,607.13,166.7,607,165.33Z" transform="translate(0)"/><path class="cls-5" d="M661.89,144.6a17.38,17.38,0,1,0-12.29-5.09A16.82,16.82,0,0,0,661.89,144.6Z" transform="translate(0)"/><path class="cls-6" d="M692.3,165.33a43.61,43.61,0,0,0-.59-4.56,35.85,35.85,0,0,0-1.12-4.59,22.66,22.66,0,0,0-1.88-4.27,16.26,16.26,0,0,0-2.84-3.7,12.44,12.44,0,0,0-4.09-2.57,14.2,14.2,0,0,0-5.21-.94,5.25,5.25,0,0,0-2.82,1.2l-2.94,1.89a16.63,16.63,0,0,1-3.81,1.68,14.82,14.82,0,0,1-9.31,0,16.63,16.63,0,0,1-3.81-1.68l-2.94-1.89a5.28,5.28,0,0,0-2.83-1.2,14.24,14.24,0,0,0-5.21.94,12.49,12.49,0,0,0-4.08,2.57,16,16,0,0,0-2.84,3.7,22.46,22.46,0,0,0-1.88,4.28,35.67,35.67,0,0,0-1.13,4.58,43.45,43.45,0,0,0-.58,4.56c-.1,1.38-.14,2.81-.14,4.26a12,12,0,0,0,3.55,9.07A12.86,12.86,0,0,0,645,182h34.75a12.86,12.86,0,0,0,9.17-3.34,12,12,0,0,0,3.55-9.07C692.44,168.14,692.4,166.7,692.3,165.33Z" transform="translate(0)"/></g><g class="cls-3"><circle class="cls-2" cx="618.5" cy="623.5" r="103.5"/><path class="cls-5" d="M596.92,567.19H560.05v36.87h36.87Zm-7.38,29.5H567.42V574.57h22.12Z" transform="translate(0)"/><rect class="cls-5" x="574.79" y="581.94" width="7.37" height="7.37"/><path class="cls-5" d="M641.16,567.19v36.87H678V567.19Zm29.49,29.5H648.53V574.57h22.12Z" transform="translate(0)"/><rect class="cls-5" x="655.9" y="581.94" width="7.37" height="7.37"/><path class="cls-5" d="M560.05,685.17h36.87V648.3H560.05Zm7.37-29.49h22.12V677.8H567.42Z" transform="translate(0)"/><rect class="cls-5" x="574.79" y="663.05" width="7.37" height="7.37"/><rect class="cls-5" x="619.04" y="567.19" width="14.75" height="7.37"/><polygon class="cls-5" points="619.04 596.69 626.41 596.69 626.41 589.31 633.78 589.31 633.78 581.94 611.66 581.94 611.66 574.57 604.29 574.57 604.29 581.94 604.29 585.63 604.29 589.31 619.04 589.31 619.04 596.69"/><rect class="cls-5" x="604.29" y="596.69" width="7.37" height="7.37"/><polygon class="cls-5" points="633.78 604.06 626.41 604.06 626.41 611.43 604.29 611.43 604.29 618.81 633.78 618.81 633.78 604.06"/><polygon class="cls-5" points="567.42 633.55 574.79 633.55 574.79 626.18 567.42 626.18 567.42 611.43 560.05 611.43 560.05 640.93 567.42 640.93 567.42 633.55"/><rect class="cls-5" x="574.79" y="611.43" width="7.37" height="7.37"/><polygon class="cls-5" points="604.29 640.93 619.04 640.93 619.04 633.55 611.66 633.55 611.66 626.18 596.91 626.18 596.91 611.43 589.54 611.43 589.54 626.18 582.17 626.18 582.17 640.93 589.54 640.93 589.54 633.55 593.23 633.55 596.91 633.55 604.29 633.55 604.29 640.93"/><rect class="cls-5" x="626.41" y="626.18" width="7.37" height="14.75"/><polygon class="cls-5" points="626.41 648.3 604.29 648.3 604.29 655.68 619.04 655.68 619.04 677.8 604.29 677.8 604.29 685.17 626.41 685.17 626.41 677.8 641.16 677.8 641.16 670.42 626.41 670.42 626.41 648.3"/><rect class="cls-5" x="604.29" y="663.05" width="7.37" height="7.37"/><rect class="cls-5" x="633.78" y="648.3" width="7.37" height="14.75"/><polygon class="cls-5" points="670.65 663.05 648.53 663.05 648.53 685.17 655.9 685.17 655.9 670.42 670.65 670.42 670.65 663.05"/><rect class="cls-5" x="663.28" y="677.8" width="14.75" height="7.37"/><rect class="cls-5" x="670.65" y="648.3" width="7.37" height="7.37"/><polygon class="cls-5" points="648.53 655.68 655.9 655.68 655.9 633.55 641.16 633.55 641.16 640.93 648.53 640.93 648.53 655.68"/><polygon class="cls-5" points="663.28 618.81 655.9 618.81 655.9 611.43 648.53 611.43 648.53 618.81 641.16 618.81 641.16 626.18 670.65 626.18 670.65 618.81 678.03 618.81 678.03 611.43 663.28 611.43 663.28 618.81"/><rect class="cls-5" x="663.28" y="633.56" width="14.75" height="7.37"/></g><g class="cls-3"><circle class="cls-2" cx="119.5" cy="572.5" r="100.5"/><path class="cls-5" d="M100.41,572.5a4,4,0,0,0-4,4,4.25,4.25,0,0,0,4.2,4.39h23.82l3-16.8h-8.2c-1.69,5.77-10.23,8.4-16.49,8.4Z" transform="translate(0)"/><path class="cls-5" d="M113.2,604a6.32,6.32,0,0,1-6.31,6.31h-2.1a2.1,2.1,0,1,0,0,4.2h13.69l5.19-29.41H100.59a8.43,8.43,0,0,1-8.4-8.44,8.24,8.24,0,0,1,2.41-6,8.15,8.15,0,0,1,5.8-2.4h2.29c4.18,0,9.88-1.48,11.88-4.2H83.79v33.61h23.1A6.31,6.31,0,0,1,113.2,604Z" transform="translate(0)"/><path class="cls-5" d="M141.81,553.55a22.81,22.81,0,0,1-8-1.71l-9.64,54.66Z" transform="translate(0)"/><path class="cls-5" d="M142.61,549.39a18.91,18.91,0,1,0-18.91-18.91A18.93,18.93,0,0,0,142.61,549.39Zm7.24-6.52L148,539.11c3.64-1.82,4.7-4.06,5.17-6.87l4.15.69a12.6,12.6,0,0,1-7.44,9.94Zm-7.24-27.09A15,15,0,0,1,157.29,528l-4.15.7A10.7,10.7,0,0,0,142.61,520Z" transform="translate(0)"/><path class="cls-5" d="M73.28,608.21a10.4,10.4,0,0,1,6.3,2.16V555.69a10.5,10.5,0,0,0-21,0v57a14.66,14.66,0,0,1,10.5-4.44ZM67,597.71h-4.2v-4.2H67Zm0-8.4h-4.2V553.59H67Z" transform="translate(0)"/><path class="cls-5" d="M142.72,564.1l-5.61,16.8h9.71a8.41,8.41,0,0,1,0,16.81h-6.3a2.1,2.1,0,1,0,0,4.2h39.91V564.1Z" transform="translate(0)"/><path class="cls-5" d="M136.31,618.72H124.49l-1,3c-.5,1-1.59,3.18-3.41,3.18a2.73,2.73,0,0,1-.77-.12c-2.42-.78-1.88-4.3-1.88-4.34l.32-1.76H104.79a6.31,6.31,0,0,1,0-12.61h2.1a2.1,2.1,0,1,0,0-4.2H83.79v16.81a10.52,10.52,0,0,1-10.51,10.5H67V612.63a10.5,10.5,0,0,0,2.1,20.79H153a16.83,16.83,0,0,0-16.66-14.7Z" transform="translate(0)"/><path class="cls-5" d="M134.21,599.81a6.31,6.31,0,0,1,6.3-6.3h6.3a4.2,4.2,0,0,0,0-8.4H135.71l-9.81,29.41h10.41a21,21,0,0,1,20.9,18.9h23.21V606.11H140.51A6.3,6.3,0,0,1,134.21,599.81Z" transform="translate(0)"/><path class="cls-5" d="M71.18,612.42V625h2.1a6.3,6.3,0,0,0,0-12.6Z" transform="translate(0)"/></g><polygon class="cls-7" points="523.88 466.26 205.94 281.49 381 189.62 698.95 374.38 523.88 466.26"/><g class="cls-8"><g class="cls-9"><g class="cls-8"><path class="cls-10" d="M506,494.18,188.07,309.42a6.86,6.86,0,0,1-2.51-2.65L503.49,491.53a6.88,6.88,0,0,0,2.52,2.65Z" transform="translate(0)"/></g></g></g><polygon class="cls-4" points="350.99 588.78 33.05 404.02 33.01 390.54 350.95 575.29 350.99 588.78"/><polygon class="cls-7" points="350.95 575.29 33.01 390.54 205.94 281.49 523.88 466.26 350.95 575.29"/><path class="cls-4" d="M523.88,466.26,699,374.38l0,13.49L546.43,466.75c-3.89,11.42-11.73,16.28-21.14,21.7s-17.84,10-21.8,3.08L351,588.78l0-13.49Z" transform="translate(0)"/><path class="cls-11" d="M523.41,481.87c9.41-5.43,17.26-10.29,21.14-21.7l-.16-4.68-20.51,10.77L501,480.68l.61,4.28C505.58,491.84,514,487.32,523.41,481.87Z" transform="translate(0)"/><polygon class="cls-12" points="544.3 456.15 501.56 480.97 197.65 305.51 240.37 280.68 544.3 456.15"/><g class="cls-8"><polygon class="cls-5" points="517.24 414.64 222.88 243.58 386.3 169.37 680.67 340.44 517.24 414.64"/><polygon class="cls-13" points="517.38 463.39 223.02 292.32 222.88 243.58 517.24 414.64 517.38 463.39"/><polygon class="cls-14" points="517.24 414.64 680.67 340.44 685.76 375.49 517.38 463.39 517.24 414.64"/></g><g class="cls-8"><polygon class="cls-15" points="348.46 570.11 54.1 399.06 58.99 358.26 353.35 529.32 348.46 570.11"/><polygon class="cls-5" points="353.35 529.32 58.99 358.26 222.27 243.84 516.63 414.91 353.35 529.32"/><polygon class="cls-14" points="516.63 414.91 516.76 463.64 348.46 570.11 353.35 529.32 516.63 414.91"/></g><g class="cls-8"><polygon class="cls-16" points="516.96 416.31 222.96 245.45 222.69 244.07 516.69 414.93 516.96 416.31"/><path class="cls-5" d="M633.25,337.06c1.85-1,3.69-1.94,5.46-2.82l3-1.47c1.57-.76,3.12-1.51,4.62-2.19l2.93-1.33c1.42-.63,2.82-1.24,4.17-1.81.95-.39,1.88-.79,2.79-1.15s2.09-.84,3.1-1.23l2.69-1,2.85-1c.83-.3,1.66-.58,2.44-.84l2.57-.84,2.2-.67,2.26-.65,2-.57,1.44-.37c.7-.17,1.36-.33,2-.47l1.24-.29,1.85-.38c.3-.06.62-.13.89-.17,1.61-.3,2.92-.49,4-.62l.27,0,.68-.07c1.19-.12,1.88-.15,1.92-.15L396.66,146a39.52,39.52,0,0,0-5,.56l-1.81.31-.94.18-1.84.38-1.2.28c-.67.14-1.34.31-2.05.48l-1.41.36c-.3.09-.57.14-.88.23l-1.19.35c-.73.19-1.48.41-2.26.65l-2.23.68-2.51.82c-.82.26-1.65.56-2.51.86l-2.77,1-2.78,1.05-3,1.19-1.41.56c-.47.19-1,.44-1.5.64-1.32.56-2.68,1.15-4.07,1.77-1,.44-2,.88-3,1.35-1.48.68-3,1.41-4.57,2.16-1,.5-2,1-3.08,1.51-1.74.87-3.55,1.81-5.39,2.77-.94.5-1.85,1-2.82,1.48-2.84,1.52-5.75,3.15-8.78,4.9q-8.67,5-18.4,11.32c-61.2,39.93-86.36,60-86.61,60.2l294,170.86c.25-.19,25.42-20.26,86.6-60.2,6.49-4.23,12.62-8,18.41-11.33,3-1.76,5.95-3.37,8.79-4.9C631.43,338,632.32,337.54,633.25,337.06Z" transform="translate(0)"/><path class="cls-14" d="M621.7,343.4c45.09-26,68.69-26.5,69-26.52l-.6,1.74c-.26,0-23.6.5-68.32,26.32-5.78,3.33-11.89,7.08-18.37,11.3-61.07,39.84-86.16,59.87-86.41,60.07l-.27-1.38c.25-.19,25.42-20.26,86.6-60.2C609.78,350.5,615.91,346.74,621.7,343.4Z" transform="translate(0)"/></g><g class="cls-8"><polygon class="cls-17" points="517.38 415.19 223.91 244.63 223.39 243.51 516.86 414.08 517.38 415.19"/><path class="cls-5" d="M617.84,341.88l4-2.12c.71-.36,1.4-.73,2.1-1.08l3.78-1.94,1.84-.92c1.63-.82,3.22-1.61,4.79-2.37l.47-.23q2.55-1.25,5-2.38l1.49-.69c1.12-.52,2.23-1,3.31-1.52l1.59-.72,3-1.33c.49-.2,1-.42,1.45-.63,1.17-.5,2.3-1,3.42-1.44l.7-.31c1.23-.49,2.4-1,3.54-1.43l.18-.07,3.15-1.22.89-.33,2.26-.84,1-.35,2-.69,1-.35,1.69-.57,1.06-.34c.5-.16,1-.32,1.48-.46s.67-.22,1-.32l1.37-.41c.3-.1.61-.18.92-.27l1.23-.35.77-.2c1.75-.47,3.3-.84,4.64-1.13l.37-.08c1.33-.28,2.46-.49,3.41-.63l.32-.05.79-.11.27,0c.63-.08,1.13-.13,1.53-.16h.13l.38,0h.49L397.17,143.22h-.47c-.33,0-.88.06-1.62.14l-.41,0-.39.06-.71.09-.17,0-.13,0-1.47.25-.12,0c-.53.1-1.12.21-1.74.35l-.56.11-1.86.43-.29.06c-.73.19-1.52.38-2.33.61l-.37.09-.59.16-1,.28c-.39.11-.77.21-1.17.34s-.73.22-1.12.34-.8.23-1.21.37l-1.29.4-1.22.4-1.52.51-1.18.41-1.78.63c-.39.13-.76.27-1.14.41-.69.24-1.4.51-2.12.78l-1,.38L365.37,152l-.5.21c-1.15.45-2.33.92-3.53,1.42l-.09,0-.55.23-3.52,1.49-1.34.58-3.15,1.4-1.46.65c-1.18.53-2.38,1.09-3.6,1.65l-1.17.55c-3.31,1.55-6.8,3.24-10.5,5.08-.44.24-.91.47-1.37.7l-4.26,2.18-1.77.92c-1.45.75-2.94,1.54-4.44,2.34l-1.62.86c-2.06,1.1-4.16,2.23-6.31,3.42q-4.33,2.38-8.47,4.78c-3.17,1.83-6.24,3.66-9.24,5.48l-3,1.84c-2,1.21-3.91,2.42-5.8,3.62l-3.25,2.1c-1.72,1.12-3.41,2.22-5.06,3.33-1.05.7-2.09,1.39-3.11,2.09-1.64,1.11-3.22,2.21-4.79,3.3-.92.64-1.85,1.28-2.74,1.92-1.73,1.22-3.4,2.42-5,3.62-.64.47-1.31.94-1.94,1.41q-3.32,2.44-6.38,4.79c-.52.39-1,.77-1.5,1.16-1.5,1.16-3,2.32-4.4,3.44-.71.56-1.37,1.1-2.05,1.65-1.15.93-2.28,1.83-3.34,2.71-.67.56-1.32,1.08-1.95,1.62l-2.92,2.45-1.72,1.48c-.94.8-1.82,1.56-2.67,2.32l-1.37,1.2c-1,.89-1.93,1.73-2.81,2.54l-.63.56c-1.05,1-2,1.84-2.86,2.66l-.87.83L226.92,240l-.89.87c-.15.15-.36.34-.5.49s-.3.29-.44.44l-.35.34-.88.89-.26.27a1.82,1.82,0,0,1-.21.21L516.86,414.08c0-.05.53-.56,1.46-1.5l0,0,1.45-1.45.42-.38c.59-.57,1.28-1.24,2-1.94l.33-.31c1.75-1.66,3.91-3.65,6.45-5.91.36-.31.75-.67,1.14-1,.91-.83,1.88-1.67,2.9-2.56l1.57-1.31c1-.84,2-1.71,3.07-2.6l1.83-1.51c1.1-.93,2.29-1.88,3.48-2.84.64-.5,1.27-1,1.93-1.54,1.46-1.16,3-2.35,4.54-3.56l1.39-1.07q3.06-2.34,6.38-4.8l1.93-1.4c1.64-1.19,3.3-2.4,5-3.62.89-.64,1.83-1.28,2.75-1.93q2.34-1.63,4.78-3.29c1-.7,2.06-1.4,3.11-2.1q2.48-1.65,5.06-3.32l3.25-2.11,5.79-3.62c1-.6,2-1.22,3-1.83q4.49-2.74,9.23-5.48c2.76-1.59,5.58-3.19,8.47-4.77,2.12-1.18,4.19-2.29,6.22-3.39Z" transform="translate(0)"/><path class="cls-14" d="M601.19,351.08c2.76-1.59,5.58-3.19,8.47-4.77,59.77-32.9,80.78-32.55,81-32.55l-.62,1.73c-.19,0-21-.32-80.37,32.38q-4.41,2.43-8.62,4.86c-53.95,31.15-83.32,62.15-83.65,62.46l-.51-1.11C517.16,413.76,546.83,382.47,601.19,351.08Z" transform="translate(0)"/></g><polygon class="cls-17" points="343.91 517.81 50.46 347.27 49.88 346.23 343.32 516.75 343.91 517.81"/><path class="cls-5" d="M442.55,447.86c3.09-1.52,6.11-3,9-4.41l.68-.33,7.9-3.83c.57-.25,1.15-.54,1.72-.8,2.64-1.28,5.21-2.5,7.66-3.65l.76-.36c2.27-1.07,4.44-2.08,6.54-3,.39-.2.8-.38,1.19-.57,2.22-1,4.35-2,6.38-2.91l.76-.34,5.26-2.36.81-.38,5-2.22.78-.33,4-1.73c.17-.07.36-.16.53-.22,1.33-.57,2.57-1.1,3.71-1.57l.79-.34,2.49-1,.75-.31,2.36-.95.78-.3,1.27-.51.61-.23,1.24-.48.41-.15.51-.19a1.19,1.19,0,0,1,.22-.08l.23-.08L223.48,243.63l-.31.12h0l-.9.34h0l-1.45.56-.26.1-1.9.74-.18.08-2.77,1.11,0,0-1.88.77-1.49.62-.16.07c-1.24.51-2.58,1.08-4,1.7l-.27.12-4.29,1.85-.61.27c-1.61.7-3.31,1.45-5.12,2.26l-.75.33q-2.5,1.11-5.27,2.37l-.81.37-6.33,2.89-1.26.59c-2.07,1-4.23,2-6.48,3-.27.12-.51.24-.78.35l-7.64,3.64-1.77.84c-2.58,1.25-5.24,2.52-8,3.88l-.48.23-9.08,4.46-2.17,1.07c-3.2,1.58-6.48,3.22-9.9,4.94-6.49,3.25-12.61,6.57-18.39,9.91-2.52,1.45-5,2.92-7.36,4.38l-2,1.23q-2.73,1.71-5.36,3.39l-1.64,1.06c-2.19,1.43-4.31,2.84-6.36,4.25l-1.24.86c-1.67,1.15-3.28,2.28-4.85,3.42l-1.68,1.2c-1.61,1.18-3.19,2.34-4.7,3.48l-.79.59c-1.75,1.32-3.41,2.61-5,3.88l-1.3,1.05q-1.8,1.44-3.48,2.82l-1.23,1c-1.41,1.16-2.76,2.31-4,3.41l-.5.44c-1.11.95-2.16,1.88-3.16,2.78l-1.07,1-2.42,2.22-.72.67c-.94.88-1.81,1.7-2.61,2.48-.25.25-.47.45-.7.69l-1,.95-.44.44c-.51.5-.95.95-1.38,1.39-.29.28-.57.57-.82.83s-.68.7-1,1l-.59.61-.64.69-.31.34c-.22.24-.34.38-.35.4L343.32,516.75l.8-.88.48-.51c.19-.21.46-.48.71-.74l.82-.88,1-1c.35-.38.72-.74,1.11-1.14l1.89-1.86c.08-.07.15-.15.23-.23l2.86-2.71.31-.3c.9-.83,1.87-1.72,2.88-2.62.25-.24.51-.47.77-.7,1.15-1,2.35-2.09,3.63-3.2a.46.46,0,0,1,.1-.07c1.31-1.15,2.72-2.33,4.19-3.55l1-.84c1.21-1,2.45-2,3.74-3,.39-.31.75-.61,1.14-.9,1.63-1.3,3.32-2.62,5.09-4l.66-.51c1.55-1.16,3.17-2.36,4.82-3.56.54-.4,1.1-.78,1.65-1.18q2.37-1.71,4.89-3.46c.41-.26.79-.55,1.2-.82,2.06-1.41,4.2-2.83,6.38-4.27l1.63-1q2.61-1.69,5.36-3.39l2-1.26c2.4-1.45,4.82-2.91,7.35-4.37,5.77-3.33,11.9-6.65,18.38-9.9,3.42-1.73,6.68-3.34,9.87-4.93Z" transform="translate(0)"/><path class="cls-14" d="M412.05,463.8c5.77-3.33,11.9-6.65,18.38-9.9,61.13-30.7,86.26-39.65,86.49-39.73l-.26,1.65c-.24.09-25.29,9-86.3,39.67-6.47,3.25-12.59,6.57-18.35,9.9-45.13,26.05-68.41,52.78-68.1,52.42l-.59-1.06C343.58,516.46,367,489.79,412.05,463.8Z" transform="translate(0)"/><g class="cls-8"><polygon class="cls-17" points="344.2 514.38 50.76 343.85 50.1 342.87 343.54 513.4 344.2 514.38"/><path class="cls-5" d="M443.75,441.42c2.82-1.52,5.57-3,8.23-4.35l.73-.37c2.48-1.27,4.88-2.46,7.24-3.6l1.6-.77c2.46-1.17,4.86-2.31,7.16-3.33l1-.47c2.06-.92,4.05-1.79,6-2.59l1.28-.55c2.07-.87,4.06-1.66,6-2.41.37-.16.74-.29,1.11-.43,1.93-.76,3.81-1.46,5.59-2.08a.92.92,0,0,1,.23-.09c1.75-.63,3.41-1.19,5-1.71.26-.09.54-.18.79-.28,1.55-.49,3-1,4.41-1.37.26-.09.51-.15.77-.23,1.38-.41,2.68-.78,3.89-1.11.66-.18,1.23-.31,1.85-.47l1.95-.49.59-.14c1.51-.35,2.78-.62,3.87-.84l1.07-.2c.25-.06.41-.08.63-.12l1.15-.19.55-.07c.52-.08.87-.11.91-.11L223.88,242.51l-1.21.15-.23,0h0c-.43.07-1,.16-1.62.28l-.15,0c-1.4.26-3.27.64-5.58,1.2-.33.07-.74.18-1.09.27-.86.22-1.72.42-2.69.69l-.07,0c-1.18.32-2.46.68-3.79,1.08l-.79.23c-1.39.42-2.85.88-4.39,1.38l-.81.27c-1.58.52-3.22,1.08-5,1.71l-.25.08c-1.77.63-3.65,1.34-5.57,2.09l-1.13.42c-1.65.65-3.36,1.33-5.12,2.06l-.85.36-1.3.55q-2.88,1.21-5.94,2.58l-1.06.48c-2.31,1-4.71,2.15-7.17,3.34-.52.24-1,.5-1.56.76-2.39,1.14-4.81,2.35-7.33,3.64l-.64.32c-2.67,1.37-5.44,2.84-8.27,4.37-.63.35-1.26.7-1.9,1-2.9,1.59-5.85,3.23-8.9,5-2.76,1.59-5.59,3.27-8.47,5-2.48,1.5-4.86,3-7.21,4.42L122,287.5c-2.19,1.35-4.33,2.7-6.39,4l-.36.24c-2.15,1.38-4.22,2.73-6.24,4.07L107.3,297q-2.68,1.79-5.24,3.52l-.64.44c-1.85,1.26-3.62,2.49-5.36,3.71l-1.52,1.07c-1.48,1-2.92,2.08-4.3,3.08l-.78.56c-1.57,1.14-3.07,2.25-4.53,3.33l-1.35,1q-1.81,1.37-3.51,2.67l-.79.6c-1.31,1-2.56,2-3.77,3l-1.16.93c-1,.78-1.93,1.54-2.83,2.29l-.74.59c-1.07.89-2.08,1.73-3.07,2.57-.33.27-.64.53-.94.8-.78.65-1.52,1.28-2.23,1.9l-.67.59-2.4,2.11-.78.71L59,333.9l-.57.54c-.64.6-1.24,1.15-1.8,1.69l-.57.55-1.18,1.15c-.1.11-.22.21-.31.3l-.11.11-1.45,1.46c-.08.09-.17.17-.24.26-.44.44-.82.83-1.14,1.18a.6.6,0,0,0-.08.08c-.65.69-1.08,1.17-1.3,1.42,0,0,0,0,0,.05s0,0,0,.05l-.1.13L343.54,513.4l.15-.18c.32-.36,1.18-1.33,2.64-2.82a.46.46,0,0,0,.07-.07c.48-.5,1-1.05,1.65-1.66,0,0,0,0,0,0l1.67-1.62c.1-.08.17-.16.26-.24.62-.6,1.28-1.22,2-1.89l.31-.28c.6-.55,1.25-1.16,1.93-1.77l.62-.56,2.52-2.23c.15-.14.31-.28.48-.41.77-.67,1.56-1.37,2.4-2.07l.88-.75c1-.84,2-1.7,3.11-2.6.22-.16.44-.36.66-.53l2.9-2.35,1.15-.89c1.21-1,2.47-2,3.79-3l.7-.52c1.15-.9,2.36-1.81,3.6-2.74l1.33-1c1.47-1.09,3-2.2,4.54-3.34.23-.18.5-.36.74-.53l4.34-3.12c.5-.34,1-.71,1.52-1.05,1.74-1.23,3.51-2.46,5.36-3.73l.57-.39c1.73-1.17,3.51-2.37,5.33-3.58l1.65-1.09c2.05-1.34,4.12-2.7,6.28-4.1l.35-.22c2.07-1.33,4.22-2.69,6.41-4.06l1.78-1.11c2.35-1.46,4.74-2.93,7.22-4.42q4.32-2.61,8.48-5c3-1.77,6-3.4,8.87-5C442.46,442.12,443.11,441.78,443.75,441.42Z" transform="translate(0)"/><path class="cls-14" d="M432.3,447.47c54.35-31.38,84.1-34.41,84.4-34.42l-.53,1.71c-.3,0-29.76,3-83.69,34.16-2.8,1.61-5.68,3.31-8.61,5.09-59.37,35.87-80.1,60.14-80.29,60.37l-.67-1c.23-.27,21.15-24.8,80.92-60.93C426.71,450.73,429.55,449.06,432.3,447.47Z" transform="translate(0)"/></g><g class="cls-8"><polygon class="cls-17" points="344.62 506.16 51.18 335.64 50.61 334.57 344.06 505.1 344.62 506.16"/><path class="cls-5" d="M443.26,438.84c2.2-1,4.37-2,6.47-3,1.14-.52,2.27-1,3.38-1.51q2.91-1.29,5.67-2.47c1.05-.45,2.12-.91,3.14-1.33,2.48-1,4.92-2,7.23-2.95l.87-.34c2.25-.89,4.39-1.7,6.48-2.47l1.28-.47q3.27-1.2,6.24-2.2c.41-.15.82-.27,1.22-.41,1.93-.64,3.77-1.24,5.51-1.78l.28-.09c1.81-.55,3.5-1,5.12-1.49.34-.1.69-.21,1-.29,1.07-.3,2-.55,3-.8l2-.51,2.5-.59,1.64-.37,2.22-.45c.42-.07.88-.18,1.27-.24.76-.15,1.43-.26,2.08-.36l.76-.13,1.24-.17c.33-.05.73-.11,1-.13a7.18,7.18,0,0,1,.72-.08l.9-.11.31,0c.6-.05,1-.06,1-.06L224.43,243.48s-.46,0-1.21.08h-.13l-.82.08-.79.09-.83.12c-.45,0-.86.1-1.39.18h-.06l-.61.11c-.69.11-1.4.22-2.22.38l-1.3.25c-.7.14-1.39.27-2.18.44l-1.67.38-2.47.58-2,.5-2.1.54-1,.28-1,.27c-1.63.45-3.33.95-5.16,1.51l-.21.07c-1.77.54-3.65,1.16-5.6,1.8l-1.15.39c-2,.69-4.11,1.42-6.31,2.22l-1.19.44c-2.11.78-4.3,1.61-6.58,2.51l-.81.31c-1.84.73-3.73,1.49-5.69,2.3l-1.57.67c-1,.42-2.06.86-3.1,1.31-1.85.79-3.76,1.62-5.71,2.49l-3.35,1.5c-2.12.95-4.3,2-6.52,3l-3.12,1.46c-3.31,1.58-6.71,3.24-10.26,5q-11.07,5.56-20.71,11.17c-2.5,1.44-4.9,2.87-7.25,4.29-.73.44-1.42.88-2.13,1.32q-2.43,1.49-4.75,3c-.76.49-1.52,1-2.26,1.46-1.49.95-2.94,1.91-4.37,2.86L93,300.15c-1.7,1.14-3.34,2.27-4.94,3.39l-.86.6c-1.88,1.33-3.68,2.63-5.42,3.89-.44.33-.84.64-1.27,1-1.28.94-2.52,1.88-3.71,2.79-.52.39-1,.78-1.52,1.17-1.07.82-2.1,1.63-3.1,2.42l-1.38,1.1c-1.06.85-2.07,1.67-3,2.47l-.91.76c-1.25,1-2.42,2-3.53,3l-.55.49-2.53,2.21c-.31.29-.6.54-.91.82l-1.79,1.62c-.27.26-.54.5-.8.74-.55.51-1,1-1.51,1.43-.19.19-.4.37-.58.54-.61.59-1.16,1.12-1.63,1.59s-.88.88-1.22,1.23l-.27.27c-.2.21-.38.39-.51.54l-.2.2-.21.22L344.06,505.09s.39-.41,1.05-1.08a.71.71,0,0,0,.07-.09c.69-.68,1.67-1.66,3-2.92.13-.11.28-.26.41-.38.51-.48,1.07-1,1.67-1.56.23-.23.47-.45.73-.68l1.85-1.69.87-.78c.77-.69,1.61-1.43,2.49-2.19l.6-.53q1.65-1.41,3.5-2.95l1-.84c1-.77,1.91-1.56,2.93-2.37l1.48-1.19c.94-.74,1.93-1.52,2.94-2.29l1.68-1.31,3.48-2.6,1.49-1.11c1.7-1.25,3.46-2.52,5.31-3.83.38-.26.79-.53,1.18-.82,1.5-1,3-2.09,4.61-3.16.7-.48,1.4-.93,2.1-1.41,1.36-.89,2.76-1.82,4.19-2.74l2.39-1.53c1.5-1,3.05-1.93,4.62-2.89l2.22-1.37c2.35-1.42,4.74-2.84,7.23-4.28,6.43-3.71,13.33-7.45,20.71-11.16,3.55-1.77,6.94-3.43,10.26-5Z" transform="translate(0)"/><path class="cls-18" d="M443.42,439l.13-.06a396.07,396.07,0,0,1,40.63-16.68c10.49-3.55,22.63-8.06,33.84-8.06L456.49,378.4q-62.19-36.12-124.36-72.26l-96.79-56.25L226,244.48l-1.43-.84c-1-.58-4.14.45-5.25.57-3.64.56-7.23,1.39-10.81,2.27l.49.28c32.26,18.75,64.24,38,96.78,56.24,190.21,106.71,46.77,167.05,20,191.56l7.65,4.44L342,504l1.94,1.12c.93.53,4.83-4.32,5.62-5.05,27.29-25.69,60.12-45,93.82-61C443.18,439.1,443.12,439.12,443.42,439Z" transform="translate(0)"/><path class="cls-14" d="M408.5,456.5c6.43-3.71,13.33-7.45,20.72-11.16C490.4,414.61,517,414,517.24,414l-.6,1.75c-.27,0-26.63.56-87.51,31.15q-11.06,5.55-20.66,11.13c-42.83,24.72-64.23,47.85-64.47,48.11l-.56-1.07C343.69,504.83,365.31,481.43,408.5,456.5Z" transform="translate(0)"/></g><g class="cls-8"><polygon class="cls-17" points="343.91 505.46 50.47 334.93 49.91 333.86 343.36 504.4 343.91 505.46"/><path class="cls-5" d="M442.55,438.14c2.2-1.05,4.38-2.06,6.47-3,1.15-.53,2.28-1,3.39-1.52,1.93-.86,3.82-1.67,5.66-2.46,1.05-.46,2.11-.92,3.14-1.34,2.5-1,4.93-2,7.23-3l.87-.33c2.25-.87,4.41-1.7,6.49-2.46l1.28-.48c2.17-.8,4.25-1.52,6.25-2.2.41-.12.8-.27,1.21-.4,1.91-.64,3.76-1.24,5.5-1.78l.29-.09c1.8-.55,3.48-1.05,5.11-1.5l1-.29,3-.8,2-.51c.88-.22,1.69-.41,2.5-.58l1.64-.37,2.22-.45,1.26-.25c.77-.15,1.44-.25,2.09-.36l.75-.13c.48-.07.83-.12,1.25-.16l1-.15.72-.07c.31,0,.65-.08.89-.09l.32,0c.61-.06,1-.07,1-.07L223.71,242.78s-.44,0-1.19.07h-.13l-.82.09-.8.08-.82.12-1.4.19h-.05l-.61.1-2.22.38-1.3.26c-.7.13-1.39.27-2.18.44l-1.68.38c-.8.18-1.59.36-2.46.58l-2,.5-2.11.54-1,.27-1,.27c-1.64.46-3.34,1-5.17,1.52l-.2.06c-1.76.55-3.65,1.16-5.6,1.81l-1.16.39q-3,1-6.3,2.22l-1.19.44c-2.12.78-4.31,1.61-6.59,2.5l-.8.32c-1.85.72-3.74,1.48-5.7,2.3-.5.2-1.06.44-1.57.66l-3.08,1.32c-1.87.78-3.77,1.62-5.73,2.48l-3.35,1.51c-2.11.95-4.29,2-6.51,3-1.05.48-2.05.94-3.11,1.46-3.33,1.58-6.72,3.23-10.27,5-7.39,3.7-14.29,7.45-20.72,11.16-2.49,1.44-4.9,2.87-7.25,4.3-.73.44-1.42.87-2.13,1.32-1.61,1-3.2,2-4.74,2.95l-2.27,1.46q-2.24,1.44-4.36,2.86l-1.93,1.29c-1.71,1.15-3.35,2.28-4.94,3.4-.28.2-.58.4-.87.59-1.88,1.33-3.67,2.63-5.41,3.9l-1.27.95c-1.29.94-2.52,1.87-3.71,2.78l-1.52,1.17c-1.08.83-2.11,1.63-3.11,2.43l-1.37,1.1c-1.06.85-2.07,1.67-3,2.47l-.91.75q-1.87,1.56-3.53,3l-.55.49c-.89.77-1.74,1.51-2.54,2.22l-.9.81-1.79,1.63c-.28.25-.54.5-.8.75-.55.5-1,1-1.52,1.42l-.57.54c-.61.58-1.16,1.12-1.64,1.59l-1.21,1.22-.26.26-.53.55-.19.21-.21.21L343.36,504.4s.39-.43,1-1.09l.08-.09c.68-.69,1.67-1.67,3-2.92.13-.11.28-.25.42-.39.51-.49,1.07-1,1.66-1.57.23-.22.48-.44.73-.66.58-.54,1.2-1.11,1.86-1.69.28-.26.55-.51.86-.78l2.5-2.2c.21-.18.39-.35.6-.52,1.1-.94,2.26-1.93,3.5-3,.31-.27.67-.56,1-.83.95-.77,1.92-1.57,2.93-2.38l1.48-1.18c1-.75,1.93-1.52,2.94-2.3l1.69-1.29c1.12-.86,2.28-1.74,3.47-2.62l1.49-1.11c1.7-1.25,3.47-2.51,5.32-3.83.38-.26.79-.52,1.18-.8,1.49-1.05,3-2.11,4.62-3.18.68-.45,1.39-.92,2.08-1.4l4.2-2.75,2.38-1.53c1.51-.95,3-1.93,4.63-2.89.74-.44,1.46-.89,2.21-1.37,2.34-1.42,4.75-2.83,7.23-4.27,6.43-3.71,13.34-7.47,20.72-11.17,3.54-1.78,6.94-3.43,10.26-5C440.47,439.1,441.51,438.63,442.55,438.14Z" transform="translate(0)"/><path class="cls-18" d="M442.71,438.29c1.36-.65.64-.3.14-.07a392.5,392.5,0,0,1,40.64-16.67c10.47-3.55,22.62-8.08,33.83-8.08L455.78,377.7,331.41,305.43l-96.77-56.25-9.3-5.4-1.45-.83c-1-.59-4.13.43-5.24.56-3.65.55-7.24,1.38-10.81,2.26l.48.28c32.27,18.75,64.24,38,96.79,56.25,190.2,106.72,46.77,167,20,191.55l7.65,4.44,8.49,4.94,1.95,1.13c.93.55,4.83-4.31,5.61-5.06,27.29-25.67,60.13-45,93.81-61C442.47,438.4,442.43,438.43,442.71,438.29Z" transform="translate(0)"/><path class="cls-14" d="M407.8,455.8c6.42-3.71,13.33-7.47,20.71-11.17,61.19-30.73,87.76-31.3,88-31.31l-.6,1.73c-.27,0-26.63.59-87.51,31.16q-11.06,5.55-20.67,11.14c-42.83,24.73-64.22,47.84-64.47,48.11l-.56-1.06C343,504.12,364.61,480.72,407.8,455.8Z" transform="translate(0)"/></g><path class="cls-19" d="M520.31,233.44l.68,1c-.32.08-30.45,6.93-69.6,32.89-42.2,27.94-52.18,44.72-52.27,44.88l-1.79-.34c.1-.17,10.19-17.15,52.62-45.26C489.46,240.45,520,233.51,520.31,233.44Z" transform="translate(0)"/><path class="cls-19" d="M505.64,225l.68,1c-.32.07-30.44,6.93-69.63,32.87-42.16,27.95-52.14,44.73-52.23,44.9l-1.8-.34c.1-.18,10.19-17.16,52.61-45.27C474.8,232,505.33,225.05,505.64,225Z" transform="translate(0)"/><path class="cls-19" d="M498.32,220.75l.65,1c-.28.08-30.44,6.93-69.6,32.88-42.18,27.94-52.16,44.72-52.26,44.89l-1.77-.34c.1-.16,10.2-17.15,52.59-45.27C467.48,227.75,498,220.82,498.32,220.75Z" transform="translate(0)"/><path class="cls-19" d="M513,229.22l.65,1c-.29.08-30.45,6.93-69.61,32.88-42.18,27.94-52.13,44.73-52.23,44.9l-1.79-.35c.1-.16,10.19-17.15,52.61-45.25C482.14,236.21,512.68,229.29,513,229.22Z" transform="translate(0)"/><path class="cls-19" d="M491,216.51l.67,1c-.31.06-30.44,6.93-69.62,32.86-42.16,28-52.14,44.74-52.24,44.9L368,295c.09-.17,10.19-17.16,52.61-45.26C460.13,223.51,490.67,216.58,491,216.51Z" transform="translate(0)"/><path class="cls-19" d="M483.66,212.28l.64,1c-.29.06-30.44,6.92-69.59,32.88-42.19,27.94-52.17,44.71-52.26,44.88l-1.79-.35c.09-.17,10.21-17.13,52.61-45.25C452.81,219.28,483.34,212.35,483.66,212.28Z" transform="translate(0)"/><path class="cls-19" d="M469,203.8l.67,1c-.31.07-30.44,6.92-69.6,32.88-42.19,27.94-52.16,44.72-52.25,44.88l-1.81-.34c.1-.17,10.2-17.16,52.63-45.26C438.15,210.81,468.66,203.88,469,203.8Z" transform="translate(0)"/><g class="cls-8"><path class="cls-19" d="M388.3,157.23l.67,1c-.31.07-30.43,6.93-69.59,32.89-42.19,27.94-52.17,44.72-52.27,44.88l-1.8-.35c.1-.16,10.2-17.15,52.63-45.25C357.45,164.23,388,157.29,388.3,157.23Z" transform="translate(0)"/><path class="cls-19" d="M395.64,161.47l.68,1c-.32.06-30.46,6.91-69.62,32.86-42.17,28-52.15,44.73-52.24,44.9l-1.8-.34c.1-.17,10.19-17.16,52.62-45.26C364.8,168.47,395.33,161.54,395.64,161.47Z" transform="translate(0)"/><path class="cls-19" d="M403,165.7l.68,1c-.31.07-30.44,6.93-69.6,32.88-42.19,27.94-52.16,44.72-52.26,44.89l-1.79-.35c.09-.17,10.19-17.16,52.61-45.26C372.14,172.71,402.65,165.76,403,165.7Z" transform="translate(0)"/><path class="cls-19" d="M410.31,169.94l.67,1c-.31.07-30.43,6.93-69.62,32.87-42.16,27.95-52.14,44.73-52.23,44.9l-1.8-.35c.1-.16,10.18-17.16,52.61-45.26C379.46,176.93,410,170,410.31,169.94Z" transform="translate(0)"/><path class="cls-19" d="M417.66,174.18l.65,1c-.32.07-30.45,6.92-69.61,32.88C306.52,236,296.54,252.79,296.45,253l-1.8-.35c.09-.17,10.21-17.14,52.62-45.26C386.81,181.17,417.34,174.24,417.66,174.18Z" transform="translate(0)"/><path class="cls-19" d="M425,178.4l.68,1c-.32.07-30.44,6.93-69.62,32.87-42.16,27.95-52.15,44.73-52.24,44.89l-1.8-.34c.1-.17,10.19-17.16,52.63-45.26C394.13,185.4,424.65,178.47,425,178.4Z" transform="translate(0)"/><path class="cls-19" d="M439.63,186.87l.68,1c-.3.06-30.44,6.93-69.62,32.87-42.16,27.95-52.13,44.72-52.23,44.89l-1.81-.34c.1-.17,10.2-17.16,52.62-45.26C408.79,193.87,439.33,186.94,439.63,186.87Z" transform="translate(0)"/><path class="cls-19" d="M447,191.11l.65,1c-.28.08-30.44,6.93-69.59,32.88-42.19,27.94-52.14,44.74-52.24,44.9l-1.79-.34c.09-.17,10.18-17.16,52.61-45.27C416.13,198.11,446.67,191.18,447,191.11Z" transform="translate(0)"/><path class="cls-19" d="M454.31,195.34l.67,1c-.32.07-30.44,6.93-69.6,32.89-42.19,27.93-52.16,44.71-52.26,44.88l-1.8-.35c.09-.17,10.2-17.15,52.62-45.26C423.45,202.33,454,195.4,454.31,195.34Z" transform="translate(0)"/><path class="cls-19" d="M476.31,208l.68,1c-.31.07-30.44,6.93-69.63,32.87-42.16,27.95-52.14,44.73-52.23,44.9l-1.8-.35c.1-.17,10.19-17.16,52.62-45.26C445.47,215,476,208.11,476.31,208Z" transform="translate(0)"/></g><path class="cls-19" d="M432.31,182.64l.66,1c-.29.09-30.44,6.93-69.6,32.89-42.19,27.93-52.17,44.71-52.26,44.88l-1.77-.33c.09-.16,10.19-17.15,52.59-45.27C401.47,189.64,432,182.71,432.31,182.64Z" transform="translate(0)"/><path class="cls-19" d="M461.64,199.58l.68,1c-.31.07-30.46,6.92-69.62,32.87-42.17,28-52.14,44.73-52.24,44.9l-1.79-.34c.1-.17,10.19-17.17,52.61-45.26C430.8,206.58,461.33,199.64,461.64,199.58Z" transform="translate(0)"/><path class="cls-20" d="M380.16,398.72l12.65-19.4,18.94,5.93L399.9,403.33l6.78,1.38L426.82,374l-5.5-3.36L414,381.84,395,375.9,405,360.68l-26.73-16.32-6.55-1.29-.53-3-8.15-5,1.2,6.78L331,344.75l-3.92-22.21,13.92-.88-5.39-3.29-9.17.58L325.26,312l-9.77-6-15.31,1,9.45-4.54-4.72-2.89-17.18,8.22-58.05,3.68,29.88-33.4,15.9,3.53-.64-.39c-8.1-4.94-20.22-7.32-31.54-6.76l2.61.58-11.71,13.1-28.77-2.1-7.9,3,33.59,2.51L213.76,311l-55.82-.15-2.21-5.7-12.36,4.74,2.42,11.91-19.24,1.47-1.49-6.36-6.67,2.56,2,8.68L101.19,326l-2,.78a23.75,23.75,0,0,0-8.57,5.29l19.73,2.16L93.67,348.45c.66.49,4.93,3.15,4.93,3.15L118,335.12l-.1,0,3.86.43,9.86,25.57-31.51-8.6,23.33,14.24L135,369.88l2,5.11,15.69,9.58,35.17,6.28.23,2.88-8.81,7.07,5,3.07,11.11-9-2.24-28.46L208,364.76l41,71L209,419l24.29,14.82L245.67,439l-1.79,1.25,9.73,5.94,8.13-5.69L361.4,425.1l11.84-16.9,3.09,3.3L388,407Zm-15.73-49.66,28.79,5.78L382,371.8l-30.76-9.64,6.54-12.51Zm-14.69,1.29-5.76,11-18.82,1.55L331,352Zm-44.07,34.91-24.43-3.62-26-9.31L315,367.42ZM326,395.67,318.5,410.1l-14.27-17.63Zm-3.34-43L317,363.59l-70,5.75-21.74-8.11Zm-124.19-7.94,1.15.28,13.67-15.27,36.27-2.31,4.25,24-26.32,2.3Zm54.87,35.51,21.82,7.89,1.26.22,13.77,2-35,6.56Zm69.74-13.53L342,365.2l-12.34,23.61-16.95-2.51Zm.77-21.37L261,350.87,256.79,327l63.14-4Zm-30.38-34.29,24.05-1.52,1.73,9.83-23.57,1.5Zm-67.28,4.26,60-3.8,2.5,9.79-71.93,4.56Zm-67.54-1,21.25.06.93,6.68-20.71.37Zm2.21,10.69,27.43-.49-1.16-10.12,23.4.06-23.79,26.59-24.11-7.5Zm-33.78.6,19.39-.35,1.17,5.73-19.8-2.14Zm2.25,10.66,19.82,2.17,5.05,25-9.84,1.12-4.64-1.26Zm58.13,50.72-41.44-7.4-2.92-7.57,42.78-4.84Zm-19-25.23-4-19.41L211.41,357Zm57.34,8.49,19.94,7.21,3.83,33.77Zm36.23,62.46-3.43-5.91-3-26.09,41.37-7.71,24.69,30.52Zm87.57-13.49-21.09,3.25-5.43-6.71,10-19.13,29.57,4.35ZM367,394.35l-30.29-4.49,12.63-24.16,30.35,9.51Z" transform="translate(0)"/><polygon class="cls-21" points="154.25 363.47 149.19 338.52 129.37 336.35 139.76 363.33 144.4 364.6 154.25 363.47"/><polygon class="cls-21" points="275.45 281.63 259.56 278.1 229.68 311.5 287.73 307.82 304.91 299.6 275.45 281.63"/><polygon class="cls-21" points="318.5 410.1 304.23 392.47 326.04 395.67 318.5 410.1"/><path class="cls-22" d="M192.1,327.43c-9.44,3.62-10.55,10.54-2.51,15.45s50.09,13.63,50.09,13.63-7.88-21.8-15.93-26.72S201.53,323.82,192.1,327.43Zm22,13.47c-4.55,1.74-11.39,1.23-15.28-1.14s-3.35-5.72,1.21-7.46,11.39-1.24,15.28,1.14S218.69,339.15,214.13,340.9Z" transform="translate(0)"/><path class="cls-22" d="M235.92,357.23a1.84,1.84,0,0,1-.56.13l-5,.56a2.19,2.19,0,0,1-2-.59c-.25-.42.23-.83,1.05-.92l5-.55a2.19,2.19,0,0,1,1.95.59C236.59,356.75,236.38,357.06,235.92,357.23Z" transform="translate(0)"/><path class="cls-22" d="M224.82,358.46a2.38,2.38,0,0,1-.57.13l-6.11.67a2.19,2.19,0,0,1-1.95-.58c-.25-.42.23-.83,1.05-.92l6.11-.67a2.19,2.19,0,0,1,2,.58C225.48,358,225.27,358.28,224.82,358.46Z" transform="translate(0)"/><path class="cls-22" d="M212,361.9a3,3,0,0,1-1.86,0l-4.39-1.53c-.52-.19-.79-.49-.71-.78s.52-.53,1.11-.59l5-.56a2.22,2.22,0,0,1,2,.59c.25.42-.22.83-1.05.92l-1.73.19,1.52.53c.73.25.94.74.47,1.08A1.39,1.39,0,0,1,212,361.9Z" transform="translate(0)"/><path class="cls-22" d="M355.15,396.94a2.72,2.72,0,0,1-1.39.12l-9.56-1.52c-.84-.13-1.35-.57-1.14-1s1.06-.62,1.89-.49l9.57,1.51c.83.14,1.34.57,1.13,1A.88.88,0,0,1,355.15,396.94Zm-19.12-3a2.84,2.84,0,0,1-1.39.11l-9.57-1.51c-.83-.14-1.34-.57-1.14-1s1.06-.62,1.9-.49l9.56,1.52c.84.13,1.35.56,1.14,1A.88.88,0,0,1,336,393.92Zm-19.12-3a2.89,2.89,0,0,1-1.4.11L306,389.49c-.84-.13-1.35-.57-1.14-1s1.06-.63,1.9-.49l9.56,1.51c.84.13,1.35.57,1.14,1A.88.88,0,0,1,316.91,390.89Zm-19.12-3a2.76,2.76,0,0,1-1.4.12l-9.56-1.52c-.84-.13-1.35-.57-1.14-1s1.06-.62,1.9-.49l9.56,1.51c.84.13,1.35.57,1.14,1A.88.88,0,0,1,297.79,387.86Zm-19.12-3a2.9,2.9,0,0,1-1.4.11l-2-.33a2.21,2.21,0,0,1-.46-.11l-6.53-2.28c-.72-.26-.94-.74-.47-1.08a2.67,2.67,0,0,1,2.16-.16l6.31,2.21,1.8.28c.84.14,1.35.57,1.14,1A1,1,0,0,1,278.67,384.84Zm-16.88-5.51a3,3,0,0,1-1.86,0l-8.3-2.9c-.72-.26-.94-.74-.47-1.08a2.67,2.67,0,0,1,2.16-.16l8.3,2.91c.73.25.94.74.48,1.08A1.79,1.79,0,0,1,261.79,379.33Zm-16.6-5.81a3,3,0,0,1-1.86,0l-8.3-2.9c-.72-.26-.94-.74-.47-1.08a2.67,2.67,0,0,1,2.16-.16l8.3,2.91c.73.25.94.74.47,1.08A1.39,1.39,0,0,1,245.19,373.52Zm-16.6-5.81a3,3,0,0,1-1.86,0l-8.3-2.9c-.73-.26-.94-.74-.47-1.08a2.67,2.67,0,0,1,2.16-.16l8.3,2.91c.73.25.94.74.47,1.08A1.39,1.39,0,0,1,228.59,367.71Z" transform="translate(0)"/><path class="cls-22" d="M368.51,401.7a2.89,2.89,0,0,1-1.4.11c-.83-.13-1.34-.57-1.13-1l.88-1.71-3.54-.56c-.84-.13-1.35-.57-1.14-1s1.06-.63,1.9-.49l5.06.8a2,2,0,0,1,1,.38.48.48,0,0,1,.18.59L369,401.32A.88.88,0,0,1,368.51,401.7Z" transform="translate(0)"/><path class="cls-22" d="M363.4,411.56a2.89,2.89,0,0,1-1.4.11c-.84-.13-1.35-.57-1.14-1l2.56-4.93c.21-.41,1.06-.63,1.9-.49s1.35.56,1.14,1l-2.56,4.93A.88.88,0,0,1,363.4,411.56Z" transform="translate(0)"/><path class="cls-22" d="M359.58,418.93a2.89,2.89,0,0,1-1.4.11c-.84-.13-1.35-.57-1.14-1l1.27-2.44c.21-.41,1.06-.63,1.9-.49s1.34.57,1.13,1l-1.26,2.44A.88.88,0,0,1,359.58,418.93Z" transform="translate(0)"/><polygon class="cls-21" points="255.28 372.33 281.24 381.64 305.67 385.26 315.01 367.42 255.28 372.33"/><path class="cls-19" d="M595.15,278.44l.69,1c-.32.07-30.44,6.92-69.63,32.87-42.15,27.95-52.14,44.73-52.22,44.9l-1.81-.35c.1-.17,10.2-17.15,52.61-45.26C564.32,285.43,594.85,278.5,595.15,278.44Z" transform="translate(0)"/><g class="cls-8"><path class="cls-19" d="M529.15,240.33l.69,1c-.32.07-30.45,6.93-69.62,32.88C418,302.17,408.07,319,408,319.12l-1.8-.35c.1-.17,10.19-17.15,52.62-45.25C498.31,247.32,528.85,240.39,529.15,240.33Z" transform="translate(0)"/><path class="cls-19" d="M536.5,244.56l.66,1c-.32.07-30.45,6.92-69.61,32.88-42.18,27.94-52.16,44.72-52.26,44.88l-1.77-.33c.1-.16,10.19-17.16,52.59-45.27C505.65,251.56,536.19,244.63,536.5,244.56Z" transform="translate(0)"/><path class="cls-19" d="M543.82,248.8l.68,1c-.31.07-30.44,6.93-69.62,32.87-42.16,27.95-52.16,44.73-52.24,44.9l-1.8-.35c.1-.17,10.19-17.16,52.61-45.26C513,255.79,543.51,248.86,543.82,248.8Z" transform="translate(0)"/><path class="cls-19" d="M551.17,253l.64,1c-.27.08-30.43,6.93-69.59,32.9C440,314.87,430.06,331.64,430,331.81l-1.78-.33c.1-.16,10.2-17.15,52.59-45.27C520.32,260,550.85,253.1,551.17,253Z" transform="translate(0)"/><path class="cls-19" d="M558.49,257.26l.67,1c-.31.06-30.43,6.93-69.6,32.88-42.18,27.93-52.16,44.72-52.25,44.88l-1.8-.34c.09-.17,10.19-17.16,52.61-45.26C527.65,264.26,558.18,257.33,558.49,257.26Z" transform="translate(0)"/><path class="cls-19" d="M565.83,261.5l.67,1c-.31.07-30.45,6.92-69.63,32.87-42.15,27.95-52.13,44.74-52.22,44.91l-1.8-.35c.09-.17,10.19-17.16,52.62-45.26C535,268.5,565.52,261.57,565.83,261.5Z" transform="translate(0)"/><path class="cls-19" d="M573.16,265.73l.67,1c-.31.06-30.44,6.92-69.6,32.87C462,327.57,452.06,344.35,452,344.52l-1.8-.34c.1-.18,10.2-17.16,52.62-45.26C542.31,272.73,572.84,265.8,573.16,265.73Z" transform="translate(0)"/><path class="cls-19" d="M580.49,270l.68,1c-.31.07-30.43,6.93-69.62,32.87-42.17,27.95-52.14,44.74-52.24,44.9l-1.79-.35c.09-.16,10.18-17.15,52.61-45.26C549.65,277,580.19,270,580.49,270Z" transform="translate(0)"/><path class="cls-19" d="M587.84,274.2l.64,1c-.3.07-30.42,6.93-69.59,32.88C476.7,336,466.73,352.82,466.63,353l-1.79-.33c.09-.17,10.19-17.17,52.61-45.27C557,281.2,587.53,274.28,587.84,274.2Z" transform="translate(0)"/><path class="cls-19" d="M602.5,282.67l.65,1c-.3.07-30.43,6.92-69.59,32.88-42.19,27.94-52.17,44.71-52.26,44.88l-1.78-.33c.11-.16,10.2-17.16,52.6-45.27C571.66,289.67,602.19,282.75,602.5,282.67Z" transform="translate(0)"/><path class="cls-19" d="M609.82,286.9l.68,1c-.31.07-30.44,6.92-69.62,32.86-42.16,28-52.14,44.73-52.24,44.91l-1.8-.35c.1-.17,10.2-17.16,52.62-45.27C579,293.9,609.51,287,609.82,286.9Z" transform="translate(0)"/><path class="cls-19" d="M624.49,295.37l.67,1c-.3.06-30.44,6.92-69.6,32.88-42.18,27.93-52.16,44.71-52.25,44.88l-1.8-.34c.1-.17,10.2-17.16,52.62-45.27C593.65,302.37,624.19,295.43,624.49,295.37Z" transform="translate(0)"/><path class="cls-19" d="M631.84,299.6l.67,1c-.31.07-30.46,6.92-69.62,32.88-42.16,27.94-52.14,44.73-52.23,44.88l-1.8-.33c.09-.17,10.19-17.16,52.61-45.26C601,306.61,631.52,299.68,631.84,299.6Z" transform="translate(0)"/><path class="cls-19" d="M639.16,303.84l.67,1c-.32.08-30.43,6.94-69.59,32.89-42.19,27.94-52.17,44.72-52.27,44.89l-1.79-.35c.09-.17,10.19-17.16,52.61-45.26C608.31,310.83,638.84,303.9,639.16,303.84Z" transform="translate(0)"/></g><path class="cls-19" d="M617.17,291.14l.65,1c-.28.08-30.44,6.93-69.6,32.88C506,353,496.06,369.76,496,369.92l-1.77-.33c.09-.17,10.19-17.16,52.6-45.27C586.32,298.14,616.86,291.21,617.17,291.14Z" transform="translate(0)"/><g class="cls-23"><path class="cls-24" d="M548.84,515c9,5.77,17.68,12.31,24.93,20.17.68-1.82,4-13.62,5.42-13.57l17,.53c-11.71-13.14-27.94-23.06-43.57-30.79a122.13,122.13,0,0,0-23.87-9.26c-8.67-2.19-17.5-2.1-26.09-5-20-6.66-37.08-20.62-51.48-35.7-14.55-15.24-27.1-32.32-38.51-50-11.57-17.89-21.84-36.29-35.37-52.83A312.57,312.57,0,0,0,335,296.15,360.61,360.61,0,0,0,232,235.91c-1.72-.65-4.44-2.41-6.15-1.42l-7.19,4.19-14.43,8.37c17.55,5.62,34.49,14.11,50.6,22.95a363.73,363.73,0,0,1,54.48,36.59,311,311,0,0,1,46.38,46.1c13.74,17.05,24.19,36,36.15,54.29,18.14,27.67,39.58,55.8,68.07,73.48a95.23,95.23,0,0,0,21.61,10.11c6.91,2.15,13.75,2.5,20.81,3.72,16.49,2.92,32.55,11.75,46.47,20.71C549.83,515.62,548.2,514.57,548.84,515Z" transform="translate(0)"/></g><g class="cls-8"><path class="cls-22" d="M582.74,530.2c.68-1.83,4-13.62,5.42-13.58l17,.54c-.42,2.24-14.31.28-16.74.16-.7,0-2.56,6.14-2.83,6.88-.53,1.38-1.71,6.86-3.32,6.93.15-.3.28-.63.45-.93Z" transform="translate(0)"/><path class="cls-22" d="M557.82,510c8.95,5.77,17.68,12.31,24.92,20.18.68-1.83,4-13.62,5.42-13.58l17,.54c-11.72-13.15-27.95-23.06-43.58-30.8a122.76,122.76,0,0,0-23.87-9.26c-8.66-2.17-17.49-2.09-26.09-5-20-6.68-37.08-20.63-51.48-35.71-14.55-15.23-27.1-32.31-38.51-50-11.56-17.88-21.84-36.27-35.36-52.82a313.22,313.22,0,0,0-42.35-42.42A360.84,360.84,0,0,0,241,230.93c-1.72-.64-4.44-2.4-6.14-1.42l-7.2,4.19-14.42,8.38c17.54,5.62,34.48,14.1,50.59,22.94a363.73,363.73,0,0,1,54.48,36.59,311.47,311.47,0,0,1,46.38,46.1c13.73,17.06,24.19,36,36.15,54.28,18.14,27.69,39.58,55.81,68.08,73.51a96.43,96.43,0,0,0,21.6,10.1c6.92,2.15,13.75,2.5,20.81,3.71,16.49,2.91,32.55,11.76,46.48,20.71C558.8,510.65,557.18,509.6,557.82,510Z" transform="translate(0)"/><path class="cls-22" d="M270.78,268.93c30.48,17.59,58.72,39.47,82.49,65.48,14.42,15.79,26.35,33.06,37.37,51.34,11.3,18.76,23.67,37,37.95,53.64,18.35,21.38,41.7,42.81,70.28,48.33,6.67,1.29,13.29,1.4,19.85,3.36A139.75,139.75,0,0,1,542.31,501a183.26,183.26,0,0,1,23.9,14.76c2.15,1.58,18,13.19,16.08,15.37-14.74-16-35.51-28-55.61-35.89a89.5,89.5,0,0,0-12.59-4c-4.39-1-8.9-1-13.33-1.77a89,89,0,0,1-30.28-11.69c-32.15-19.23-55.72-51.72-75.29-82.89-11.65-18.55-22.64-36.91-37-53.54a316.3,316.3,0,0,0-42-40.08,369.19,369.19,0,0,0-92-53.77c-1.76-.71-11.34-2.78-10.89-5.4,20,6.63,39.32,16.32,57.53,26.85Z" transform="translate(0)"/></g></svg>