<svg xmlns="http://www.w3.org/2000/svg" xmlns:xlink="http://www.w3.org/1999/xlink" viewBox="0 0 732 731"><defs><style>.cls-1,.cls-11{fill:none;}.cls-2{isolation:isolate;}.cls-3{clip-path:url(#clip-path);}.cls-4{fill:#f7931e;}.cls-5{opacity:0.21;mix-blend-mode:overlay;filter:url(#AI_Woodgrain);}.cls-6{fill:#e44800;}.cls-7{fill:#d68927;}.cls-8{fill:#feda94;}.cls-9{opacity:0.5;}.cls-10,.cls-13{fill:#6b360c;}.cls-11{stroke:#e44800;stroke-linecap:round;stroke-miterlimit:10;stroke-width:6px;}.cls-12{fill:#ff9300;}.cls-13{opacity:0.43;}.cls-14{fill:#f3f3f3;}.cls-15{fill:#878787;opacity:0.29;}</style><clipPath id="clip-path"><rect class="cls-1" width="732" height="732" rx="50"/></clipPath><filter id="AI_Woodgrain" x="-10" y="-10" width="150" height="150" name="AI_Woodgrain"><feGaussianBlur result="blur" stdDeviation="4" in="SourceGraphic"/><feOffset result="offsetBlurredAlpha" dx="4" dy="4"/><feFlood result="color"/><feComposite result="offsetBlurredAlpha" operator="in" in2="offsetBlurredAlpha"/><feDiffuseLighting result="diffuse" surfaceScale="5" in="blur"><feDistantLight result="light2" azimuth="135" elevation="60"/></feDiffuseLighting><feSpecularLighting result="specularOut" surfaceScale="5" specularExponent="10" in="blur"><feDistantLight result="light" azimuth="135" elevation="60"/></feSpecularLighting><feComposite result="specularOut" operator="in" in="specularOut" in2="SourceAlpha"/><feComposite result="litPaint" operator="arithmetic" k1="1" in="SourceGraphic" in2="diffuse"/><feComposite result="litPaint" operator="arithmetic" k2="1" k3="1" in="litPaint" in2="specularOut"/><feMerge><feMergeNode in="offsetBlurredAlpha"/><feMergeNode in="litPaint"/></feMerge><feTurbulence result="Turbulence" baseFrequency="0.05" numOctaves="10" type="fractalNoise" in="SourceAlpha"/><feColorMatrix result="Grayscale" values="1 0 0 0 0 1 0 0 0 0 1 0 0 0 0 0 0 0 0 1" in="Turbulence"/><feGaussianBlur result="BlurredAlpha" stdDeviation="4" in="SourceAlpha"/><feOffset result="OffsetBlurredAlpha" dx="-4" dy="-5" in="BlurredAlpha"/><feComposite result="CompBlurTurb" operator="in" in="Grayscale" in2="OffsetBlurredAlpha"/><feGaussianBlur result="CompBlurTurb2" stdDeviation="1.5" in="CompBlurTurb"/><feComponentTransfer result="CompXferFire" in="Grayscale"><feFuncR type="table" tableValues="2 0"/><feFuncG type="table" tableValues="0.7 0"/><feFuncB type="table" tableValues="0.1 0"/></feComponentTransfer><feComposite result="CompSourceFire" operator="in" in="CompXferFire" in2="SourceGraphic"/><feMerge result="MergeAll"><feMergeNode in="CompSourceFire"/></feMerge></filter></defs><title>contact</title><g class="cls-2"><g id="Layer_1" data-name="Layer 1"><g class="cls-3"><rect class="cls-4" y="-1" width="732" height="732" rx="50"/><g class="cls-5"><rect class="cls-4" x="1" y="-1" width="732" height="732" rx="50"/></g><path class="cls-6" d="M330.55,268.12h0a8.57,8.57,0,0,1,8.56,8.9l-3.7,97h-9.72L322,277A8.57,8.57,0,0,1,330.55,268.12Z"/><path class="cls-6" d="M307.67,282.9c4.66.4,5.87,3.77,6.07,4.85l-2.37,27.4c-.09,1.15-2.19,2.06-4.74,2.06h0c-1.23,0-2.24-.44-2.28-1L302,287.75A5.94,5.94,0,0,1,307.67,282.9Z"/><path class="cls-6" d="M305,311.38h0c1-2.89,2.62-4.91,3.61-4.45l19.73,9.16-2,5.76-21.22-4.75C304.07,316.86,304,314.26,305,311.38Z"/><path class="cls-6" d="M357.68,291.8a8.32,8.32,0,0,1,8.5,7.9l-2.79,24.78a2.2,2.2,0,0,1-2.32,1.74H355.9a2.21,2.21,0,0,1-2.32-1.74l-3-25.59C350.41,297.3,353,291.8,357.68,291.8Z"/><path class="cls-6" d="M361.51,319.18h0c1.92,2.74,2.36,5.71,1,6.54l-27.92,16.52-3.85-5.46,25-20.71C356.94,315,359.58,316.45,361.51,319.18Z"/><path class="cls-7" d="M-69,544s49-74,150-124c93.64-46.36,240-73,327-38,85.77,34.51,130,101,220,79,29.59-7.23,91-29,154-6,51.67,18.86,55,262,55,262L176,807S-84,713-78,716-69,544-69,544Z"/><path class="cls-8" d="M-5,624c81-55,400.88-93.86,497.9-27.1C596.23,668,656,635,656,635V787H-13Z"/><g class="cls-9"><polygon class="cls-10" points="727.83 501.69 703.28 501.42 678.73 502.05 654.17 502.18 653.5 498.25 654.17 494.76 678.72 495.32 703.27 495.04 727.83 494.67 729.29 498.25 727.83 501.69"/><polygon class="cls-10" points="515.03 488.2 500.72 485.26 486.41 484.78 472.1 486.51 457.79 486.43 443.48 485.72 429.17 484.63 414.86 487.53 400.54 485.24 386.23 486.52 371.92 486.78 357.61 484.97 343.29 487.45 328.97 484.81 324.18 483.25 328.97 478.18 343.28 478.27 357.59 480.18 371.9 478.21 386.21 480.1 400.52 479.63 414.83 481.16 429.14 480.75 443.46 481.91 457.77 480.81 472.08 481.11 486.39 481.46 500.71 480.03 515.03 478.25 519.25 483.25 515.03 488.2"/><polygon class="cls-10" points="666.81 545.34 629.3 545.55 591.78 544.18 554.27 543.56 516.75 545.33 479.23 547.01 441.71 546.87 404.19 547.03 398.89 544.4 404.19 543.41 441.7 544.96 479.22 545.49 516.73 541.87 554.25 542.9 591.77 541.13 629.29 543.36 666.81 542.46 671.34 544.4 666.81 545.34"/><polygon class="cls-10" points="244.6 554.12 220.91 557.25 197.23 554.04 173.54 556.53 149.86 557.11 126.17 556.38 102.48 556.8 78.79 557.15 55.09 557.48 31.4 557.43 30.02 553 31.4 548.96 55.09 548.22 78.77 551.55 102.46 548.6 126.14 550.78 149.83 548.73 173.52 548.14 197.21 552.18 220.91 547.98 244.6 549.68 249.33 553 244.6 554.12"/></g><path class="cls-6" d="M570,104h0a42.35,42.35,0,0,0-42.32,44L546,627h48l18.32-479A42.35,42.35,0,0,0,570,104Z"/><path class="cls-6" d="M683,177c-23,2-29,18.63-30,24l11.7,135.3c.49,5.7,10.84,10.2,23.46,10.2h0c6.05,0,11-2.16,11.25-4.89L711,201C711.2,198.61,706,179,683,177Z"/><path class="cls-6" d="M696.27,317.68h0c-4.85-14.27-12.94-24.24-17.82-22L581,340.94l9.68,28.49L695.52,346C700.77,344.77,701.11,331.94,696.27,317.68Z"/><path class="cls-6" d="M436,221c-33.46.87-42.62,29.78-42,39l13.79,122.39c.55,4.88,5.51,8.61,11.45,8.61h25.52c5.94,0,10.9-3.73,11.45-8.61L471,256C471.89,248.15,459.26,221,436,221Z"/><path class="cls-6" d="M417.08,356.25h0c-9.51,13.52-11.68,28.16-4.77,32.25l137.92,81.65,19-27L445.84,340.87C439.65,335.75,426.6,342.73,417.08,356.25Z"/><path class="cls-6" d="M84.34,252h0a21.13,21.13,0,0,1,21.12,21.94L96.32,513h-24L63.22,273.94A21.13,21.13,0,0,1,84.34,252Z"/><path class="cls-6" d="M28,288.43c11.47,1,14.47,9.3,15,12l-5.84,67.52c-.24,2.84-5.41,5.09-11.71,5.09h0c-3,0-5.5-1.08-5.61-2.44L14,300.41C13.87,299.22,16.47,289.43,28,288.43Z"/><path class="cls-6" d="M21.33,358.63h0c2.41-7.11,6.45-12.09,8.89-11l48.62,22.57L74,384.46,21.7,372.74C19.08,372.16,18.91,365.75,21.33,358.63Z"/><path class="cls-6" d="M151.21,310.39c16.7.43,21.27,14.86,21,19.46l-6.88,61.08c-.28,2.43-2.75,4.3-5.71,4.3H146.84c-3,0-5.44-1.87-5.72-4.3l-7.38-63.08C133.3,323.94,139.6,310.39,151.21,310.39Z"/><path class="cls-6" d="M160.65,377.88h0c4.75,6.75,5.83,14.06,2.38,16.1L94.21,434.72l-9.49-13.48,61.58-51C149.39,367.65,155.9,371.14,160.65,377.88Z"/><line class="cls-11" x1="483" y1="380" x2="496" y2="363"/><line class="cls-11" x1="488" y1="453" x2="501" y2="436"/><line class="cls-11" x1="501" y1="453" x2="514" y2="436"/><line class="cls-11" x1="424.39" y1="227.2" x2="424.61" y2="205.8"/><line class="cls-11" x1="436.39" y1="233.2" x2="436.61" y2="211.8"/><line class="cls-11" x1="462.22" y1="288.52" x2="482.78" y2="294.48"/><line class="cls-11" x1="459.78" y1="301.86" x2="487.56" y2="310.34"/><line class="cls-11" x1="691.23" y1="292.52" x2="720.1" y2="295.67"/><line class="cls-11" x1="687.23" y1="281.52" x2="716.1" y2="284.67"/><line class="cls-11" x1="631.23" y1="220.52" x2="660.1" y2="223.67"/><line class="cls-11" x1="513.23" y1="220.52" x2="542.1" y2="223.67"/><line class="cls-11" x1="511.23" y1="204.52" x2="540.1" y2="207.67"/><line class="cls-11" x1="640.23" y1="234.52" x2="669.1" y2="237.67"/><line class="cls-11" x1="382.15" y1="339.14" x2="411.19" y2="339.05"/><line class="cls-11" x1="584.15" y1="492.14" x2="613.19" y2="492.05"/><line class="cls-11" x1="587.15" y1="396.14" x2="616.19" y2="396.05"/><line class="cls-11" x1="599.15" y1="385.14" x2="628.19" y2="385.05"/><line class="cls-11" x1="697.32" y1="190.98" x2="714.02" y2="167.22"/><line class="cls-11" x1="603.58" y1="136.15" x2="627.75" y2="120.05"/><line class="cls-11" x1="506.25" y1="112.4" x2="542.47" y2="135.11"/><line class="cls-11" x1="524.55" y1="106.67" x2="557.27" y2="134.18"/><line class="cls-11" x1="683.32" y1="190.98" x2="700.02" y2="167.22"/><line class="cls-11" x1="595.32" y1="133.98" x2="612.02" y2="110.22"/><line class="cls-11" x1="592.15" y1="504.26" x2="621.19" y2="503.93"/><line class="cls-11" x1="524.15" y1="554.26" x2="553.19" y2="553.93"/><line class="cls-11" x1="530.15" y1="564.26" x2="559.19" y2="563.93"/><line class="cls-11" x1="392.15" y1="351.14" x2="421.19" y2="351.05"/><path class="cls-12" d="M123.07,508.31l51.73-51.87h245l43.3,51.87Z"/><rect class="cls-10" x="151.6" y="513.22" width="297.88" height="140.07"/><path class="cls-12" d="M124.66,511.48a403.16,403.16,0,0,0,19.65,147l303.28-.54a315,315,0,0,0,18.88-87.08,313.4,313.4,0,0,0-1.8-62.51Zm303.5,86.92q-3.17,18.08-7,34.62l-249.85.54c-3.17-14.25-6.11-29.41-8.63-45.43-3-19.24-5.1-37.5-6.48-54.62l280.07-1.09A654.56,654.56,0,0,1,428.16,598.4Z"/><path class="cls-10" d="M443.88,516.22H144.56V426.34a732.3,732.3,0,0,1,299.32,0Z"/><path class="cls-12" d="M168.26,421.12c-1.49,3.08-14,29.42-17.6,53.24a178.48,178.48,0,0,0-1.74,19.57,155,155,0,0,0,.68,18.62l288.23,1.2c.23-2.85.41-6.13.46-9.78a157.33,157.33,0,0,0-4.68-39.75,173.62,173.62,0,0,0-16.77-44.32l29.17,4a153.6,153.6,0,0,1,20.86,49.24c3.64,15.93,7.57,34.2-1.06,48.93a34.27,34.27,0,0,1-6.86,8.35l-334.16-.59c-3.07-7.94-12.07-34-4.22-65.05a98.09,98.09,0,0,1,20.58-40Z"/><circle class="cls-13" cx="142.05" cy="549.43" r="6.33"/><circle class="cls-13" cx="145.21" cy="577.9" r="6.33"/><circle class="cls-13" cx="148.38" cy="606.37" r="6.33"/><circle class="cls-13" cx="153.12" cy="634.83" r="6.33"/><circle class="cls-13" cx="452.02" cy="549.43" r="6.33"/><circle class="cls-13" cx="448.86" cy="577.9" r="6.33"/><circle class="cls-13" cx="445.7" cy="606.37" r="6.33"/><circle class="cls-13" cx="440.95" cy="634.83" r="6.33"/><rect class="cls-12" x="271.29" y="501.99" width="45.86" height="45.86" rx="7.12"/><path class="cls-10" d="M301.34,513.46a9.83,9.83,0,0,1-3.56,10.67q1.77,9.5,3.56,19h-13l2.37-19a9.05,9.05,0,0,1-4.74-9.48c.72-3.9,4.24-7.33,8.3-7.12C297.83,507.72,300.41,510.71,301.34,513.46Z"/><path class="cls-8" d="M-44,651s96.61-82.32,202-37c100,43,314,2.46,350-13,64-27.44,213-36,250,26,32.3,54.13,20,115,20,115L117,774-48,753Z"/><polygon class="cls-10" points="252.6 667.04 228.91 669.46 205.23 668.25 181.54 666.93 157.86 668.09 134.17 669.93 110.48 667.93 86.79 667.93 63.09 669.2 39.4 667.49 35.17 666 39.4 664.19 63.09 663.55 86.77 662.1 110.46 663.05 134.14 660.85 157.83 661.98 181.52 664.94 205.21 663.25 228.91 664.29 252.6 661.83 253.84 666 252.6 667.04"/><polygon class="cls-10" points="438.81 701.1 401.3 699.77 363.78 703.29 326.27 702.31 288.75 702.64 251.23 699.79 213.71 702.93 176.19 700.42 171.96 699.4 176.19 700.24 213.7 696.09 251.22 696.49 288.73 696.53 326.25 698.94 363.77 698.39 401.29 699.82 438.81 698.85 443.66 699.4 438.81 701.1"/><polygon class="cls-10" points="606.03 676.41 591.72 676.08 577.41 676.43 563.1 675.32 548.79 676.44 534.48 674.83 520.17 674.97 505.86 676.7 491.54 675.04 477.23 675.27 462.92 676.8 448.61 675.21 434.29 675.41 419.97 673.59 415.96 672.25 419.97 667.72 434.28 667.34 448.59 670.38 462.9 668.29 477.21 667.13 491.52 670.91 505.83 668.64 520.14 670.12 534.46 667.98 548.77 670.19 563.08 667.42 577.39 668.56 591.71 669.96 606.03 670.72 609.18 672.25 606.03 676.41"/><polygon class="cls-10" points="673.83 630.15 649.28 629.09 624.73 629.99 600.17 629.06 599.71 626.25 600.17 622.54 624.72 622.37 649.27 622.34 673.83 623.01 674.89 626.25 673.83 630.15"/><path class="cls-14" d="M387.7,602.86c2,0,3.81,0,5.49,0,0,0,16.31-.42,29.17-5.25,8-2.26,13.69-7.12,16.14-12.46a0,0,0,0,0,0,0,13.75,13.75,0,0,0,1.31-6.13c-.18-5.51-4.16-11.88-9.16-12.74-6.25-1.08-14.74,6.26-18.7,19.78l-2.4-.74a54.52,54.52,0,0,1,2-7.42,55.36,55.36,0,0,1,12.66-20.54c4.1,1,8.75,1.84,13.9,2.53a145.93,145.93,0,0,0,22.6,1.18c3.54-.09,6.93-.31,10.16-.62a143.05,143.05,0,0,0,17.38-2.76q19.56,15.87,39.15,31.73l2.55,2.07q1.21,9.76,2.44,19.51c-2.13,6.62-4.73,13.73-8,21.19a229.21,229.21,0,0,1-13.23,26l-26,6.9h0c.58,2,1.14,3.64,1.58,4.85a159,159,0,0,1-19.69,3.53,156.68,156.68,0,0,1-17.3,1c-2-7.36-3.89-13.49-5.46-18.17a1.45,1.45,0,0,0-.06-.19l-.22.07-13.48,1.67-11.86,1.44-2.2.27L410.87,653l-2.05,1-10.15,4.89-3.42-1.15-9.36-3.18-9,5-22,12.39a120.12,120.12,0,0,1-18.66-16.54c-2.44-2.65-4.63-5.26-6.6-7.82a18.24,18.24,0,0,1,0-13.5,211.94,211.94,0,0,1,21.46-21.23c5.3-4.56,10.5-8.57,15.46-12.1A128.6,128.6,0,0,0,387.7,602.86Zm78,37.68c15.57-.24,26.18-13.56,24.37-25.25-1.81-11.54-15.48-20-27.61-16.88-8.62,2.25-15.26,10.06-16.71,19.76a36.63,36.63,0,0,0,19.95,22.37Zm-69.19-16.92-1.84-2.55-17.32,2.8q3-4.57,6-9.14l-.91-1.28a59.66,59.66,0,0,0-22.24,5.37c-13.31,6.14-23.4,17-22.2,18.86.58.89,3.53-.74,11.67-2.59a109.88,109.88,0,0,1,13.86-2.24c-1,1.5-2.43,3.62-4.36,6-6,7.45-10.17,9.6-9.63,10.79.85,1.94,13.3-.1,24.6-6.1A65,65,0,0,0,396.55,623.62Z"/><path class="cls-14" d="M470.89,560.25v.15c-3.23.31-6.62.53-10.16.62a145.93,145.93,0,0,1-22.6-1.18v-.06l5.38-2.39,12.53-5.57Z"/><path class="cls-14" d="M444.09,656.12c-2.27,10.77-8.9,17.8-15.27,17.75a10.68,10.68,0,0,1-6.5-2.5l-.15-.2a34.71,34.71,0,0,0,3.16-3.49,29.15,29.15,0,0,0,5.31-9.7l0-.19Z"/><path class="cls-14" d="M430.61,657.79l0,.19a29.15,29.15,0,0,1-5.31,9.7,34.71,34.71,0,0,1-3.16,3.49,6.76,6.76,0,0,1-4.48,2c-3.4.06-5.88-2.88-6.52-3.7l0-.05a27.89,27.89,0,0,0,3.25-3.53,48,48,0,0,0,4.41-6.3l0-.36Z"/><path class="cls-14" d="M443.4,557.06l.13.33-5.38,2.39v.06c-5.15-.69-9.8-1.58-13.9-2.53a55.36,55.36,0,0,0-12.66,20.54l-.77-.25c-5.7-3-19.49-11.28-26.91-28a46.6,46.6,0,0,1-4.25-15.31c-1.78-19.47,10.94-27.92,13.37-45.75,1.08-7.92.36-19.41-8.16-34.36,11.36,4.85,24.45,12.83,28.36,26,5.2,17.55-10.06,30.31-5.5,47.45C410.13,536.7,418.31,547.82,443.4,557.06Z"/><path class="cls-14" d="M418.75,659.23l0,.36a48,48,0,0,1-4.41,6.3,27.89,27.89,0,0,1-3.25,3.53,8.27,8.27,0,0,1-2,1.23c-.93.4-4.28,1.83-6.75,0a5.71,5.71,0,0,1-2.1-3.68l0,0c.64-.58,1.25-1.24,1.92-1.94a32.32,32.32,0,0,0,6.72-11l-.06-.12,2.05-1,5.68,6.55Z"/><path class="cls-14" d="M408.82,653.93l.06.12a32.32,32.32,0,0,1-6.72,11c-.67.7-1.28,1.36-1.92,1.94a10.06,10.06,0,0,1-4.45,2.64c-4.51,1.21-8.54-1.21-9.7-2l-.07-.12c5-2.84,8.29-8.23,9.23-9.84h0l3.42,1.15Z"/><path class="cls-14" d="M416.35,598.75a34.59,34.59,0,0,0,6-1.16c-12.86,4.83-29.17,5.25-29.17,5.25-1.68,0-3.51,0-5.49,0l8.33-24.3,13.53,6.71,2.4.74c-.27.93-.52,1.91-.75,2.9Z"/><path class="cls-14" d="M395.25,657.67h0c-.94,1.61-4.24,7-9.23,9.84a12.83,12.83,0,0,1-5.92,1.76c-1.06.05-5.21.2-6.4-2.16-1-1.92.23-5.09,3.23-7.59l9-5Z"/><path class="cls-14" d="M681,637.46c-31.33-20.61-51.1-20.66-63.72-16-22.71,8.35-27.65,33.84-53.15,36.29-12.08,1.17-23.54-3.36-30.48-6.1a89.71,89.71,0,0,1-28.52-18.15A27.43,27.43,0,0,1,521.82,607c11.3,8.27,29,18.27,49.13,15.9,21.22-2.5,28.69-16.78,47-19.31C631.37,601.71,652,606,681,637.46Z"/><path class="cls-15" d="M384.84,454c8.23,9,18.37,23.22,17.27,40-.89,13.62-8.88,19.18-9.09,31.81-.16,9.6,4.12,23.05,24.09,39.54l-5.91,12.27a61.45,61.45,0,0,1-25.45-24.54,49.32,49.32,0,0,1-6.36-18.18c-2.78-22.58,14.94-32.48,14.54-54.53C393.82,474,392.17,464.93,384.84,454Z"/><path class="cls-15" d="M678,635.33c-4.32-5-15.86-17-34.54-20.91-18.41-3.85-33.44,2.29-40.9,5.46-15.84,6.72-17.91,13.55-27.83,17.72-11.46,4.82-31,5-65.79-19.54a25.57,25.57,0,0,0-1.82,3.63,26.84,26.84,0,0,0-1.82,11.82c3.94,2.57,7,4.81,9.09,6.36,3,2.29,4.33,3.43,7.27,5.46,0,0,3.63,2.5,7.28,4.54a66.15,66.15,0,0,0,28.17,8.18,41.07,41.07,0,0,0,17.27-2.73c6.85-2.81,9.81-6.54,16.36-12.72,14.13-13.34,21.2-20,30-21.81,4.66-1,15.31-3.68,26.35,0h0c7,1.71,13.17,4.77,18.18,7.27A125.85,125.85,0,0,1,678,635.33Z"/><path class="cls-15" d="M373.48,665.32a11.36,11.36,0,0,1,.91-2.72,11.55,11.55,0,0,1,1.82-2.73q5-2.73,10-5.45l8.18,3.63c-.54,1.66-2.59,7.3-8.18,10-3.41,1.64-9.53,2.87-11.82,0A4.55,4.55,0,0,1,373.48,665.32Z"/><path class="cls-15" d="M386.21,668.05a17.63,17.63,0,0,0,8.18-10l4.54.91,10-4.54a28.19,28.19,0,0,1-1.82,4.54,23.51,23.51,0,0,1-6.36,8.18,13.07,13.07,0,0,1-4.55,2.73C391.64,671.25,387.42,668.81,386.21,668.05Z"/><path class="cls-15" d="M410.75,653.51l5.45,6.36H418c-.46.94-5.57,11.09-11.82,11.81a5.84,5.84,0,0,1-4.54-.9,5.45,5.45,0,0,1-1.82-3.64,24.76,24.76,0,0,0,9.09-12.72Z"/><path class="cls-15" d="M418.93,659l11.81-.91c-1.94,10.1-8.44,16.06-13.63,15.45-.75-.09-3.58-.56-6.36-4.54,1.5-1.77,3-3.59,4.54-5.46C416.53,662,417.75,660.46,418.93,659Z"/><path class="cls-15" d="M430.74,658.05l13.64-1.82a25,25,0,0,1-5.46,11.82c-2.23,2.63-5.3,6.25-10,6.36a11.34,11.34,0,0,1-7.28-2.73,27,27,0,0,0,8.18-10.9A24.25,24.25,0,0,0,430.74,658.05Z"/><path class="cls-15" d="M387.48,615.35a121.56,121.56,0,0,0,48.36-12.76,38.66,38.66,0,0,1-11.56,8.24c-2.32,1.07-5.82,2.39-13.94,3.51A126.21,126.21,0,0,1,387.48,615.35Z"/><path class="cls-15" d="M494.37,611.7c1.21-1.46,2.42-3,3.63-4.55,3.1-4,5.81-8,8.18-11.81a39.11,39.11,0,0,0,22.73-3.64l-1.82-1.82a34.95,34.95,0,0,1-21.82,3.64,57.55,57.55,0,0,1-6.36,10.9,59.64,59.64,0,0,1-5.45,6.37Z"/><path class="cls-15" d="M491.64,631.69a13.52,13.52,0,0,0,.91,9.09,12.59,12.59,0,0,0,2.73,3.64,27.78,27.78,0,0,0,15.45-4.55l-.91-.91a20.42,20.42,0,0,1-5.46,2.73,20.64,20.64,0,0,1-8.18.91,11.66,11.66,0,0,1-2.72-3.64,12,12,0,0,1-.91-7.27Z"/><path class="cls-15" d="M431.65,640.78a24.36,24.36,0,0,1,7.27,5.45c2.56,2.84,3.85,5.67,5.46,10a152.56,152.56,0,0,1,5.45,18.18c4.55-.1,9.41-.38,14.54-.91a178.93,178.93,0,0,0,21.82-3.63c-.39-1.69-1-4.22-1.82-7.27-1.4-5.15-1.53-4.73-1.82-6.37-.37-2.08-1.62-8.29,1.82-13.63a15.1,15.1,0,0,1,6.36-5.45v-1.82a17.57,17.57,0,0,0-8.18,7.27c-2.6,4.64-2.21,9.27-1.82,13.63a36.48,36.48,0,0,0,2.73,10.91,90.62,90.62,0,0,1-30.9,4.54c-.6-1.92-1.51-4.77-2.73-8.18-2.66-7.42-4-11.13-6.36-14.54a31.4,31.4,0,0,0-10-9.09Z"/><path class="cls-15" d="M439.83,559.89c4.32.41,8.87.73,13.64.91,6.09.22,11.86.2,17.26,0l-14.54-2.73Z"/><path class="cls-15" d="M388,602.61A105.39,105.39,0,0,0,416.2,599l-1.82-3.63a29.24,29.24,0,0,1-3.63,1.81c-8.6,3.58-17,2.2-21.82.91C388.63,599.58,388.33,601.09,388,602.61Z"/><circle class="cls-6" cx="107" cy="45" r="167"/></g></g></g></svg>