<svg xmlns="http://www.w3.org/2000/svg" xmlns:xlink="http://www.w3.org/1999/xlink" viewBox="0 0 732 732"><defs><style>.cls-1,.cls-11{fill:none;}.cls-2{isolation:isolate;}.cls-3{clip-path:url(#clip-path);}.cls-4{fill:#f7931e;}.cls-5,.cls-7{fill:#e44800;}.cls-6{fill:#d68927;}.cls-7{opacity:0.15;mix-blend-mode:multiply;}.cls-8{fill:#feda94;}.cls-9{fill:#faac00;}.cls-10{fill:#64610e;}.cls-11{stroke:#e44800;stroke-miterlimit:10;stroke-width:6px;}.cls-12{fill:#f3f3f3;}.cls-13{fill:#fc0;}</style><clipPath id="clip-path"><rect class="cls-1" width="732" height="732" rx="50"/></clipPath></defs><title>FAQ</title><g class="cls-2"><g id="Layer_1" data-name="Layer 1"><g class="cls-3"><rect class="cls-4" width="732" height="732" rx="50"/><path class="cls-5" d="M153,685.66c1.85-13.93-42.54-36.41-40.19-54.38,2-15.11,50.63-25.34,52.8-42.26,2-15.65-48.32-16.13-46.27-32.55,2-16,56.43-48.14,58.38-64.2,2-16.41-46.85-12-45-27.68,2-16.92,62-62.58,63.61-77.75,1.94-18-57-1.64-55.76-15.7,2.27-25.32,63.61-62.83,55.76-87.17-7.75-24-60,3.35-66-14.93C82.14,121.4-26.34,151.35,29.82,258.84c18.67,35.73,27.07,53.45,26.7,60.47-.46,8.54-49.16,1.93-48.89,24.05C7.8,357.21,56.84,405.49,57.3,423c.4,14.83-46.15-1-47.21,15.6C7.83,474,75.4,508.15,76.15,524.27c.73,15.61-62.52-6.46-61.62,9.35s62.88,75.66,64,91.18c1.14,16.2-58.52-11.16-57.17,4,1.49,16.68,49.79,27.65,51.53,42.22C75,688.77,32,715.61,34.52,728.79,36.91,728.79,149.07,715.25,153,685.66Z"/><path class="cls-5" d="M584.54,660.92c-1.41-10.66,32.54-27.86,30.75-41.61-1.51-11.55-38.74-19.38-40.4-32.32-1.53-12,39.68-1.43,38.11-14-1.54-12.27-45.88-47.74-47.37-60-1.53-12.56,35.84-9.18,34.44-21.18-1.5-12.95-47.41-47.87-48.66-59.48C549.93,418.58,597,415.76,596,405c-1.74-19.37-50.6-32.76-44.59-51.38,5.92-18.36,57,4.36,61.59-9.62,36.87-112.95,108.74-91.83,65.77-9.6C664.49,361.73,653.71,393.64,654,399c.35,6.54,42-16.86,41.75.06-.13,10.59-45.4,63.57-45.75,76.94-.3,11.35,43.06-16.77,43.87-4.11C695.6,499,644.57,537.66,644,550c-.56,11.94,47.16-17.49,46.47-5.39s-48.1,57.88-48.94,69.75c-.88,12.39,44.76-8.54,43.73,3-1.14,12.76-38.09,21.15-39.42,32.3-1.63,13.59,31.26,34.12,29.34,44.2C673.35,693.91,587.54,683.55,584.54,660.92Z"/><path class="cls-5" d="M439.11,652.13c1.41-13.17-32.54-34.42-30.75-51.41,1.51-14.28,38.74-24,40.39-40,1.54-14.79-39.68-1.77-38.1-17.29,1.54-15.16,45.87-59,47.37-74.18,1.53-15.52-35.84-11.34-34.44-26.17,1.5-16,47.4-59.17,48.66-73.51,1.48-17-45.56-20.47-44.59-33.76,1.73-23.94,50.6-40.49,44.59-63.5-5.92-22.69-66.78,5.21-61.59-11.89C457.16,107.19,385.55,109.69,339,226c-13.63,34.05,30.93,95.81,30.65,102.44-.35,8.08-42-20.84-41.75.07.13,13.1,45.39,78.57,45.75,95.09.3,14-43.06-20.72-43.87-5.08-1.73,33.52,49.29,81.29,49.87,96.54.55,14.76-47.16-21.62-46.47-6.67s48.1,71.54,48.94,86.2c.88,15.32-44.76-10.54-43.73,3.78,1.14,15.77,38.09,26.14,39.42,39.91,1.63,16.8-31.26,42.17-29.34,54.63C350.3,692.91,436.11,680.11,439.11,652.13Z"/><polygon class="cls-6" points="-22 678 787 678 787 780 -13 780 -22 678"/><circle class="cls-7" cx="126.5" cy="250.5" r="61.5"/><circle class="cls-7" cx="342.5" cy="307.5" r="37.5"/><circle class="cls-7" cx="719.5" cy="122.5" r="48.5"/><circle class="cls-7" cx="513.5" cy="230.5" r="37.5"/><circle class="cls-7" cx="390.5" cy="25.5" r="85.5"/><circle class="cls-7" cx="620.5" cy="342.5" r="22.5"/><circle class="cls-7" cx="76.5" cy="22.5" r="45.5"/><circle class="cls-7" cx="151.5" cy="395.5" r="22.5"/><circle class="cls-7" cx="225.5" cy="189.5" r="22.5"/><rect class="cls-8" x="213" y="407" width="366" height="108"/><path class="cls-9" d="M108,529c48-9,67.87-70.17,122-68,50,2,51,54,112,69Z"/><path class="cls-4" d="M213,555c44.72-9,92.43-119.17,142.86-117,46.58,2,66.31,105,123.14,120Z"/><path class="cls-9" d="M357,544.73C405,533.26,425,471,480,471c50.06,0,45,31,97,51Z"/><rect class="cls-8" x="105" y="515" width="366" height="162"/><rect class="cls-10" x="471" y="515" width="108" height="162"/><path class="cls-10" d="M579,407h34a54,54,0,0,1,54,54v0a54,54,0,0,1-54,54H579a0,0,0,0,1,0,0V407A0,0,0,0,1,579,407Z"/><line class="cls-11" x1="105" y1="629" x2="471" y2="629"/><line class="cls-11" x1="105" y1="565" x2="471" y2="565"/><path class="cls-4" d="M80.06,677.6c23.63-4.2,48.85-55.6,75.51-54.59C180.19,624,191,670,221,677Z"/><path class="cls-9" d="M42,676.53c25.37-4.2,35.87-32.73,64.48-31.72,26.43.93,27,25.19,59.2,32.19Z"/><polygon class="cls-12" points="97.17 658.17 100 653 102.83 658.17 108 661 102.83 663.83 100 669 97.17 663.83 92 661 97.17 658.17"/><polygon class="cls-12" points="155.17 634.17 158 629 160.83 634.17 166 637 160.83 639.83 158 645 155.17 639.83 150 637 155.17 634.17"/><polygon class="cls-12" points="193.17 492.17 196 487 198.83 492.17 204 495 198.83 497.83 196 503 193.17 497.83 188 495 193.17 492.17"/><polygon class="cls-12" points="495.17 495.17 498 490 500.83 495.17 506 498 500.83 500.83 498 506 495.17 500.83 490 498 495.17 495.17"/><polygon class="cls-12" points="343.76 474.76 348 467 352.24 474.76 360 479 352.24 483.24 348 491 343.76 483.24 336 479 343.76 474.76"/><polygon class="cls-12" points="365.71 353.21 372.25 341.25 378.79 353.21 390.75 359.75 378.79 366.29 372.25 378.25 365.71 366.29 353.75 359.75 365.71 353.21"/><polygon class="cls-12" points="426.76 436.76 431 429 435.24 436.76 443 441 435.24 445.24 431 453 426.76 445.24 419 441 426.76 436.76"/><polygon class="cls-12" points="499.49 389.49 505.5 378.5 511.51 389.49 522.5 395.5 511.51 401.51 505.5 412.5 499.49 401.51 488.5 395.5 499.49 389.49"/><polygon class="cls-12" points="268.36 413.86 272.25 406.75 276.14 413.86 283.25 417.75 276.14 421.64 272.25 428.75 268.36 421.64 261.25 417.75 268.36 413.86"/><polygon class="cls-12" points="545.79 455.29 549.5 448.5 553.21 455.29 560 459 553.21 462.71 549.5 469.5 545.79 462.71 539 459 545.79 455.29"/><rect class="cls-10" x="255" y="554" width="66" height="84"/><polygon class="cls-5" points="288 592.29 274.89 615 301.11 615 288 592.29"/><circle class="cls-5" cx="288.15" cy="587.6" r="10.6"/><rect class="cls-13" x="560" y="613" width="75" height="9"/><rect class="cls-12" x="601" y="613" width="15" height="9"/><rect class="cls-13" x="560" y="627" width="75" height="9"/><rect class="cls-12" x="601" y="627" width="15" height="9"/><rect class="cls-13" x="560" y="641" width="75" height="9"/><rect class="cls-12" x="601" y="641" width="15" height="9"/><rect class="cls-13" x="560" y="655" width="75" height="9"/><rect class="cls-12" x="601" y="655" width="15" height="9"/><rect class="cls-13" x="560" y="669" width="75" height="9"/><rect class="cls-12" x="601" y="669" width="15" height="9"/><rect class="cls-13" x="644" y="641" width="75" height="9"/><rect class="cls-12" x="685" y="641" width="15" height="9"/><rect class="cls-13" x="644" y="655" width="75" height="9"/><rect class="cls-12" x="685" y="655" width="15" height="9"/><rect class="cls-13" x="644" y="669" width="75" height="9"/><rect class="cls-12" x="685" y="669" width="15" height="9"/><path class="cls-8" d="M461.81,251s-30.58,25-68.31,25-68.31-25-68.31-25,30.58-25,68.31-25S461.81,251,461.81,251Z"/><path class="cls-8" d="M346.31,250S324.68,278,298,278V222C324.68,222,346.31,250,346.31,250Z"/><circle class="cls-10" cx="429" cy="250" r="7"/><path class="cls-10" d="M287.81,161S272,174,252.43,174,217.06,161,217.06,161s15.84-13,35.37-13S287.81,161,287.81,161Z"/><path class="cls-10" d="M228,160.5S216.8,175,203,175V146C216.8,146,228,160.5,228,160.5Z"/><circle class="cls-10" cx="270.82" cy="160.5" r="3.62"/><path class="cls-10" d="M161.81,348S146,361,126.43,361,91.06,348,91.06,348s15.84-12.95,35.37-12.95S161.81,348,161.81,348Z"/><path class="cls-10" d="M102,347.5S90.8,362,77,362V333C90.8,333,102,347.5,102,347.5Z"/><circle class="cls-10" cx="144.82" cy="347.5" r="3.62"/><path class="cls-10" d="M548,189S563.82,202,583.35,202,618.73,189,618.73,189s-15.84-13-35.38-13S548,189,548,189Z"/><path class="cls-10" d="M607.79,188.5s11.2,14.5,25,14.5V174C619,174,607.79,188.5,607.79,188.5Z"/><circle class="cls-10" cx="564.97" cy="188.5" r="3.62"/><path class="cls-8" d="M634.17,330.9s12.1,9.89,27,9.89,27-9.89,27-9.89-12.1-9.9-27-9.9S634.17,330.9,634.17,330.9Z"/><path class="cls-8" d="M679.88,330.5s8.56,11.08,19.12,11.08V319.42C688.44,319.42,679.88,330.5,679.88,330.5Z"/><path class="cls-8" d="M203,74.25s-23,18.81-51.38,18.81-51.38-18.81-51.38-18.81,23-18.8,51.38-18.8S203,74.25,203,74.25Z"/><path class="cls-8" d="M116.12,73.5S99.86,94.56,79.79,94.56V52.44C99.86,52.44,116.12,73.5,116.12,73.5Z"/><circle class="cls-10" cx="178.32" cy="73.5" r="5.27"/><path class="cls-8" d="M498,81.57s32.63,26.67,72.89,26.67,72.89-26.67,72.89-26.67-32.64-26.68-72.89-26.68S498,81.57,498,81.57Z"/><path class="cls-8" d="M621.24,80.5s23.08,29.88,51.55,29.88V50.62C644.32,50.62,621.24,80.5,621.24,80.5Z"/><circle class="cls-10" cx="533.01" cy="80.5" r="7.47"/></g></g></g></svg>