<svg id="Layer_1" data-name="Layer 1" xmlns="http://www.w3.org/2000/svg" xmlns:xlink="http://www.w3.org/1999/xlink" viewBox="0 0 732 732"><defs><style>.cls-1{fill:#f7941e;}.cls-2{clip-path:url(#clip-path);}.cls-3{fill:#64610e;}.cls-4{fill:#faac00;}.cls-5{fill:#e44800;}.cls-6{fill:#6395ab;}.cls-7{fill:#ffebd4;}.cls-8{fill:#8f8c35;}.cls-9{fill:#237eba;}.cls-10{fill:#603813;}.cls-11{fill:none;}</style><clipPath id="clip-path"><rect class="cls-1" width="732" height="732" rx="50"/></clipPath></defs><title>home</title><rect class="cls-1" width="732" height="732" rx="50"/><g class="cls-2"><path class="cls-3" d="M364.78,0,329.89,98.29H273a21.5,21.5,0,0,0-21.48,21.48V138A6.49,6.49,0,0,1,245,144.5H105.92A19.44,19.44,0,0,1,86.5,125.08V78.92A34.46,34.46,0,0,0,52.08,44.5H.3A50,50,0,0,1,50,0Z"/><path class="cls-3" d="M732,50V76.5H602L639.82,0H682A50,50,0,0,1,732,50Z"/><polygon class="cls-4" points="639.82 0 601.96 76.5 358.84 76.5 385.99 0 639.82 0"/><path class="cls-1" d="M540,91.5,508.18,200.4q-2.74,3.57-4.64,10.6H311.09L353.51,91.5Z"/><path class="cls-3" d="M686,434.39v7.35c0,6.34-5.75,11.31-11.8,13.26H581.59v-.42q0-15.31-10.65-15.32H560.87L573.25,376h18.8l-4,20.43a78.53,78.53,0,0,0-1.76,14.63q0,10.8,4.24,17.06a13.29,13.29,0,0,0,11.61,6.27h13.34a11.71,11.71,0,0,0,10.45-5.92,22.25,22.25,0,0,0,2.64-6.47h10.57q5.57,12.39,14.34,12.39h9.57q5.87,0,12.16-11.67,2.6,11.67,9.81,11.67Z"/><path class="cls-5" d="M500.6,225,467.51,394a148.18,148.18,0,0,0-2.3,15h-2.66q-.92-12.57-10.48-12.57h-9.22l12.08-62,.92-4.7a61.79,61.79,0,0,0,1.34-11.66,26.33,26.33,0,0,0-2.47-12q-2.48-4.87-6.17-4.88-6.8,0-11,13.06-4.95-15.5-15.68-15.5-8.53,0-16,9.78l-18.19-1a9.17,9.17,0,0,0-9.28-6.36h-2.6l3.11-13.75a84.2,84.2,0,0,0,2.18-16.36L389.27,225Z"/><path class="cls-6" d="M109.4,334.14,99.08,386.86Q90.2,432.29,82.6,450.41T65,468.51q-8.64,0-13.55-11.4t-4.91-31.25a126.71,126.71,0,0,1,5-35.69q5-17.07,13.47-27.69a44.52,44.52,0,0,1,26.92-16c5-.93,8.64-3.14,10.83-6.62a19.74,19.74,0,0,0,2.45-6.53Z"/><path class="cls-4" d="M324.56,113.29,289.88,211h-60.5q-.72-14.26-11.6-14.26H200.59l-3.44.17q-8.22,0-11.5,16.37l-1.34,7-22.73,116-4.36-116q-.93-25.94-11.41-25.94-9.06,0-13.51,22.81l-22.9,117-4.17-.82a44.79,44.79,0,0,0,.82-9.14q0-10.26-4.11-16.28a12.86,12.86,0,0,0-11.16-6q-13.34,0-27.3,12.18c-.72.62-1.42,1.26-2.12,1.92H0V59.5H52.08A19.44,19.44,0,0,1,71.5,78.92v46.16a34.46,34.46,0,0,0,34.42,34.42H245A21.51,21.51,0,0,0,266.5,138V119.77a6.49,6.49,0,0,1,6.48-6.48Z"/><path class="cls-1" d="M215.57,429.25,151,593.5H0V326H52.3a106.24,106.24,0,0,0-12,19.94Q23,382.69,23,431.78q0,36.74,11,59.71t28.56,23q16.53,0,29.28-20.55a132.81,132.81,0,0,0,14.3-33.69q5.49-19.41,16.06-73.38L139.69,297l3.85,105q.77,19.85,3.53,27.33t9.31,7.49q8.22,0,11.83-16.89l1.59-8.18L180.11,359h24.13a166.2,166.2,0,0,0-1.3,21.24q0,31.35,11.24,47.36A12.14,12.14,0,0,0,215.57,429.25Z"/><path class="cls-3" d="M542.42,425.68l-2.6,13.58h-18q-15,0-23.9,10.28-7.22,8.35-11.37,22.54a107.65,107.65,0,0,0-4.15,30.38,121.39,121.39,0,0,0,1,16H380c-2.49,0-61.13.52-80.87,45.49C285.63,594.75,272,594.52,227,593.76c-7.14-.12-15.23-.26-24-.26H161.75l62.83-159.86a39,39,0,0,0,8,.75q8.38,0,13-2.7a18.07,18.07,0,0,0,3.49-2.69h24.75q2.56,5.38,8.88,5.39h17.54q11.73,0,19.63-14.71T327.84,383a124,124,0,0,0-7.3-40.74l-4.78-13.76a68.88,68.88,0,0,1-3.94-22.45q0-3,.33-6.79.51-5.24.51-6.79A22.31,22.31,0,0,0,310.31,282q-2.35-4.44-5.62-4.44-6.13,0-10.24,16.89l-11.15,47a72.56,72.56,0,0,0-2.44,16.19,23.22,23.22,0,0,0,2.73,11.4c1.82,3.31,3.87,5,6.17,5q6.8,0,10.48-17.24l1.6-8,3.69,15a63.86,63.86,0,0,1,2.18,15.15q0,17.59-11.66,17.58h-9.73q-6.63,0-10.4,6a22.33,22.33,0,0,0-2.69,6.56h-12.6a133.52,133.52,0,0,0,4.72-16.48,169.6,169.6,0,0,0,4.11-37q0-24.72-7.85-40.74t-20-16q-15.69,0-27.18,24.2a113,113,0,0,0-8.54,26H182.07l21.62-110.65h10.23q7.31,0,11.41-6.62a24.09,24.09,0,0,0,2.78-6.73H369l-8.49,47.92c0,.25-.11.51-.16.77l-.92,4.7-4.44,22.81h-3.86a11.68,11.68,0,0,0-10.45,6q-3.74,6-3.73,16.8,0,15.15,9.39,15.15h1.26l-9.9,50.66-1.59,7.66a75.68,75.68,0,0,0-1.51,14.28q0,10.44,3.73,16.53t10.11,6.1h15a11.71,11.71,0,0,0,10.44-5.92q3.73-5.93,3.73-16.54,0-15.49-10.65-15.5h-9.39l11.24-57.27h6.12a11.67,11.67,0,0,0,10.25-5.7l8.28.45q-7.8,23-7.79,51,0,22.13,5.66,35.78t14.89,13.67h9.56q5.88,0,12.17-11.67,2.59,11.67,9.81,11.67h10.74a11.55,11.55,0,0,0,10-5.39h10.66q3.56,5.4,9.38,5.39h15.1A11.6,11.6,0,0,0,503.69,429h20.53a12,12,0,0,0,8.22,3.3Q537.14,432.3,542.42,425.68Z"/><path class="cls-6" d="M731.79,686.5A50,50,0,0,1,682,732H400.5V689.08Z"/><path class="cls-4" d="M400.5,689.08V732H50A50,50,0,0,1,0,682V608.5H203c2.86,0,5.66,0,8.38,0l.06,39a42.73,42.73,0,0,0,42.73,42.66h.34Z"/><path class="cls-1" d="M613,477V672.43l-358.61,2.79h-.22a27.74,27.74,0,0,1-27.73-27.68l-.06-38.8h.38c5.92.11,11.46.2,16.66.2,34.86,0,54.2-4.21,69.45-38.94C328.65,534.07,379.5,533.5,380,533.5H486.67A65.48,65.48,0,0,0,491,543.9q8.6,16.53,21.51,16.54,24.66,0,37.5-65.29l3.52-17.93h13.93a12.67,12.67,0,0,0,2.42-.22Z"/><path class="cls-1" d="M657.5,91.5v62.77a6.23,6.23,0,0,1-6.23,6.23h-14A21.14,21.14,0,0,0,616.07,181l-1.53,39H522.67c.06-.39.1-.77.14-1.15a52.67,52.67,0,0,0,.31-5.57,29.08,29.08,0,0,0-.9-7.47L555.62,91.5Z"/><path class="cls-5" d="M732,91.5V679l-.06-7.5L623,672.35V477h54.12l1.35-.34c17.39-4.45,29.53-18.8,29.53-34.92V424.58a36.92,36.92,0,0,0,1.94-12.82q0-15.33-10.57-15.33h-9.23l12.08-62,.92-4.7a61.08,61.08,0,0,0,1.35-11.66,26.33,26.33,0,0,0-2.48-12c-1.65-3.25-3.7-4.88-6.17-4.88q-6.78,0-11,13.06-5-15.5-15.69-15.5-14,0-25.12,26.38t-11.12,59.8a131.84,131.84,0,0,0,1,17.06h-6q-2.54-5.56-8.87-5.57h-9.48l12-61.63q2.26-11.49,2.26-17.06a24.72,24.72,0,0,0-2.56-11.66q-2.55-4.87-6.08-4.88-8.55,0-12.41,19.67l-.93,4.88L594,366h-18.8l6.72-34.33q2.18-11.15,2.18-16.54a25.1,25.1,0,0,0-2.47-11.58q-2.48-4.79-6-4.79-7.21,0-11.16,13.93-5.12-13.92-15.43-13.93-14.1,0-25.42,26.82T512.3,385.81A105.82,105.82,0,0,0,514.56,409h-6.89q-1-12.57-10.55-12.57h-8.81l32.63-166.61.93-4.7c.34-1.78.61-3.49.8-5.12h91.87l-1.21,31c-.31.53-.62,1.09-.91,1.7q-3.39,7.05-3.4,17.15t3.4,17.15q3.41,7,8.26,7.05T629,287q3.39-7,3.39-17.15T629,252.71c-.2-.43-.41-.83-.63-1.22l2.74-70a6.21,6.21,0,0,1,6.23-6h14a21.25,21.25,0,0,0,21.23-21.23V91.5Z"/><path class="cls-6" d="M131.34,681.5H-30v-13H131.34a189.82,189.82,0,0,0,80.39-18l44.51-21a200.37,200.37,0,0,1,80.46-19.16l224.23-6.07a188.38,188.38,0,0,0,154.22-87.58l34.36-54.22,11,7L726.13,523.7a201.32,201.32,0,0,1-164.84,93.61l-224.24,6.08a187.44,187.44,0,0,0-75.27,17.92l-44.51,21A202.93,202.93,0,0,1,131.34,681.5Z"/><path class="cls-7" d="M203.69,238.35,169.8,411.76l-1.59,8.18q-3.61,16.89-11.83,16.89-6.54,0-9.31-7.49T143.54,402l-3.85-105-17.54,89.84q-10.56,54-16.06,73.38a132.81,132.81,0,0,1-14.3,33.69Q79,514.48,62.51,514.48q-17.61,0-28.56-23T23,431.78q0-49.09,17.28-85.84,9.22-19.67,23.2-31.86t27.3-12.18a12.86,12.86,0,0,1,11.16,6q4.11,6,4.11,16.28,0,10.45-3.27,15.67c-2.19,3.48-5.79,5.69-10.83,6.62a44.52,44.52,0,0,0-26.92,16q-8.47,10.63-13.47,27.69a126.71,126.71,0,0,0-5,35.69q0,19.84,4.91,31.25T65,468.51q10,0,17.57-18.1t16.48-63.55L132.3,217.11q4.45-22.8,13.51-22.81,10.49,0,11.41,25.94l4.36,116,22.73-116,1.34-7q3.28-16.36,11.5-16.37l3.44-.17h17.19q11.67,0,11.66,16.37,0,12-4.11,18.62t-11.41,6.62Z"/><path class="cls-7" d="M261.61,314.78q-7.85-16-20-16-15.69,0-27.18,24.2t-11.49,57.28q0,31.35,11.24,47.36,4.77,6.78,18.45,6.79,8.38,0,13-2.7t9-9.84q6.54-11,10.66-29.33a169.6,169.6,0,0,0,4.11-37Q269.46,330.8,261.61,314.78ZM243.87,388.6q-3.44,8.19-9.81,8.18-10.91,0-10.91-20.19a74.43,74.43,0,0,1,5.12-28q5.11-12.71,11.32-12.71,4.46,0,7.22,6.09t2.77,16Q249.58,375.2,243.87,388.6Z"/><path class="cls-6" d="M249.58,358q0,17.24-5.71,30.64-3.44,8.19-9.81,8.18-10.91,0-10.91-20.19a74.43,74.43,0,0,1,5.12-28q5.11-12.71,11.32-12.71,4.46,0,7.22,6.09T249.58,358Z"/><path class="cls-7" d="M301.84,348.73l-1.6,8Q296.55,374,289.76,374c-2.3,0-4.35-1.66-6.17-5a23.22,23.22,0,0,1-2.73-11.4,72.56,72.56,0,0,1,2.44-16.19l11.15-47q4.11-16.89,10.24-16.89,3.27,0,5.62,4.44a22.31,22.31,0,0,1,2.35,10.54q0,1.56-.51,6.79-.33,3.82-.33,6.79a68.88,68.88,0,0,0,3.94,22.45l4.78,13.76a124,124,0,0,1,7.3,40.74q0,21.93-7.88,36.65t-19.63,14.71H282.79q-10.65,0-10.65-15.32,0-10.62,3.78-16.63t10.4-6h9.73q11.65,0,11.66-17.58a63.86,63.86,0,0,0-2.18-15.15Z"/><path class="cls-7" d="M375.82,301.2h2.6q10.65,0,10.66,15.5,0,10.62-3.78,16.54a11.74,11.74,0,0,1-10.4,5.92h-6.12l-11.24,57.27h9.39q10.65,0,10.65,15.5,0,10.62-3.73,16.54a11.71,11.71,0,0,1-10.44,5.92h-15q-6.37,0-10.11-6.1t-3.73-16.53a75.68,75.68,0,0,1,1.51-14.28l1.59-7.66,9.9-50.66h-1.26q-9.39,0-9.39-15.15,0-10.8,3.73-16.8a11.68,11.68,0,0,1,10.45-6h3.86l4.44-22.81.92-4.7q3.94-19.32,12.42-19.32c2.29,0,4.26,1.59,5.91,4.79a24.93,24.93,0,0,1,2.48,11.57,82.4,82.4,0,0,1-2.18,16.72Z"/><path class="cls-7" d="M452.07,396.43h-9.22l12.08-62,.92-4.7a61.79,61.79,0,0,0,1.34-11.66,26.33,26.33,0,0,0-2.47-12q-2.48-4.87-6.17-4.88-6.8,0-11,13.06-4.95-15.5-15.68-15.5-14,0-25.13,26.38t-11.11,59.8q0,22.13,5.66,35.78t14.89,13.67h9.56q5.88,0,12.17-11.67,2.59,11.67,9.81,11.67h10.74q6.61,0,10.4-6t3.77-16.62Q462.64,396.43,452.07,396.43Zm-22.56-40.91-5.87,30.12q-2.26,11.67-9.15,11.66H412.4q-7,0-7-17.93a83.4,83.4,0,0,1,5.79-30.64q5.79-14.79,11.91-14.8,3.11,0,5.33,3.48a14.92,14.92,0,0,1,2.22,8.19A52.71,52.71,0,0,1,429.51,355.52Z"/><path class="cls-6" d="M430.68,345.6a52.71,52.71,0,0,1-1.17,9.92l-5.87,30.12q-2.26,11.67-9.15,11.66H412.4q-7,0-7-17.93a83.4,83.4,0,0,1,5.79-30.64q5.79-14.79,11.91-14.8,3.11,0,5.33,3.48A14.92,14.92,0,0,1,430.68,345.6Z"/><path class="cls-7" d="M488.31,396.43h8.81q10.65,0,10.65,15.5,0,10.62-3.73,16.54a11.71,11.71,0,0,1-10.44,5.92H478.5q-6.21,0-9.82-6.1t-3.6-16.36q0-5.4,2.43-17.93L501.4,220.94l.92-4.7q3.85-19.5,12.33-19.5c2.35,0,4.35,1.63,6,4.87a25.54,25.54,0,0,1,2.48,11.67,64,64,0,0,1-1.26,11.84l-.93,4.7Z"/><path class="cls-7" d="M584.11,315.13a25.1,25.1,0,0,0-2.47-11.58q-2.48-4.79-6-4.79-7.21,0-11.16,13.93-5.12-13.92-15.43-13.93-14.1,0-25.42,26.82T512.3,385.81q0,20.73,5.58,33.61t14.56,12.88q4.69,0,10-6.62l-2.6,13.58h-18q-15,0-23.9,10.28-7.22,8.35-11.37,22.54a107.65,107.65,0,0,0-4.15,30.38q0,24.9,8.6,41.44t21.51,16.54q24.66,0,37.5-65.29l3.52-17.93h13.93q6.62,0,10.4-6t3.77-16.63q0-15.31-10.65-15.32H560.87l21.06-107.59Q584.11,320.52,584.11,315.13ZM522.45,512.21q-4.53,9.93-10.57,9.93-4.19,0-7-5.75A31.08,31.08,0,0,1,502,502.46q0-12,4.15-18.63a13.08,13.08,0,0,1,11.7-6.61h14.51Q527,502.29,522.45,512.21Zm34.31-159.65L550,387q-1.85,9.24-9,9.23-8.22,0-8.22-18.28a84.12,84.12,0,0,1,5.5-30.38q5.49-14.37,11.53-14.36,3.36,0,5.58,3.48a15.88,15.88,0,0,1,2.22,8.7A39.2,39.2,0,0,1,556.76,352.56Z"/><path class="cls-6" d="M557.6,345.42a39.2,39.2,0,0,1-.84,7.14L550,387q-1.85,9.24-9,9.23-8.22,0-8.22-18.28a84.12,84.12,0,0,1,5.5-30.38q5.49-14.37,11.53-14.36,3.36,0,5.58,3.48A15.88,15.88,0,0,1,557.6,345.42Z"/><path class="cls-6" d="M532.35,477.22q-5.37,25.06-9.9,35t-10.57,9.93q-4.19,0-7-5.75A31.08,31.08,0,0,1,502,502.46q0-12,4.15-18.63a13.08,13.08,0,0,1,11.7-6.61Z"/><path class="cls-7" d="M609.61,396.43h9.48q10.57,0,10.57,15.5,0,10.62-3.73,16.54a11.71,11.71,0,0,1-10.45,5.92H602.14a13.29,13.29,0,0,1-11.61-6.27q-4.24-6.27-4.24-17.06a78.53,78.53,0,0,1,1.76-14.63l13.84-70.68.93-4.88q3.85-19.67,12.41-19.67,3.53,0,6.08,4.88a24.72,24.72,0,0,1,2.56,11.66q0,5.58-2.26,17.06Zm11.07-150.77q4.88,0,8.27,7.05t3.39,17.15Q632.34,280,629,287t-8.27,7.05q-4.86,0-8.26-7.05T609,269.86q0-10.1,3.4-17.15T620.68,245.66Z"/><path class="cls-7" d="M699.37,396.43h-9.23l12.08-62,.92-4.7a61.08,61.08,0,0,0,1.35-11.66,26.33,26.33,0,0,0-2.48-12c-1.65-3.25-3.7-4.88-6.17-4.88q-6.78,0-11,13.06-5-15.5-15.69-15.5-14,0-25.12,26.38t-11.12,59.8q0,22.13,5.66,35.78t14.89,13.67h9.57q5.87,0,12.16-11.67,2.6,11.67,9.81,11.67h10.74q6.63,0,10.4-6t3.78-16.62Q709.94,396.43,699.37,396.43ZM676.8,355.52l-5.87,30.12q-2.26,11.67-9.14,11.66h-2.1q-7,0-7-17.93a83.4,83.4,0,0,1,5.79-30.64q5.79-14.79,11.91-14.8,3.11,0,5.32,3.48A14.84,14.84,0,0,1,678,345.6,52,52,0,0,1,676.8,355.52Z"/><path class="cls-6" d="M678,345.6a52,52,0,0,1-1.18,9.92l-5.87,30.12q-2.26,11.67-9.14,11.66h-2.1q-7,0-7-17.93a83.4,83.4,0,0,1,5.79-30.64q5.79-14.79,11.91-14.8,3.11,0,5.32,3.48A14.84,14.84,0,0,1,678,345.6Z"/><path class="cls-7" d="M514,225H213a7,7,0,0,1,0-14H514a7,7,0,0,1,0,14Z"/><rect class="cls-7" x="332.88" y="249.5" width="80.23" height="20" transform="translate(52.39 581.49) rotate(-79.95)"/><rect class="cls-7" x="216.44" y="92.5" width="245.12" height="20" transform="translate(129 387.68) rotate(-70.46)"/><rect class="cls-7" x="352" y="76.5" width="396" height="15"/><rect class="cls-7" x="229" y="409" width="60" height="20"/><rect class="cls-7" x="382.5" y="302.47" width="26" height="37.05" transform="translate(53.62 698.6) rotate(-86.91)"/><rect class="cls-7" x="446" y="409" width="86" height="20"/><path class="cls-7" d="M677.13,477H568V455H674.2c6-1.95,11.8-6.92,11.8-13.26V419h22v22.74c0,16.12-12.14,30.47-29.53,34.92Z"/><rect class="cls-7" x="618" y="402" width="28" height="20"/><path class="cls-7" d="M243.42,609c-5.2,0-10.74-.09-16.66-.2-7.09-.11-15.11-.25-23.76-.25H-17v-15H203c8.78,0,16.87.14,24,.26,45,.76,58.62,1,72.12-29.77,19.74-45,78.38-45.49,80.87-45.49H494v15H380c-.5,0-51.35.57-67.13,36.51C297.62,604.74,278.28,609,243.42,609Z"/><path class="cls-7" d="M254.17,690.22a42.73,42.73,0,0,1-42.73-42.66l-.07-46.1,15,0,.07,46.1a27.74,27.74,0,0,0,27.73,27.68h.22l477.55-3.72.12,15-477.55,3.72Z"/><path class="cls-7" d="M245,159.5H105.92A34.46,34.46,0,0,1,71.5,125.08V78.92A19.44,19.44,0,0,0,52.08,59.5H-22v-15H52.08A34.46,34.46,0,0,1,86.5,78.92v46.16a19.44,19.44,0,0,0,19.42,19.42H245A6.49,6.49,0,0,0,251.5,138V119.77A21.5,21.5,0,0,1,273,98.29h65v15H273a6.49,6.49,0,0,0-6.48,6.48V138A21.51,21.51,0,0,1,245,159.5Z"/><path class="cls-7" d="M620.5,267h-.29a7.48,7.48,0,0,1-7.2-7.78L616.07,181a21.14,21.14,0,0,1,21.22-20.49h14a6.23,6.23,0,0,0,6.23-6.23V89a7.5,7.5,0,0,1,15,0v65.27a21.25,21.25,0,0,1-21.23,21.23h-14a6.21,6.21,0,0,0-6.23,6L628,259.79A7.5,7.5,0,0,1,620.5,267Z"/><rect class="cls-7" x="174" y="349" width="38" height="10"/><rect class="cls-7" x="96.06" y="505.5" width="185.88" height="10" transform="translate(-355.25 499.64) rotate(-68.54)"/><rect class="cls-7" x="565" y="366" width="33" height="10"/><rect class="cls-7" x="-30" y="316" width="106" height="10"/><rect class="cls-7" x="613" y="466" width="10" height="213.89"/><rect class="cls-7" x="468.96" y="137.25" width="126.58" height="15" transform="translate(244.03 615.04) rotate(-73.71)"/><rect class="cls-7" x="372.48" y="703.5" width="59.03" height="18" transform="translate(-323.7 1090.15) rotate(-88.06)"/><rect class="cls-7" x="572.11" y="28" width="103.79" height="18" transform="translate(325.96 586.47) rotate(-64.92)"/><rect class="cls-7" x="517" y="211" width="109" height="18"/><path class="cls-8" d="M168.5,22.63l-8.35,25.74A5.07,5.07,0,0,0,165,55H177a5.07,5.07,0,0,0,4.82-6.63L173.5,22.63A2.63,2.63,0,0,0,168.5,22.63Z"/><path class="cls-8" d="M182.18,34.71l-7,21.66A5.07,5.07,0,0,0,180,63h9.41a5.06,5.06,0,0,0,4.82-6.63l-7-21.66A2.63,2.63,0,0,0,182.18,34.71Z"/><path class="cls-8" d="M261.18,512.71l-7,21.66A5.07,5.07,0,0,0,259,541h9.41a5.06,5.06,0,0,0,4.82-6.63l-7-21.66A2.63,2.63,0,0,0,261.18,512.71Z"/><path class="cls-8" d="M269.18,246.71l-7,21.66A5.07,5.07,0,0,0,267,275h9.41a5.06,5.06,0,0,0,4.82-6.63l-7-21.66A2.63,2.63,0,0,0,269.18,246.71Z"/><path class="cls-8" d="M303.18,51.71l-7,21.66A5.07,5.07,0,0,0,301,80h9.41a5.06,5.06,0,0,0,4.82-6.63l-7-21.66A2.63,2.63,0,0,0,303.18,51.71Z"/><path class="cls-8" d="M386.18,470.71l-7,21.66A5.07,5.07,0,0,0,384,499h9.41a5.06,5.06,0,0,0,4.82-6.63l-7-21.66A2.63,2.63,0,0,0,386.18,470.71Z"/><path class="cls-8" d="M213.5,89.63l-8.35,25.74A5.07,5.07,0,0,0,210,122H222a5.07,5.07,0,0,0,4.82-6.63L218.5,89.63A2.63,2.63,0,0,0,213.5,89.63Z"/><path class="cls-8" d="M105,15,95.15,45.37A5.07,5.07,0,0,0,100,52H115a5.07,5.07,0,0,0,4.82-6.63L110,15A2.63,2.63,0,0,0,105,15Z"/><path class="cls-8" d="M247,512l-9.85,30.36A5.07,5.07,0,0,0,242,549H257a5.07,5.07,0,0,0,4.82-6.63L252,512A2.63,2.63,0,0,0,247,512Z"/><path class="cls-8" d="M134.5,81.63l-8.35,25.74A5.07,5.07,0,0,0,131,114H143a5.07,5.07,0,0,0,4.82-6.63L139.5,81.63A2.63,2.63,0,0,0,134.5,81.63Z"/><path class="cls-8" d="M122.09,92.71l-4.75,14.66a5.07,5.07,0,0,0,4.82,6.63H127a5.07,5.07,0,0,0,4.82-6.63l-4.76-14.66A2.63,2.63,0,0,0,122.09,92.71Z"/><path class="cls-8" d="M313.09,461.71l-4.75,14.66a5.07,5.07,0,0,0,4.82,6.63H318a5.07,5.07,0,0,0,4.82-6.63l-4.76-14.66A2.63,2.63,0,0,0,313.09,461.71Z"/><path class="cls-8" d="M202.09,100.71l-4.75,14.66a5.07,5.07,0,0,0,4.82,6.63H207a5.07,5.07,0,0,0,4.82-6.63l-4.76-14.66A2.63,2.63,0,0,0,202.09,100.71Z"/><path class="cls-8" d="M276.09,62.71l-4.75,14.66A5.07,5.07,0,0,0,276.16,84H281a5.07,5.07,0,0,0,4.82-6.63l-4.76-14.66A2.63,2.63,0,0,0,276.09,62.71Z"/><path class="cls-8" d="M254.09,259.71l-4.75,14.66a5.07,5.07,0,0,0,4.82,6.63H259a5.07,5.07,0,0,0,4.82-6.63l-4.76-14.66A2.63,2.63,0,0,0,254.09,259.71Z"/><path class="cls-8" d="M675.09,38.71l-4.75,14.66A5.07,5.07,0,0,0,675.16,60H680a5.07,5.07,0,0,0,4.82-6.63l-4.76-14.66A2.63,2.63,0,0,0,675.09,38.71Z"/><path class="cls-8" d="M290.5,44.63l-8.35,25.74A5.07,5.07,0,0,0,287,77H299a5.07,5.07,0,0,0,4.82-6.63L295.5,44.63A2.63,2.63,0,0,0,290.5,44.63Z"/><path class="cls-8" d="M398.5,456.63l-8.35,25.74A5.07,5.07,0,0,0,395,489H407a5.07,5.07,0,0,0,4.82-6.63l-8.35-25.74A2.63,2.63,0,0,0,398.5,456.63Z"/><path class="cls-8" d="M707.5,30.63l-8.35,25.74A5.07,5.07,0,0,0,704,63H716a5.07,5.07,0,0,0,4.82-6.63L712.5,30.63A2.63,2.63,0,0,0,707.5,30.63Z"/><path class="cls-8" d="M689.5,21.63l-8.35,25.74A5.07,5.07,0,0,0,686,54H698a5.07,5.07,0,0,0,4.82-6.63L694.5,21.63A2.63,2.63,0,0,0,689.5,21.63Z"/><path class="cls-9" d="M504.4,724.75a2,2,0,0,1,0,.25H479v-.25a12.7,12.7,0,0,1,25.4,0Z"/><path class="cls-9" d="M525.72,724.75V725H500.33a2,2,0,0,1,0-.25,12.7,12.7,0,0,1,25.4,0Z"/><path class="cls-9" d="M544,724.75V725H518.61a2,2,0,0,1,0-.25,12.7,12.7,0,0,1,25.4,0Z"/><path class="cls-9" d="M615.4,715.75a2,2,0,0,1,0,.25H590v-.25a12.7,12.7,0,1,1,25.4,0Z"/><path class="cls-9" d="M635.72,715.75V716H610.33a2,2,0,0,1,0-.25,12.7,12.7,0,1,1,25.4,0Z"/><path class="cls-9" d="M712,712.75V713H686.61a2,2,0,0,1,0-.25,12.7,12.7,0,0,1,25.4,0Z"/><circle class="cls-8" cx="572.5" cy="546.84" r="17.5"/><path class="cls-10" d="M571.19,582.5a2.41,2.41,0,0,1-2.41-2.41V547.72a2.41,2.41,0,1,1,4.81,0v32.37A2.4,2.4,0,0,1,571.19,582.5Z"/><path class="cls-10" d="M571.19,558.13a1.75,1.75,0,0,1-.83-3.29l8.75-4.72a1.75,1.75,0,1,1,1.66,3.08L572,557.92A1.68,1.68,0,0,1,571.19,558.13Z"/><circle class="cls-8" cx="402.5" cy="564.84" r="17.5"/><path class="cls-10" d="M403.81,600.5a2.41,2.41,0,0,0,2.41-2.41V565.72a2.41,2.41,0,1,0-4.81,0v32.37A2.4,2.4,0,0,0,403.81,600.5Z"/><path class="cls-10" d="M403.81,576.13a1.75,1.75,0,0,0,.83-3.29l-8.75-4.72a1.75,1.75,0,1,0-1.66,3.08l8.75,4.72A1.68,1.68,0,0,0,403.81,576.13Z"/><circle class="cls-8" cx="488.45" cy="622.77" r="14.45"/><circle class="cls-8" cx="489.41" cy="606.11" r="12.11"/><circle class="cls-8" cx="495.19" cy="595.38" r="8.81"/><path class="cls-10" d="M488.19,655.5c-1.1,0-2-1.61-2-3.61v-48.5c0-2,.89-3.61,2-3.61s2,1.62,2,3.61v48.5C490.17,653.89,489.28,655.5,488.19,655.5Z"/><path class="cls-10" d="M488.19,635.39a1.45,1.45,0,0,1-.69-2.72l7.22-3.9a1.45,1.45,0,0,1,1.38,2.54l-7.23,3.9A1.38,1.38,0,0,1,488.19,635.39Z"/><path class="cls-10" d="M480.76,613.74a1.44,1.44,0,0,0-.69,2.71l7.22,3.91a1.45,1.45,0,0,0,1.38-2.55l-7.22-3.9A1.44,1.44,0,0,0,480.76,613.74Z"/><circle class="cls-8" cx="333.89" cy="630.59" r="10.11"/><circle class="cls-8" cx="333.21" cy="618.93" r="8.48"/><circle class="cls-8" cx="329.17" cy="611.42" r="6.17"/><path class="cls-10" d="M334.07,653.5c.77,0,1.39-1.13,1.39-2.52V617c0-1.39-.62-2.52-1.39-2.52s-1.39,1.13-1.39,2.52v34C332.68,652.37,333.3,653.5,334.07,653.5Z"/><path class="cls-10" d="M334.07,639.42a1,1,0,0,0,.89-.53,1,1,0,0,0-.41-1.37l-5.06-2.73a1,1,0,1,0-1,1.78l5.06,2.73A1,1,0,0,0,334.07,639.42Z"/><path class="cls-10" d="M339.27,624.27a1,1,0,0,1,.89.53,1,1,0,0,1-.41,1.37l-5.06,2.73a1,1,0,1,1-1-1.78l5.06-2.73A1,1,0,0,1,339.27,624.27Z"/><circle class="cls-8" cx="38.07" cy="551.4" r="11.07"/><circle class="cls-8" cx="38.82" cy="538.64" r="9.29"/><circle class="cls-8" cx="43.25" cy="530.41" r="6.75"/><path class="cls-10" d="M37.88,576.5c-.84,0-1.53-1.24-1.53-2.76V536.55c0-1.53.69-2.77,1.53-2.77s1.52,1.24,1.52,2.77v37.19C39.4,575.26,38.72,576.5,37.88,576.5Z"/><path class="cls-10" d="M37.88,561.08a1.11,1.11,0,0,1-.53-2.08l5.54-3a1.11,1.11,0,1,1,1,2l-5.54,3A1.06,1.06,0,0,1,37.88,561.08Z"/><path class="cls-10" d="M32.18,544.48a1.11,1.11,0,0,0-.53,2.08l5.54,3a1.11,1.11,0,0,0,1.06-1.95l-5.54-3A1,1,0,0,0,32.18,544.48Z"/><circle class="cls-8" cx="397.75" cy="149.97" r="13.69"/><circle class="cls-8" cx="396.83" cy="134.18" r="11.48"/><circle class="cls-8" cx="391.35" cy="124.01" r="8.35"/><path class="cls-10" d="M398,181c1,0,1.88-1.53,1.88-3.42v-46c0-1.89-.84-3.42-1.88-3.42s-1.88,1.53-1.88,3.42v46C396.11,179.47,397,181,398,181Z"/><path class="cls-10" d="M398,161.93a1.37,1.37,0,0,0,.65-2.57l-6.85-3.7a1.37,1.37,0,0,0-1.3,2.41l6.85,3.7A1.39,1.39,0,0,0,398,161.93Z"/><path class="cls-10" d="M405,141.41a1.37,1.37,0,0,1,.65,2.57l-6.84,3.7a1.37,1.37,0,1,1-1.3-2.41l6.84-3.7A1.39,1.39,0,0,1,405,141.41Z"/><circle class="cls-8" cx="142.5" cy="506.84" r="17.5"/><path class="cls-10" d="M141.19,542.5a2.41,2.41,0,0,1-2.41-2.41V507.72a2.41,2.41,0,1,1,4.81,0v32.37A2.4,2.4,0,0,1,141.19,542.5Z"/><path class="cls-10" d="M141.19,518.13a1.75,1.75,0,0,1-.83-3.29l8.75-4.72a1.75,1.75,0,1,1,1.66,3.08L142,517.92A1.68,1.68,0,0,1,141.19,518.13Z"/><circle class="cls-8" cx="475.5" cy="155.84" r="17.5"/><path class="cls-10" d="M474.19,191.5a2.41,2.41,0,0,1-2.41-2.41V156.72a2.41,2.41,0,1,1,4.81,0v32.37A2.4,2.4,0,0,1,474.19,191.5Z"/><path class="cls-10" d="M474.19,167.13a1.75,1.75,0,0,1-.83-3.29l8.75-4.72a1.75,1.75,0,1,1,1.66,3.08L475,166.92A1.68,1.68,0,0,1,474.19,167.13Z"/><circle class="cls-8" cx="584.5" cy="128.84" r="17.5"/><path class="cls-10" d="M583.19,164.5a2.41,2.41,0,0,1-2.41-2.41V129.72a2.41,2.41,0,1,1,4.81,0v32.37A2.4,2.4,0,0,1,583.19,164.5Z"/><path class="cls-10" d="M583.19,140.13a1.75,1.75,0,0,1-.83-3.29l8.75-4.72a1.75,1.75,0,1,1,1.66,3.08L584,139.92A1.68,1.68,0,0,1,583.19,140.13Z"/><line class="cls-11" x1="559.99" y1="653.65" x2="554.14" y2="662"/><path class="cls-8" d="M561.67,654.83l-5,7.17h-5l6.68-9.52a2,2,0,0,1,3.35,2.35Z"/><line class="cls-11" x1="542.45" y1="662" x2="536.75" y2="651.98"/><path class="cls-8" d="M544.67,662h-4.44l-5.16-9.07a1.93,1.93,0,1,1,3.35-1.91Z"/><line class="cls-11" x1="549.2" y1="646.28" x2="547.68" y2="662"/><path class="cls-8" d="M551.47,646.5,550,662H545.4l1.54-15.94a2.28,2.28,0,1,1,4.53.44Z"/><line class="cls-11" x1="435.99" y1="635.65" x2="430.14" y2="644"/><path class="cls-8" d="M437.67,636.83l-5,7.17h-5l6.68-9.52a2,2,0,0,1,3.35,2.35Z"/><line class="cls-11" x1="418.45" y1="644" x2="412.75" y2="633.98"/><path class="cls-8" d="M420.67,644h-4.44l-5.16-9.07a1.93,1.93,0,1,1,3.35-1.91Z"/><line class="cls-11" x1="425.2" y1="628.28" x2="423.68" y2="644"/><path class="cls-8" d="M427.47,628.5,426,644H421.4l1.54-15.94a2.28,2.28,0,1,1,4.53.44Z"/><line class="cls-11" x1="125.99" y1="570.65" x2="120.14" y2="579"/><path class="cls-8" d="M127.67,571.83l-5,7.17h-5l6.68-9.52a2,2,0,0,1,3.35,2.35Z"/><line class="cls-11" x1="108.45" y1="579" x2="102.75" y2="568.98"/><path class="cls-8" d="M110.67,579h-4.44l-5.16-9.07a1.93,1.93,0,0,1,3.35-1.91Z"/><line class="cls-11" x1="115.2" y1="563.28" x2="113.68" y2="579"/><path class="cls-8" d="M117.47,563.5,116,579H111.4l1.54-15.94a2.28,2.28,0,1,1,4.53.44Z"/><line class="cls-11" x1="150.6" y1="460.12" x2="145.07" y2="468"/><path class="cls-8" d="M152.18,461.23,147.44,468h-4.73l6.3-9a1.94,1.94,0,1,1,3.17,2.22Z"/><line class="cls-11" x1="134.03" y1="468" x2="128.64" y2="458.53"/><path class="cls-8" d="M136.13,468h-4.2l-4.88-8.56a1.83,1.83,0,0,1,3.17-1.81Z"/><line class="cls-11" x1="140.41" y1="453.15" x2="138.96" y2="468"/><path class="cls-8" d="M142.55,453.36,141.12,468h-4.31l1.46-15.06a2.15,2.15,0,0,1,4.28.42Z"/><line class="cls-11" x1="572.6" y1="189.12" x2="567.07" y2="197"/><path class="cls-8" d="M574.18,190.23,569.44,197h-4.73l6.3-9a1.94,1.94,0,1,1,3.17,2.22Z"/><line class="cls-11" x1="556.03" y1="197" x2="550.64" y2="187.53"/><path class="cls-8" d="M558.13,197h-4.2l-4.88-8.56a1.83,1.83,0,0,1,3.17-1.81Z"/><line class="cls-11" x1="562.41" y1="182.15" x2="560.96" y2="197"/><path class="cls-8" d="M564.55,182.36,563.12,197h-4.31l1.46-15.06a2.15,2.15,0,0,1,4.28.42Z"/><line class="cls-11" x1="642.6" y1="126.12" x2="637.07" y2="134"/><path class="cls-8" d="M644.18,127.23,639.44,134h-4.73l6.3-9a1.94,1.94,0,1,1,3.17,2.22Z"/><line class="cls-11" x1="626.03" y1="134" x2="620.64" y2="124.53"/><path class="cls-8" d="M628.13,134h-4.2l-4.88-8.56a1.83,1.83,0,0,1,3.17-1.81Z"/><line class="cls-11" x1="632.41" y1="119.15" x2="630.96" y2="134"/><path class="cls-8" d="M634.55,119.36,633.12,134h-4.31l1.46-15.06a2.15,2.15,0,0,1,4.28.42Z"/><line class="cls-11" x1="454.6" y1="129.12" x2="449.07" y2="137"/><path class="cls-8" d="M456.18,130.23,451.44,137h-4.73l6.3-9a1.94,1.94,0,1,1,3.17,2.22Z"/><line class="cls-11" x1="438.03" y1="137" x2="432.64" y2="127.53"/><path class="cls-8" d="M440.13,137h-4.2l-4.88-8.56a1.83,1.83,0,0,1,3.17-1.81Z"/><line class="cls-11" x1="444.41" y1="122.15" x2="442.96" y2="137"/><path class="cls-8" d="M446.55,122.36,445.12,137h-4.31l1.46-15.06a2.15,2.15,0,0,1,4.28.42Z"/><line class="cls-11" x1="369.6" y1="181.12" x2="364.07" y2="189"/><path class="cls-8" d="M371.18,182.23,366.44,189h-4.73l6.3-9a1.94,1.94,0,1,1,3.17,2.22Z"/><line class="cls-11" x1="353.03" y1="189" x2="347.64" y2="179.53"/><path class="cls-8" d="M355.13,189h-4.2l-4.88-8.56a1.83,1.83,0,0,1,3.17-1.81Z"/><line class="cls-11" x1="359.41" y1="174.15" x2="357.96" y2="189"/><path class="cls-8" d="M361.55,174.36,360.12,189h-4.31l1.46-15.06a2.15,2.15,0,0,1,4.28.42Z"/><line class="cls-11" x1="311.99" y1="654.65" x2="306.14" y2="663"/><path class="cls-8" d="M313.67,655.83l-5,7.17h-5l6.68-9.52a2,2,0,0,1,3.35,2.35Z"/><line class="cls-11" x1="294.45" y1="663" x2="288.75" y2="652.98"/><path class="cls-8" d="M296.67,663h-4.44l-5.16-9.07a1.93,1.93,0,0,1,3.35-1.91Z"/><line class="cls-11" x1="301.2" y1="647.28" x2="299.68" y2="663"/><path class="cls-8" d="M303.47,647.5,302,663H297.4l1.54-15.94a2.28,2.28,0,1,1,4.53.44Z"/></g></svg>