<svg id="Layer_1" data-name="Layer 1" xmlns="http://www.w3.org/2000/svg" xmlns:xlink="http://www.w3.org/1999/xlink" viewBox="0 0 732 732"><defs><style>.cls-1{fill:#f7941e;}.cls-2{fill:none;}.cls-3{clip-path:url(#clip-path);}.cls-4{opacity:0.1;}.cls-5{clip-path:url(#clip-path-2);}.cls-6{clip-path:url(#clip-path-3);}.cls-7{fill:#212120;}.cls-8{clip-path:url(#clip-path-5);}.cls-9{clip-path:url(#clip-path-7);}.cls-10{clip-path:url(#clip-path-9);}.cls-11{clip-path:url(#clip-path-11);}.cls-12{clip-path:url(#clip-path-13);}.cls-13{clip-path:url(#clip-path-15);}.cls-14{clip-path:url(#clip-path-17);}.cls-15{clip-path:url(#clip-path-19);}.cls-16{clip-path:url(#clip-path-21);}.cls-17{clip-path:url(#clip-path-23);}.cls-18{clip-path:url(#clip-path-25);}.cls-19{clip-path:url(#clip-path-27);}.cls-20{clip-path:url(#clip-path-29);}.cls-21{clip-path:url(#clip-path-31);}.cls-22{clip-path:url(#clip-path-33);}.cls-23{clip-path:url(#clip-path-35);}.cls-24{clip-path:url(#clip-path-37);}.cls-25{clip-path:url(#clip-path-39);}.cls-26{clip-path:url(#clip-path-41);}.cls-27{opacity:0.35;}.cls-28{fill:#feda94;}.cls-29{fill:#e44800;}.cls-30{fill:#c08d1a;}.cls-31{fill:#fef8e8;}.cls-32{fill:#8f8773;}.cls-33{fill:#8c6239;}.cls-34{fill:#272224;}</style><clipPath id="clip-path"><rect class="cls-1" width="732" height="732" rx="50"/></clipPath><clipPath id="clip-path-2"><rect class="cls-2" width="732" height="732" rx="50"/></clipPath><clipPath id="clip-path-3"><rect class="cls-2" x="524.36" y="-174" width="223.67" height="223.67"/></clipPath><clipPath id="clip-path-5"><rect class="cls-2" x="524.36" y="49.67" width="223.67" height="223.67"/></clipPath><clipPath id="clip-path-7"><rect class="cls-2" x="524.36" y="273.34" width="223.67" height="223.67"/></clipPath><clipPath id="clip-path-9"><rect class="cls-2" x="524.36" y="497.01" width="223.67" height="223.67"/></clipPath><clipPath id="clip-path-11"><rect class="cls-2" x="524.36" y="720.68" width="223.67" height="223.67"/></clipPath><clipPath id="clip-path-13"><rect class="cls-2" x="300.68" y="-174" width="223.67" height="223.67"/></clipPath><clipPath id="clip-path-15"><rect class="cls-2" x="300.68" y="49.67" width="223.67" height="223.67"/></clipPath><clipPath id="clip-path-17"><rect class="cls-2" x="300.68" y="273.34" width="223.67" height="223.67"/></clipPath><clipPath id="clip-path-19"><rect class="cls-2" x="300.68" y="497.01" width="223.67" height="223.67"/></clipPath><clipPath id="clip-path-21"><rect class="cls-2" x="300.68" y="720.68" width="223.67" height="223.67"/></clipPath><clipPath id="clip-path-23"><rect class="cls-2" x="77.01" y="-174" width="223.67" height="223.67"/></clipPath><clipPath id="clip-path-25"><rect class="cls-2" x="77.01" y="49.67" width="223.67" height="223.67"/></clipPath><clipPath id="clip-path-27"><rect class="cls-2" x="77.01" y="273.34" width="223.67" height="223.67"/></clipPath><clipPath id="clip-path-29"><rect class="cls-2" x="77.01" y="497.01" width="223.67" height="223.67"/></clipPath><clipPath id="clip-path-31"><rect class="cls-2" x="77.01" y="720.68" width="223.67" height="223.67"/></clipPath><clipPath id="clip-path-33"><rect class="cls-2" x="-146.66" y="-174" width="223.67" height="223.67"/></clipPath><clipPath id="clip-path-35"><rect class="cls-2" x="-146.66" y="49.67" width="223.67" height="223.67"/></clipPath><clipPath id="clip-path-37"><rect class="cls-2" x="-146.66" y="273.34" width="223.67" height="223.67"/></clipPath><clipPath id="clip-path-39"><rect class="cls-2" x="-146.66" y="497.01" width="223.67" height="223.67"/></clipPath><clipPath id="clip-path-41"><rect class="cls-2" x="-146.66" y="720.68" width="223.67" height="223.67"/></clipPath></defs><title>profile</title><rect class="cls-1" width="732" height="732" rx="50"/><g class="cls-3"><g class="cls-4"><g class="cls-5"><g class="cls-6"><g class="cls-6"><polygon class="cls-7" points="580.27 30.24 522.26 -3.11 523.79 -5.78 580.27 26.69 636.18 -5.45 692.11 26.69 748.59 -5.78 750.13 -3.11 692.11 30.24 636.18 -1.91 580.27 30.24"/><polygon class="cls-7" points="580.27 67.52 522.26 34.17 523.79 31.5 580.27 63.97 636.18 31.82 692.11 63.97 748.59 31.5 750.13 34.17 692.11 67.52 636.18 35.37 580.27 67.52"/></g></g><g class="cls-8"><g class="cls-8"><polygon class="cls-7" points="580.27 67.52 522.26 34.17 523.79 31.5 580.27 63.97 636.18 31.82 692.11 63.97 748.59 31.5 750.13 34.17 692.11 67.52 636.18 35.37 580.27 67.52"/><polygon class="cls-7" points="580.27 104.8 522.26 71.44 523.79 68.78 580.27 101.25 636.18 69.1 692.11 101.25 748.59 68.78 750.13 71.44 692.11 104.8 636.18 72.65 580.27 104.8"/><polygon class="cls-7" points="580.27 142.07 522.26 108.72 523.79 106.06 580.27 138.53 636.18 106.38 692.11 138.53 748.59 106.06 750.13 108.72 692.11 142.07 636.18 109.93 580.27 142.07"/><polygon class="cls-7" points="580.27 179.35 522.26 146 523.79 143.34 580.27 175.81 636.18 143.66 692.11 175.81 748.59 143.34 750.13 146 692.11 179.35 636.18 147.21 580.27 179.35"/><polygon class="cls-7" points="580.27 216.63 522.26 183.28 523.79 180.61 580.27 213.08 636.18 180.94 692.11 213.08 748.59 180.61 750.13 183.28 692.11 216.63 636.18 184.49 580.27 216.63"/><polygon class="cls-7" points="580.27 253.91 522.26 220.56 523.79 217.89 580.27 250.36 636.18 218.22 692.11 250.36 748.59 217.89 750.13 220.56 692.11 253.91 636.18 221.77 580.27 253.91"/><polygon class="cls-7" points="580.27 291.19 522.26 257.84 523.79 255.17 580.27 287.64 636.18 255.5 692.11 287.64 748.59 255.17 750.13 257.84 692.11 291.19 636.18 259.04 580.27 291.19"/></g></g><g class="cls-9"><g class="cls-9"><polygon class="cls-7" points="580.27 291.19 522.26 257.84 523.79 255.17 580.27 287.64 636.18 255.5 692.11 287.64 748.59 255.17 750.13 257.84 692.11 291.19 636.18 259.04 580.27 291.19"/><polygon class="cls-7" points="580.27 328.47 522.26 295.12 523.79 292.45 580.27 324.92 636.18 292.77 692.11 324.92 748.59 292.45 750.13 295.12 692.11 328.47 636.18 296.32 580.27 328.47"/><polygon class="cls-7" points="580.27 365.75 522.26 332.39 523.79 329.73 580.27 362.2 636.18 330.05 692.11 362.2 748.59 329.73 750.13 332.39 692.11 365.75 636.18 333.6 580.27 365.75"/><polygon class="cls-7" points="580.27 403.02 522.26 369.67 523.79 367.01 580.27 399.48 636.18 367.33 692.11 399.48 748.59 367.01 750.13 369.67 692.11 403.02 636.18 370.88 580.27 403.02"/><polygon class="cls-7" points="580.27 440.3 522.26 406.95 523.79 404.28 580.27 436.75 636.18 404.61 692.11 436.75 748.59 404.28 750.13 406.95 692.11 440.3 636.18 408.16 580.27 440.3"/><polygon class="cls-7" points="580.27 477.58 522.26 444.23 523.79 441.56 580.27 474.03 636.18 441.89 692.11 474.03 748.59 441.56 750.13 444.23 692.11 477.58 636.18 445.44 580.27 477.58"/><polygon class="cls-7" points="580.27 514.86 522.26 481.51 523.79 478.84 580.27 511.31 636.18 479.17 692.11 511.31 748.59 478.84 750.13 481.51 692.11 514.86 636.18 482.71 580.27 514.86"/></g></g><g class="cls-10"><g class="cls-10"><polygon class="cls-7" points="580.27 514.86 522.26 481.51 523.79 478.84 580.27 511.31 636.18 479.17 692.11 511.31 748.59 478.84 750.13 481.51 692.11 514.86 636.18 482.71 580.27 514.86"/><polygon class="cls-7" points="580.27 552.14 522.26 518.79 523.79 516.12 580.27 548.59 636.18 516.45 692.11 548.59 748.59 516.12 750.13 518.79 692.11 552.14 636.18 519.99 580.27 552.14"/><polygon class="cls-7" points="580.27 589.42 522.26 556.06 523.79 553.4 580.27 585.87 636.18 553.73 692.11 585.87 748.59 553.4 750.13 556.06 692.11 589.42 636.18 557.27 580.27 589.42"/><polygon class="cls-7" points="580.27 626.69 522.26 593.34 523.79 590.68 580.27 623.15 636.18 591 692.11 623.15 748.59 590.68 750.13 593.34 692.11 626.69 636.18 594.55 580.27 626.69"/><polygon class="cls-7" points="580.27 663.97 522.26 630.62 523.79 627.96 580.27 660.43 636.18 628.28 692.11 660.43 748.59 627.96 750.13 630.62 692.11 663.97 636.18 631.83 580.27 663.97"/><polygon class="cls-7" points="580.27 701.25 522.26 667.9 523.79 665.23 580.27 697.7 636.18 665.56 692.11 697.7 748.59 665.23 750.13 667.9 692.11 701.25 636.18 669.11 580.27 701.25"/><polygon class="cls-7" points="580.27 738.53 522.26 705.18 523.79 702.51 580.27 734.98 636.18 702.84 692.11 734.98 748.59 702.51 750.13 705.18 692.11 738.53 636.18 706.39 580.27 738.53"/></g></g><g class="cls-11"><g class="cls-11"><polygon class="cls-7" points="580.27 738.53 522.26 705.18 523.79 702.51 580.27 734.98 636.18 702.84 692.11 734.98 748.59 702.51 750.13 705.18 692.11 738.53 636.18 706.39 580.27 738.53"/></g></g><g class="cls-12"><g class="cls-12"><polygon class="cls-7" points="356.6 30.24 298.58 -3.11 300.12 -5.78 356.6 26.69 412.51 -5.45 468.44 26.69 524.92 -5.78 526.46 -3.11 468.44 30.24 412.51 -1.91 356.6 30.24"/><polygon class="cls-7" points="356.6 67.52 298.58 34.17 300.12 31.5 356.6 63.97 412.51 31.82 468.44 63.97 524.92 31.5 526.46 34.17 468.44 67.52 412.51 35.37 356.6 67.52"/></g></g><g class="cls-13"><g class="cls-13"><polygon class="cls-7" points="356.6 67.52 298.58 34.17 300.12 31.5 356.6 63.97 412.51 31.82 468.44 63.97 524.92 31.5 526.46 34.17 468.44 67.52 412.51 35.37 356.6 67.52"/><polygon class="cls-7" points="356.6 104.8 298.58 71.44 300.12 68.78 356.6 101.25 412.51 69.1 468.44 101.25 524.92 68.78 526.46 71.44 468.44 104.8 412.51 72.65 356.6 104.8"/><polygon class="cls-7" points="356.6 142.07 298.58 108.72 300.12 106.06 356.6 138.53 412.51 106.38 468.44 138.53 524.92 106.06 526.46 108.72 468.44 142.07 412.51 109.93 356.6 142.07"/><polygon class="cls-7" points="356.6 179.35 298.58 146 300.12 143.34 356.6 175.81 412.51 143.66 468.44 175.81 524.92 143.34 526.46 146 468.44 179.35 412.51 147.21 356.6 179.35"/><polygon class="cls-7" points="356.6 216.63 298.58 183.28 300.12 180.61 356.6 213.08 412.51 180.94 468.44 213.08 524.92 180.61 526.46 183.28 468.44 216.63 412.51 184.49 356.6 216.63"/><polygon class="cls-7" points="356.6 253.91 298.58 220.56 300.12 217.89 356.6 250.36 412.51 218.22 468.44 250.36 524.92 217.89 526.46 220.56 468.44 253.91 412.51 221.77 356.6 253.91"/><polygon class="cls-7" points="356.6 291.19 298.58 257.84 300.12 255.17 356.6 287.64 412.51 255.5 468.44 287.64 524.92 255.17 526.46 257.84 468.44 291.19 412.51 259.04 356.6 291.19"/></g></g><g class="cls-14"><g class="cls-14"><polygon class="cls-7" points="356.6 291.19 298.58 257.84 300.12 255.17 356.6 287.64 412.51 255.5 468.44 287.64 524.92 255.17 526.46 257.84 468.44 291.19 412.51 259.04 356.6 291.19"/><polygon class="cls-7" points="356.6 328.47 298.58 295.12 300.12 292.45 356.6 324.92 412.51 292.77 468.44 324.92 524.92 292.45 526.46 295.12 468.44 328.47 412.51 296.32 356.6 328.47"/><polygon class="cls-7" points="356.6 365.75 298.58 332.39 300.12 329.73 356.6 362.2 412.51 330.05 468.44 362.2 524.92 329.73 526.46 332.39 468.44 365.75 412.51 333.6 356.6 365.75"/><polygon class="cls-7" points="356.6 403.02 298.58 369.67 300.12 367.01 356.6 399.48 412.51 367.33 468.44 399.48 524.92 367.01 526.46 369.67 468.44 403.02 412.51 370.88 356.6 403.02"/><polygon class="cls-7" points="356.6 440.3 298.58 406.95 300.12 404.28 356.6 436.75 412.51 404.61 468.44 436.75 524.92 404.28 526.46 406.95 468.44 440.3 412.51 408.16 356.6 440.3"/><polygon class="cls-7" points="356.6 477.58 298.58 444.23 300.12 441.56 356.6 474.03 412.51 441.89 468.44 474.03 524.92 441.56 526.46 444.23 468.44 477.58 412.51 445.44 356.6 477.58"/><polygon class="cls-7" points="356.6 514.86 298.58 481.51 300.12 478.84 356.6 511.31 412.51 479.17 468.44 511.31 524.92 478.84 526.46 481.51 468.44 514.86 412.51 482.71 356.6 514.86"/></g></g><g class="cls-15"><g class="cls-15"><polygon class="cls-7" points="356.6 514.86 298.58 481.51 300.12 478.84 356.6 511.31 412.51 479.17 468.44 511.31 524.92 478.84 526.46 481.51 468.44 514.86 412.51 482.71 356.6 514.86"/><polygon class="cls-7" points="356.6 552.14 298.58 518.79 300.12 516.12 356.6 548.59 412.51 516.45 468.44 548.59 524.92 516.12 526.46 518.79 468.44 552.14 412.51 519.99 356.6 552.14"/><polygon class="cls-7" points="356.6 589.42 298.58 556.06 300.12 553.4 356.6 585.87 412.51 553.73 468.44 585.87 524.92 553.4 526.46 556.06 468.44 589.42 412.51 557.27 356.6 589.42"/><polygon class="cls-7" points="356.6 626.69 298.58 593.34 300.12 590.68 356.6 623.15 412.51 591 468.44 623.15 524.92 590.68 526.46 593.34 468.44 626.69 412.51 594.55 356.6 626.69"/><polygon class="cls-7" points="356.6 663.97 298.58 630.62 300.12 627.96 356.6 660.43 412.51 628.28 468.44 660.43 524.92 627.96 526.46 630.62 468.44 663.97 412.51 631.83 356.6 663.97"/><polygon class="cls-7" points="356.6 701.25 298.58 667.9 300.12 665.23 356.6 697.7 412.51 665.56 468.44 697.7 524.92 665.23 526.46 667.9 468.44 701.25 412.51 669.11 356.6 701.25"/><polygon class="cls-7" points="356.6 738.53 298.58 705.18 300.12 702.51 356.6 734.98 412.51 702.84 468.44 734.98 524.92 702.51 526.46 705.18 468.44 738.53 412.51 706.39 356.6 738.53"/></g></g><g class="cls-16"><g class="cls-16"><polygon class="cls-7" points="356.6 738.53 298.58 705.18 300.12 702.51 356.6 734.98 412.51 702.84 468.44 734.98 524.92 702.51 526.46 705.18 468.44 738.53 412.51 706.39 356.6 738.53"/></g></g><g class="cls-17"><g class="cls-17"><polygon class="cls-7" points="132.93 30.24 74.91 -3.11 76.45 -5.78 132.93 26.69 188.84 -5.45 244.76 26.69 301.25 -5.78 302.78 -3.11 244.76 30.24 188.84 -1.91 132.93 30.24"/><polygon class="cls-7" points="132.93 67.52 74.91 34.17 76.45 31.5 132.93 63.97 188.84 31.82 244.76 63.97 301.25 31.5 302.78 34.17 244.76 67.52 188.84 35.37 132.93 67.52"/></g></g><g class="cls-18"><g class="cls-18"><polygon class="cls-7" points="132.93 67.52 74.91 34.17 76.45 31.5 132.93 63.97 188.84 31.82 244.76 63.97 301.25 31.5 302.78 34.17 244.76 67.52 188.84 35.37 132.93 67.52"/><polygon class="cls-7" points="132.93 104.8 74.91 71.44 76.45 68.78 132.93 101.25 188.84 69.1 244.76 101.25 301.25 68.78 302.78 71.44 244.76 104.8 188.84 72.65 132.93 104.8"/><polygon class="cls-7" points="132.93 142.07 74.91 108.72 76.45 106.06 132.93 138.53 188.84 106.38 244.76 138.53 301.25 106.06 302.78 108.72 244.76 142.07 188.84 109.93 132.93 142.07"/><polygon class="cls-7" points="132.93 179.35 74.91 146 76.45 143.34 132.93 175.81 188.84 143.66 244.76 175.81 301.25 143.34 302.78 146 244.76 179.35 188.84 147.21 132.93 179.35"/><polygon class="cls-7" points="132.93 216.63 74.91 183.28 76.45 180.61 132.93 213.08 188.84 180.94 244.76 213.08 301.25 180.61 302.78 183.28 244.76 216.63 188.84 184.49 132.93 216.63"/><polygon class="cls-7" points="132.93 253.91 74.91 220.56 76.45 217.89 132.93 250.36 188.84 218.22 244.76 250.36 301.25 217.89 302.78 220.56 244.76 253.91 188.84 221.77 132.93 253.91"/><polygon class="cls-7" points="132.93 291.19 74.91 257.84 76.45 255.17 132.93 287.64 188.84 255.5 244.76 287.64 301.25 255.17 302.78 257.84 244.76 291.19 188.84 259.04 132.93 291.19"/></g></g><g class="cls-19"><g class="cls-19"><polygon class="cls-7" points="132.93 291.19 74.91 257.84 76.45 255.17 132.93 287.64 188.84 255.5 244.76 287.64 301.25 255.17 302.78 257.84 244.76 291.19 188.84 259.04 132.93 291.19"/><polygon class="cls-7" points="132.93 328.47 74.91 295.12 76.45 292.45 132.93 324.92 188.84 292.77 244.76 324.92 301.25 292.45 302.78 295.12 244.76 328.47 188.84 296.32 132.93 328.47"/><polygon class="cls-7" points="132.93 365.75 74.91 332.39 76.45 329.73 132.93 362.2 188.84 330.05 244.76 362.2 301.25 329.73 302.78 332.39 244.76 365.75 188.84 333.6 132.93 365.75"/><polygon class="cls-7" points="132.93 403.02 74.91 369.67 76.45 367.01 132.93 399.48 188.84 367.33 244.76 399.48 301.25 367.01 302.78 369.67 244.76 403.02 188.84 370.88 132.93 403.02"/><polygon class="cls-7" points="132.93 440.3 74.91 406.95 76.45 404.28 132.93 436.75 188.84 404.61 244.76 436.75 301.25 404.28 302.78 406.95 244.76 440.3 188.84 408.16 132.93 440.3"/><polygon class="cls-7" points="132.93 477.58 74.91 444.23 76.45 441.56 132.93 474.03 188.84 441.89 244.76 474.03 301.25 441.56 302.78 444.23 244.76 477.58 188.84 445.44 132.93 477.58"/><polygon class="cls-7" points="132.93 514.86 74.91 481.51 76.45 478.84 132.93 511.31 188.84 479.17 244.76 511.31 301.25 478.84 302.78 481.51 244.76 514.86 188.84 482.71 132.93 514.86"/></g></g><g class="cls-20"><g class="cls-20"><polygon class="cls-7" points="132.93 514.86 74.91 481.51 76.45 478.84 132.93 511.31 188.84 479.17 244.76 511.31 301.25 478.84 302.78 481.51 244.76 514.86 188.84 482.71 132.93 514.86"/><polygon class="cls-7" points="132.93 552.14 74.91 518.79 76.45 516.12 132.93 548.59 188.84 516.45 244.76 548.59 301.25 516.12 302.78 518.79 244.76 552.14 188.84 519.99 132.93 552.14"/><polygon class="cls-7" points="132.93 589.42 74.91 556.06 76.45 553.4 132.93 585.87 188.84 553.73 244.76 585.87 301.25 553.4 302.78 556.06 244.76 589.42 188.84 557.27 132.93 589.42"/><polygon class="cls-7" points="132.93 626.69 74.91 593.34 76.45 590.68 132.93 623.15 188.84 591 244.76 623.15 301.25 590.68 302.78 593.34 244.76 626.69 188.84 594.55 132.93 626.69"/><polygon class="cls-7" points="132.93 663.97 74.91 630.62 76.45 627.96 132.93 660.43 188.84 628.28 244.76 660.43 301.25 627.96 302.78 630.62 244.76 663.97 188.84 631.83 132.93 663.97"/><polygon class="cls-7" points="132.93 701.25 74.91 667.9 76.45 665.23 132.93 697.7 188.84 665.56 244.76 697.7 301.25 665.23 302.78 667.9 244.76 701.25 188.84 669.11 132.93 701.25"/><polygon class="cls-7" points="132.93 738.53 74.91 705.18 76.45 702.51 132.93 734.98 188.84 702.84 244.76 734.98 301.25 702.51 302.78 705.18 244.76 738.53 188.84 706.39 132.93 738.53"/></g></g><g class="cls-21"><g class="cls-21"><polygon class="cls-7" points="132.93 738.53 74.91 705.18 76.45 702.51 132.93 734.98 188.84 702.84 244.76 734.98 301.25 702.51 302.78 705.18 244.76 738.53 188.84 706.39 132.93 738.53"/></g></g><g class="cls-22"><g class="cls-22"><polygon class="cls-7" points="-90.74 30.24 -148.76 -3.11 -147.22 -5.78 -90.74 26.69 -34.83 -5.45 21.09 26.69 77.58 -5.78 79.11 -3.11 21.09 30.24 -34.83 -1.91 -90.74 30.24"/><polygon class="cls-7" points="-90.74 67.52 -148.76 34.17 -147.22 31.5 -90.74 63.97 -34.83 31.82 21.09 63.97 77.58 31.5 79.11 34.17 21.09 67.52 -34.83 35.37 -90.74 67.52"/></g></g><g class="cls-23"><g class="cls-23"><polygon class="cls-7" points="-90.74 67.52 -148.76 34.17 -147.22 31.5 -90.74 63.97 -34.83 31.82 21.09 63.97 77.58 31.5 79.11 34.17 21.09 67.52 -34.83 35.37 -90.74 67.52"/><polygon class="cls-7" points="-90.74 104.8 -148.76 71.44 -147.22 68.78 -90.74 101.25 -34.83 69.1 21.09 101.25 77.58 68.78 79.11 71.44 21.09 104.8 -34.83 72.65 -90.74 104.8"/><polygon class="cls-7" points="-90.74 142.07 -148.76 108.72 -147.22 106.06 -90.74 138.53 -34.83 106.38 21.09 138.53 77.58 106.06 79.11 108.72 21.09 142.07 -34.83 109.93 -90.74 142.07"/><polygon class="cls-7" points="-90.74 179.35 -148.76 146 -147.22 143.34 -90.74 175.81 -34.83 143.66 21.09 175.81 77.58 143.34 79.11 146 21.09 179.35 -34.83 147.21 -90.74 179.35"/><polygon class="cls-7" points="-90.74 216.63 -148.76 183.28 -147.22 180.61 -90.74 213.08 -34.83 180.94 21.09 213.08 77.58 180.61 79.11 183.28 21.09 216.63 -34.83 184.49 -90.74 216.63"/><polygon class="cls-7" points="-90.74 253.91 -148.76 220.56 -147.22 217.89 -90.74 250.36 -34.83 218.22 21.09 250.36 77.58 217.89 79.11 220.56 21.09 253.91 -34.83 221.77 -90.74 253.91"/><polygon class="cls-7" points="-90.74 291.19 -148.76 257.84 -147.22 255.17 -90.74 287.64 -34.83 255.5 21.09 287.64 77.58 255.17 79.11 257.84 21.09 291.19 -34.83 259.04 -90.74 291.19"/></g></g><g class="cls-24"><g class="cls-24"><polygon class="cls-7" points="-90.74 291.19 -148.76 257.84 -147.22 255.17 -90.74 287.64 -34.83 255.5 21.09 287.64 77.58 255.17 79.11 257.84 21.09 291.19 -34.83 259.04 -90.74 291.19"/><polygon class="cls-7" points="-90.74 328.47 -148.76 295.12 -147.22 292.45 -90.74 324.92 -34.83 292.77 21.09 324.92 77.58 292.45 79.11 295.12 21.09 328.47 -34.83 296.32 -90.74 328.47"/><polygon class="cls-7" points="-90.74 365.75 -148.76 332.39 -147.22 329.73 -90.74 362.2 -34.83 330.05 21.09 362.2 77.58 329.73 79.11 332.39 21.09 365.75 -34.83 333.6 -90.74 365.75"/><polygon class="cls-7" points="-90.74 403.02 -148.76 369.67 -147.22 367.01 -90.74 399.48 -34.83 367.33 21.09 399.48 77.58 367.01 79.11 369.67 21.09 403.02 -34.83 370.88 -90.74 403.02"/><polygon class="cls-7" points="-90.74 440.3 -148.76 406.95 -147.22 404.28 -90.74 436.75 -34.83 404.61 21.09 436.75 77.58 404.28 79.11 406.95 21.09 440.3 -34.83 408.16 -90.74 440.3"/><polygon class="cls-7" points="-90.74 477.58 -148.76 444.23 -147.22 441.56 -90.74 474.03 -34.83 441.89 21.09 474.03 77.58 441.56 79.11 444.23 21.09 477.58 -34.83 445.44 -90.74 477.58"/><polygon class="cls-7" points="-90.74 514.86 -148.76 481.51 -147.22 478.84 -90.74 511.31 -34.83 479.17 21.09 511.31 77.58 478.84 79.11 481.51 21.09 514.86 -34.83 482.71 -90.74 514.86"/></g></g><g class="cls-25"><g class="cls-25"><polygon class="cls-7" points="-90.74 514.86 -148.76 481.51 -147.22 478.84 -90.74 511.31 -34.83 479.17 21.09 511.31 77.58 478.84 79.11 481.51 21.09 514.86 -34.83 482.71 -90.74 514.86"/><polygon class="cls-7" points="-90.74 552.14 -148.76 518.79 -147.22 516.12 -90.74 548.59 -34.83 516.45 21.09 548.59 77.58 516.12 79.11 518.79 21.09 552.14 -34.83 519.99 -90.74 552.14"/><polygon class="cls-7" points="-90.74 589.42 -148.76 556.06 -147.22 553.4 -90.74 585.87 -34.83 553.73 21.09 585.87 77.58 553.4 79.11 556.06 21.09 589.42 -34.83 557.27 -90.74 589.42"/><polygon class="cls-7" points="-90.74 626.69 -148.76 593.34 -147.22 590.68 -90.74 623.15 -34.83 591 21.09 623.15 77.58 590.68 79.11 593.34 21.09 626.69 -34.83 594.55 -90.74 626.69"/><polygon class="cls-7" points="-90.74 663.97 -148.76 630.62 -147.22 627.96 -90.74 660.43 -34.83 628.28 21.09 660.43 77.58 627.96 79.11 630.62 21.09 663.97 -34.83 631.83 -90.74 663.97"/><polygon class="cls-7" points="-90.74 701.25 -148.76 667.9 -147.22 665.23 -90.74 697.7 -34.83 665.56 21.09 697.7 77.58 665.23 79.11 667.9 21.09 701.25 -34.83 669.11 -90.74 701.25"/><polygon class="cls-7" points="-90.74 738.53 -148.76 705.18 -147.22 702.51 -90.74 734.98 -34.83 702.84 21.09 734.98 77.58 702.51 79.11 705.18 21.09 738.53 -34.83 706.39 -90.74 738.53"/></g></g><g class="cls-26"><g class="cls-26"><polygon class="cls-7" points="-90.74 738.53 -148.76 705.18 -147.22 702.51 -90.74 734.98 -34.83 702.84 21.09 734.98 77.58 702.51 79.11 705.18 21.09 738.53 -34.83 706.39 -90.74 738.53"/></g></g></g></g><g class="cls-27"><path class="cls-28" d="M243.5,597A26.5,26.5,0,1,1,270,570.5,26.53,26.53,0,0,1,243.5,597Zm0-48A21.5,21.5,0,1,0,265,570.5,21.52,21.52,0,0,0,243.5,549Z"/><path class="cls-28" d="M166.5,511A13.5,13.5,0,1,1,180,497.5,13.52,13.52,0,0,1,166.5,511Zm0-22a8.5,8.5,0,1,0,8.5,8.5A8.51,8.51,0,0,0,166.5,489Z"/><path class="cls-28" d="M498,527a19,19,0,1,1,19-19A19,19,0,0,1,498,527Zm0-33a14,14,0,1,0,14,14A14,14,0,0,0,498,494Z"/><path class="cls-28" d="M544.5,395A15.5,15.5,0,1,1,560,379.5,15.51,15.51,0,0,1,544.5,395Zm0-26A10.5,10.5,0,1,0,555,379.5,10.51,10.51,0,0,0,544.5,369Z"/><path class="cls-28" d="M435,361a16,16,0,1,1,16-16A16,16,0,0,1,435,361Zm0-27a11,11,0,1,0,11,11A11,11,0,0,0,435,334Z"/><path class="cls-28" d="M137,153a21,21,0,1,1,21-21A21,21,0,0,1,137,153Zm0-37a16,16,0,1,0,16,16A16,16,0,0,0,137,116Z"/><path class="cls-28" d="M325.5,43A10.5,10.5,0,1,1,336,32.5,10.51,10.51,0,0,1,325.5,43Zm0-16a5.5,5.5,0,1,0,5.5,5.5A5.51,5.51,0,0,0,325.5,27Z"/><path class="cls-28" d="M622.5,87A19.5,19.5,0,1,1,642,67.5,19.53,19.53,0,0,1,622.5,87Zm0-34A14.5,14.5,0,1,0,637,67.5,14.51,14.51,0,0,0,622.5,53Z"/><path class="cls-28" d="M489.5,175A10.5,10.5,0,1,1,500,164.5,10.51,10.51,0,0,1,489.5,175Zm0-16a5.5,5.5,0,1,0,5.5,5.5A5.51,5.51,0,0,0,489.5,159Z"/><path class="cls-28" d="M66,689a20,20,0,1,1,20-20A20,20,0,0,1,66,689Zm0-35a15,15,0,1,0,15,15A15,15,0,0,0,66,654Z"/><path class="cls-28" d="M134.5,715A10.5,10.5,0,1,1,145,704.5,10.51,10.51,0,0,1,134.5,715Zm0-16a5.5,5.5,0,1,0,5.5,5.5A5.51,5.51,0,0,0,134.5,699Z"/><path class="cls-28" d="M327,729a20,20,0,1,1,20-20A20,20,0,0,1,327,729Zm0-35a15,15,0,1,0,15,15A15,15,0,0,0,327,694Z"/><path class="cls-28" d="M365.5,697a8.5,8.5,0,1,1,8.5-8.5A8.51,8.51,0,0,1,365.5,697Zm0-12a3.5,3.5,0,1,0,3.5,3.5A3.5,3.5,0,0,0,365.5,685Z"/><path class="cls-28" d="M540.5,693A16.5,16.5,0,1,1,557,676.5,16.52,16.52,0,0,1,540.5,693Zm0-28A11.5,11.5,0,1,0,552,676.5,11.51,11.51,0,0,0,540.5,665Z"/><path class="cls-28" d="M588.5,709A12.5,12.5,0,1,1,601,696.5,12.52,12.52,0,0,1,588.5,709Zm0-20a7.5,7.5,0,1,0,7.5,7.5A7.5,7.5,0,0,0,588.5,689Z"/><path class="cls-28" d="M719,569a21,21,0,1,1,21-21A21,21,0,0,1,719,569Zm0-37a16,16,0,1,0,16,16A16,16,0,0,0,719,532Z"/><path class="cls-28" d="M9.5,110A18.5,18.5,0,1,1,28,91.5,18.52,18.52,0,0,1,9.5,110Zm0-32A13.5,13.5,0,1,0,23,91.5,13.52,13.52,0,0,0,9.5,78Z"/><path class="cls-28" d="M28,59a9,9,0,1,1,9-9A9,9,0,0,1,28,59Zm0-13a4,4,0,1,0,4,4A4,4,0,0,0,28,46Z"/><path class="cls-28" d="M726,320a33,33,0,1,1,33-33A33,33,0,0,1,726,320Zm0-61a28,28,0,1,0,28,28A28,28,0,0,0,726,259Z"/><path class="cls-28" d="M14,337a28,28,0,1,1,28-28A28,28,0,0,1,14,337Zm0-51a23,23,0,1,0,23,23A23,23,0,0,0,14,286Z"/><path class="cls-28" d="M418,110a25,25,0,1,1,25-25A25,25,0,0,1,418,110Zm0-45a20,20,0,1,0,20,20A20,20,0,0,0,418,65Z"/><path class="cls-28" d="M707,110a9,9,0,1,1,9-9A9,9,0,0,1,707,110Zm0-13a4,4,0,1,0,4,4A4,4,0,0,0,707,97Z"/><path class="cls-28" d="M679,49a9,9,0,1,1,9-9A9,9,0,0,1,679,49Zm0-13a4,4,0,1,0,4,4A4,4,0,0,0,679,36Z"/></g><g class="cls-27"><path class="cls-28" d="M221.68,711.93c-7.08-7.08-5.92-15.23-4.9-22.43,1-7.37,1.46-12.11-2.92-16.5s-9.13-4-16.5-2.92c-7.2,1-15.36,2.18-22.44-4.9S169,649.94,170,642.75c1-7.38,1.47-12.12-2.92-16.5s-9.12-4-16.5-2.92c-7.19,1-15.35,2.18-22.43-4.9s-5.92-15.24-4.9-22.43c1-7.38,1.47-12.12-2.92-16.5s-9.12-4-16.49-2.92c-7.2,1-15.36,2.18-22.44-4.9s-5.92-15.23-4.89-22.43c1-7.37,1.46-12.11-2.92-16.5s-9.12-4-16.5-2.91c-7.19,1-15.35,2.18-22.43-4.9s-5.92-15.23-4.89-22.43c1-7.37,1.46-12.11-2.92-16.5l4.95-4.94c7.08,7.07,5.92,15.23,4.9,22.42-1,7.38-1.47,12.12,2.91,16.5s9.13,4,16.5,2.92c7.19-1,15.35-2.19,22.43,4.89s5.92,15.24,4.9,22.43c-1,7.38-1.47,12.12,2.91,16.5s9.13,4,16.5,2.92c7.2-1,15.36-2.18,22.43,4.9s5.93,15.24,4.9,22.43c-1,7.37-1.46,12.11,2.92,16.5s9.13,4,16.5,2.92c7.2-1,15.35-2.18,22.43,4.9s5.93,15.23,4.9,22.43c-1,7.37-1.46,12.11,2.92,16.5s9.13,4,16.5,2.92c7.2-1,15.36-2.18,22.44,4.9s5.92,15.24,4.9,22.44c-1.05,7.37-1.47,12.11,2.92,16.5Z"/><path class="cls-28" d="M552.68,766.93c-7.08-7.08-5.92-15.23-4.9-22.43,1-7.37,1.46-12.11-2.92-16.5s-9.13-4-16.5-2.92c-7.2,1-15.36,2.18-22.44-4.9S500,704.94,501,697.75c1.05-7.38,1.47-12.12-2.92-16.5s-9.12-4-16.49-2.92c-7.2,1-15.36,2.18-22.44-4.9s-5.92-15.24-4.9-22.43c1.05-7.38,1.47-12.12-2.91-16.5s-9.13-4-16.5-2.92c-7.2,1-15.36,2.18-22.44-4.9s-5.92-15.23-4.89-22.43c1-7.37,1.46-12.11-2.92-16.5s-9.12-4-16.5-2.91c-7.19,1-15.35,2.18-22.43-4.9s-5.92-15.23-4.89-22.43c1-7.37,1.46-12.11-2.92-16.5l4.95-4.94c7.08,7.07,5.92,15.23,4.9,22.42-1.05,7.38-1.47,12.12,2.91,16.5s9.13,4,16.5,2.92c7.19-1,15.35-2.19,22.43,4.89s5.92,15.24,4.9,22.43c-1,7.38-1.47,12.12,2.91,16.5s9.13,4,16.5,2.92c7.2-1,15.36-2.18,22.43,4.9s5.93,15.24,4.9,22.43c-1,7.37-1.46,12.11,2.92,16.5s9.13,4,16.5,2.92c7.2-1,15.35-2.18,22.43,4.9s5.92,15.23,4.9,22.43c-1,7.37-1.46,12.11,2.92,16.5s9.13,4,16.5,2.92c7.2-1,15.35-2.18,22.44,4.9s5.92,15.24,4.9,22.44c-1.05,7.37-1.47,12.11,2.92,16.5Z"/><path class="cls-28" d="M214.76,401.67c-7.08-7.08-5.93-15.24-4.9-22.44,1-7.37,1.46-12.11-2.92-16.5s-9.13-4-16.5-2.92c-7.2,1-15.36,2.18-22.44-4.9s-5.92-15.23-4.9-22.43c1.05-7.37,1.47-12.11-2.92-16.5s-9.12-4-16.5-2.92c-7.19,1-15.35,2.18-22.43-4.9s-5.92-15.23-4.9-22.43c1.05-7.37,1.47-12.11-2.92-16.5s-9.12-4-16.49-2.92c-7.2,1-15.36,2.19-22.44-4.89S68.58,246.18,69.61,239c1-7.37,1.46-12.11-2.92-16.49s-9.13-4-16.5-2.92c-7.19,1-15.35,2.18-22.43-4.9s-5.92-15.23-4.89-22.43c1-7.37,1.46-12.11-2.92-16.49l4.95-4.95c7.08,7.08,5.92,15.23,4.9,22.43-1.05,7.37-1.47,12.11,2.91,16.49s9.13,4,16.5,2.92c7.19-1,15.35-2.18,22.43,4.9s5.92,15.23,4.9,22.43c-1.05,7.37-1.47,12.11,2.91,16.49s9.13,4,16.5,2.92c7.2-1,15.35-2.18,22.43,4.9s5.92,15.24,4.9,22.43c-1,7.38-1.46,12.12,2.92,16.5s9.13,4,16.5,2.92c7.2-1,15.35-2.18,22.43,4.9s5.92,15.24,4.9,22.43c-1.05,7.38-1.46,12.12,2.92,16.5s9.13,4,16.5,2.92c7.2-1,15.36-2.17,22.44,4.9s5.92,15.24,4.9,22.44c-1,7.37-1.47,12.11,2.92,16.5Z"/><path class="cls-28" d="M739.68,692.93c-7.08-7.08-5.92-15.23-4.9-22.43,1-7.37,1.46-12.11-2.92-16.5s-9.13-4-16.5-2.92c-7.2,1-15.36,2.18-22.44-4.9S687,630.94,688,623.75c1.05-7.38,1.47-12.12-2.92-16.5s-9.12-4-16.49-2.92c-7.2,1-15.36,2.18-22.44-4.9s-5.92-15.24-4.9-22.43c1.05-7.38,1.47-12.12-2.91-16.5s-9.13-4-16.5-2.92c-7.2,1-15.36,2.18-22.44-4.9s-5.92-15.23-4.89-22.43c1-7.37,1.46-12.11-2.92-16.5s-9.13-4-16.5-2.91c-7.19,1-15.35,2.18-22.43-4.9s-5.92-15.23-4.89-22.43c1-7.37,1.46-12.11-2.92-16.5l5-4.94c7.08,7.07,5.92,15.23,4.9,22.42-1.05,7.38-1.47,12.12,2.91,16.5s9.13,4,16.5,2.92c7.19-1,15.35-2.19,22.43,4.89s5.92,15.24,4.9,22.43c-1.05,7.38-1.47,12.12,2.91,16.5s9.13,4,16.5,2.92c7.2-1,15.35-2.18,22.43,4.9s5.93,15.24,4.9,22.43c-1,7.37-1.46,12.11,2.92,16.5s9.13,4,16.5,2.92c7.2-1,15.35-2.18,22.43,4.9s5.92,15.23,4.9,22.43c-1,7.37-1.46,12.11,2.92,16.5s9.13,4,16.5,2.92c7.2-1,15.35-2.18,22.44,4.9s5.92,15.24,4.9,22.44c-1.05,7.37-1.47,12.11,2.92,16.5Z"/><path class="cls-28" d="M323.68,184.94c-7.08-7.09-5.92-15.24-4.9-22.44,1-7.37,1.46-12.11-2.92-16.5s-9.13-4-16.5-2.92c-7.2,1-15.36,2.18-22.44-4.9S271,122.94,272,115.75c1.05-7.38,1.47-12.12-2.92-16.5s-9.12-4-16.5-2.92c-7.19,1-15.35,2.18-22.43-4.9s-5.92-15.24-4.9-22.43c1-7.38,1.47-12.12-2.92-16.5s-9.12-4-16.49-2.92c-7.2,1-15.36,2.18-22.44-4.9s-5.92-15.23-4.89-22.43c1-7.37,1.46-12.11-2.92-16.5s-9.12-4-16.5-2.91c-7.19,1-15.35,2.18-22.43-4.9s-5.92-15.23-4.89-22.43c1-7.37,1.46-12.11-2.92-16.5l4.95-4.95c7.08,7.08,5.92,15.24,4.9,22.43-1.05,7.38-1.47,12.12,2.91,16.5s9.13,4,16.5,2.92c7.2-1,15.35-2.19,22.43,4.89s5.92,15.24,4.9,22.43c-1.05,7.38-1.47,12.12,2.91,16.5s9.13,4,16.5,2.92c7.2-1,15.36-2.18,22.44,4.9S233.23,62.78,232.2,70c-1,7.37-1.46,12.11,2.92,16.5s9.13,4,16.5,2.92c7.2-1,15.35-2.18,22.43,4.9s5.93,15.23,4.9,22.43c-1,7.37-1.46,12.11,2.92,16.5s9.13,4,16.5,2.92c7.2-1,15.36-2.18,22.44,4.9s5.92,15.24,4.9,22.43c-1,7.38-1.47,12.12,2.92,16.51Z"/><path class="cls-28" d="M731.68,430.93c-7.08-7.08-5.92-15.23-4.9-22.43,1-7.37,1.46-12.11-2.92-16.5s-9.13-4-16.5-2.92c-7.2,1-15.36,2.18-22.44-4.9S679,368.94,680,361.75c1.05-7.38,1.47-12.12-2.92-16.5s-9.12-4-16.49-2.92c-7.2,1-15.36,2.18-22.44-4.9s-5.92-15.24-4.9-22.43c1.05-7.38,1.47-12.12-2.91-16.5s-9.13-4-16.5-2.92c-7.2,1-15.36,2.18-22.44-4.9s-5.92-15.23-4.89-22.43c1-7.37,1.46-12.11-2.92-16.5s-9.12-4-16.5-2.91c-7.19,1-15.35,2.18-22.43-4.9s-5.92-15.23-4.89-22.43c1-7.37,1.46-12.11-2.92-16.5l5-4.95c7.08,7.08,5.92,15.24,4.9,22.43-1.05,7.38-1.47,12.12,2.91,16.5s9.12,4,16.5,2.92c7.19-1,15.35-2.19,22.43,4.89s5.92,15.24,4.9,22.43c-1.05,7.38-1.47,12.12,2.91,16.5s9.13,4,16.5,2.92c7.2-1,15.36-2.18,22.43,4.9s5.93,15.23,4.9,22.43c-1,7.37-1.46,12.11,2.92,16.5s9.13,4,16.5,2.92c7.2-1,15.35-2.18,22.43,4.9s5.92,15.23,4.9,22.43c-1,7.37-1.46,12.11,2.92,16.5s9.13,4,16.5,2.92c7.2-1,15.35-2.18,22.44,4.9s5.92,15.24,4.9,22.44c-1.05,7.37-1.47,12.11,2.92,16.5Z"/><path class="cls-28" d="M600.68,148.94c-7.08-7.09-5.92-15.24-4.9-22.44,1-7.37,1.46-12.11-2.92-16.5s-9.13-4-16.5-2.92c-7.2,1-15.36,2.18-22.44-4.9S548,86.94,549,79.75c1.05-7.38,1.47-12.12-2.92-16.5s-9.12-4-16.49-2.92c-7.2,1-15.36,2.18-22.44-4.9s-5.92-15.24-4.9-22.43c1.05-7.38,1.47-12.12-2.91-16.5s-9.13-4-16.5-2.92c-7.2,1-15.36,2.18-22.44-4.9s-5.92-15.23-4.89-22.43c1-7.37,1.46-12.11-2.92-16.5s-9.12-4-16.5-2.91c-7.19,1-15.35,2.18-22.43-4.9s-5.92-15.23-4.89-22.43c1-7.37,1.46-12.11-2.92-16.5l4.95-5c7.08,7.08,5.92,15.24,4.9,22.43-1.05,7.38-1.47,12.12,2.91,16.5s9.13,4,16.5,2.92c7.19-1,15.35-2.19,22.43,4.89s5.92,15.24,4.9,22.43c-1,7.38-1.47,12.12,2.91,16.5s9.13,4,16.5,2.92c7.2-1,15.36-2.18,22.43,4.9s5.93,15.23,4.9,22.43c-1,7.37-1.46,12.11,2.92,16.5s9.13,4,16.5,2.92c7.2-1,15.35-2.18,22.43,4.9S557,73.53,556,80.73c-1,7.37-1.46,12.11,2.92,16.5s9.13,4,16.5,2.92c7.2-1,15.36-2.18,22.44,4.9s5.92,15.24,4.9,22.43c-1.05,7.38-1.47,12.12,2.92,16.51Z"/></g></g><ellipse class="cls-29" cx="352.6" cy="236" rx="85" ry="114.5"/><path class="cls-29" d="M325.37,274.77A117.86,117.86,0,0,1,318.23,299a115.39,115.39,0,0,1-12.08,22.1,95.12,95.12,0,0,1-17.76,19.23,74,74,0,0,1-24.45,13.33,66.62,66.62,0,0,1-28.24,2.52,65,65,0,0,1-6.81-1.18,63.78,63.78,0,0,1-6.93-1.95,55.46,55.46,0,0,1-13.51-6.8,51.89,51.89,0,0,1-11.17-10.49,58.44,58.44,0,0,1-7.43-12.33A84.39,84.39,0,0,1,183.48,299a162.63,162.63,0,0,1-.9-22.56c.08-3.62.23-7.18.42-10.67l.29-5.19.11-2c0-.62,0-1.25,0-1.88-.13-10.1-4.27-20.95-11-30.28a74.07,74.07,0,0,0-26.48-22.62c-10.43-5.25-22.15-7.66-33.2-5.75l-.13,0a9.72,9.72,0,0,1-4-19,68.4,68.4,0,0,1,23.82-1.61,82.41,82.41,0,0,1,22.75,5.82,98.12,98.12,0,0,1,37.31,27.3,89.47,89.47,0,0,1,12.9,20.13,74.77,74.77,0,0,1,6.64,24.1c.12,1.07.16,2.15.24,3.22l.09,3.08.14,5c.11,3.32.25,6.58.45,9.77A130.67,130.67,0,0,0,215.13,294a50.92,50.92,0,0,0,5.09,14.63,23.34,23.34,0,0,0,3.59,4.82,16.47,16.47,0,0,0,4.05,3,25.56,25.56,0,0,0,11.25,2.57,28.34,28.34,0,0,0,12-2.27,34.52,34.52,0,0,0,10.56-7.29,54.15,54.15,0,0,0,8.83-11.65,73.78,73.78,0,0,0,9.28-29.64,23,23,0,0,1,45.91,3.94c-.06.7-.16,1.38-.28,2.06Z"/><path class="cls-30" d="M314.73,306.68a111.9,111.9,0,0,1-8.58,14.43,95.4,95.4,0,0,1-17.76,19.23,74,74,0,0,1-24.45,13.33,66.62,66.62,0,0,1-28.24,2.52,65,65,0,0,1-6.81-1.18,63.15,63.15,0,0,1-6.93-1.95,55.46,55.46,0,0,1-13.51-6.8,51.66,51.66,0,0,1-11.17-10.49,58.44,58.44,0,0,1-7.43-12.33A84.39,84.39,0,0,1,183.48,299a161.09,161.09,0,0,1-.9-22.56c.08-3.62.23-7.18.42-10.67l.29-5.19.11-2c0-.62,0-1.25,0-1.88-.13-10.1-4.28-20.95-11-30.28a74.07,74.07,0,0,0-26.48-22.62c-10.43-5.25-22.15-7.66-33.2-5.75l-.13,0a9.72,9.72,0,0,1-6.38-18.08,9.36,9.36,0,0,0,.13,1.16A9.73,9.73,0,0,0,117.55,189l.13,0c11-1.91,22.77.5,33.2,5.75a74.07,74.07,0,0,1,26.48,22.62c6.77,9.33,10.92,20.18,11,30.28,0,.63,0,1.26,0,1.88l-.11,2-.29,5.19c0,.66-.07,1.32-.1,2-.14,2.85-.26,5.74-.32,8.68a161.09,161.09,0,0,0,.9,22.56,84.39,84.39,0,0,0,6.37,24.46,58.44,58.44,0,0,0,7.43,12.33,51.66,51.66,0,0,0,11.17,10.49,55.46,55.46,0,0,0,13.51,6.8,63.15,63.15,0,0,0,6.93,1.95,65,65,0,0,0,6.81,1.18,66.62,66.62,0,0,0,28.24-2.52,74,74,0,0,0,24.45-13.33,95.4,95.4,0,0,0,17.76-19.23C312.4,310.33,313.59,308.51,314.73,306.68Z"/><path class="cls-29" d="M435.37,268.23a73.16,73.16,0,0,0,11.12,32,48.06,48.06,0,0,0,10.26,11.51,29.86,29.86,0,0,0,11.88,5.87,28.36,28.36,0,0,0,6.6.69c1.15,0,2.33-.09,3.53-.23a31.19,31.19,0,0,0,3.2-.56,18.52,18.52,0,0,0,5.11-2,16,16,0,0,0,4.08-3.37c2.56-2.88,4.84-7.54,6.38-13.19a101.55,101.55,0,0,0,3-18.95c.26-3.41.43-6.9.54-10.48l.29-11.39c0-2.24.27-4.49.46-6.73s.54-4.48,1-6.72a82.77,82.77,0,0,1,3.51-13.21A84.41,84.41,0,0,1,512,218.93a80.8,80.8,0,0,1,7.72-11.36,81.63,81.63,0,0,1,20.22-17.84c15.12-9.45,32.62-13.78,49.21-14a96.29,96.29,0,0,1,12.84.62,55.35,55.35,0,0,1,13.69,3.38,44.61,44.61,0,0,1,12.55,7.57,56.48,56.48,0,0,1,9.15,10.09A9.89,9.89,0,0,1,622,209.8l-.17-.19a35.52,35.52,0,0,0-6.52-5.88,23.08,23.08,0,0,0-7-3.24c-4.92-1.37-11.09-1.29-17.8-.52l-2.53.31-2.42.33c-.81.1-1.6.26-2.4.4s-1.6.27-2.38.46a70.79,70.79,0,0,0-9.21,2.57,63.5,63.5,0,0,0-8.61,3.72,59.87,59.87,0,0,0-7.81,4.81,51.74,51.74,0,0,0-19.76,28.29,52.31,52.31,0,0,0-1.62,8.59c-.2,1.45-.24,2.94-.34,4.41s-.07,3,0,4.48l.49,11c.14,3.9.23,7.88.19,11.95a134.77,134.77,0,0,1-2.34,25.53,81.18,81.18,0,0,1-4,13.71,61.42,61.42,0,0,1-7.52,13.87,53.39,53.39,0,0,1-12.11,12,55.64,55.64,0,0,1-15.07,7.6,69.28,69.28,0,0,1-7.71,2c-2.48.49-5,.86-7.59,1.11a67.74,67.74,0,0,1-15.76-.38,70.22,70.22,0,0,1-29.14-11.32,89.7,89.7,0,0,1-21.22-20.18,112.76,112.76,0,0,1-14-24,118.23,118.23,0,0,1-7.93-26.55l-.06-.38a23,23,0,0,1,45.36-7.88C435.23,267.07,435.31,267.68,435.37,268.23Z"/><path class="cls-30" d="M616.57,203.21A9.45,9.45,0,0,1,615,201.8l-.17-.19a35.52,35.52,0,0,0-6.52-5.88,23.08,23.08,0,0,0-7-3.24c-4.92-1.37-11.09-1.29-17.81-.52l-2.52.31-2.42.33c-.81.1-1.61.26-2.4.4s-1.6.27-2.38.46a70.79,70.79,0,0,0-9.21,2.57,63.5,63.5,0,0,0-8.61,3.72,59.87,59.87,0,0,0-7.81,4.81,51.74,51.74,0,0,0-19.76,28.29,52.31,52.31,0,0,0-1.62,8.59c-.2,1.45-.24,2.94-.34,4.41s-.07,3,0,4.48l.48,11c.15,3.9.23,7.88.2,11.95a134.77,134.77,0,0,1-2.34,25.53,81.18,81.18,0,0,1-4,13.71,61.42,61.42,0,0,1-7.52,13.87,53.39,53.39,0,0,1-12.11,12,55.64,55.64,0,0,1-15.07,7.6,69.28,69.28,0,0,1-7.71,2c-2.48.49-5,.86-7.59,1.11a67.74,67.74,0,0,1-15.76-.38,70.32,70.32,0,0,1-29.15-11.32,85.67,85.67,0,0,1-13.52-11.29,89.49,89.49,0,0,0,20.52,19.29,70.32,70.32,0,0,0,29.15,11.32,67.74,67.74,0,0,0,15.76.38c2.57-.25,5.11-.62,7.59-1.11a69.28,69.28,0,0,0,7.71-2,55.64,55.64,0,0,0,15.07-7.6,53.39,53.39,0,0,0,12.11-12,61.42,61.42,0,0,0,7.52-13.87,81.18,81.18,0,0,0,4-13.71,134.77,134.77,0,0,0,2.34-25.53c0-4.07,0-8.05-.2-11.95l-.48-11c-.1-1.5,0-3,0-4.48s.14-3,.34-4.41a52.31,52.31,0,0,1,1.62-8.59,51.74,51.74,0,0,1,19.76-28.29,59.87,59.87,0,0,1,7.81-4.81,63.5,63.5,0,0,1,8.61-3.72,70.79,70.79,0,0,1,9.21-2.57c.78-.19,1.58-.31,2.38-.46s1.59-.3,2.4-.4l2.42-.33,2.52-.31c6.72-.77,12.89-.85,17.81.52a23.08,23.08,0,0,1,7,3.24Z"/><path class="cls-29" d="M318.48,300.83a259.21,259.21,0,0,1-9.13,41.25,156,156,0,0,1-18.8,40.16,114.45,114.45,0,0,1-6.89,9.26,104.77,104.77,0,0,1-7.88,8.61,102,102,0,0,1-8.85,7.75l-2.35,1.79-2.33,1.65c-1.56,1.07-3.14,2.14-4.74,3.12a143.27,143.27,0,0,1-40.26,16.83,239.92,239.92,0,0,1-40.71,6.5c-6.69.53-13.38.9-20,1l-19.37.24c-6.36.08-12.62.23-18.72.63a112.73,112.73,0,0,0-17.43,2.25,40.7,40.7,0,0,0-7.3,2.32A14.92,14.92,0,0,0,89,447.25a6.72,6.72,0,0,0-1.85,4,17.62,17.62,0,0,0,.7,6.67l.07.27a7.71,7.71,0,0,1-14.61,4.87,33.88,33.88,0,0,1-2.71-12.22,24.85,24.85,0,0,1,.92-7.2,24,24,0,0,1,3.19-6.84,31.73,31.73,0,0,1,10-9.17,59,59,0,0,1,10.57-4.91,131.91,131.91,0,0,1,20.41-5.21c6.67-1.23,13.24-2.16,19.72-3l19.15-2.5c6.25-.89,12.38-1.73,18.47-2.77a209,209,0,0,0,34.89-8.78A109.05,109.05,0,0,0,237.47,385c1.08-.8,2.09-1.65,3.11-2.49l1.5-1.28,1.38-1.29a61.19,61.19,0,0,0,5.19-5.48,64.42,64.42,0,0,0,4.61-6.09c1.46-2.11,2.78-4.36,4.05-6.65a116.2,116.2,0,0,0,11-30.81,217.09,217.09,0,0,0,4.41-34.69,23,23,0,0,1,46,2.46c0,.68-.11,1.36-.2,2Z"/><path class="cls-30" d="M309.35,342.08a156,156,0,0,1-18.8,40.16,114.45,114.45,0,0,1-6.89,9.26,104.77,104.77,0,0,1-7.88,8.61,102,102,0,0,1-8.85,7.75l-2.35,1.79-2.33,1.65c-1.57,1.07-3.14,2.14-4.75,3.12a143.09,143.09,0,0,1-40.25,16.83,239.92,239.92,0,0,1-40.71,6.5c-6.69.53-13.38.9-20,1L137.2,439c-6.35.08-12.61.23-18.71.63a113,113,0,0,0-17.44,2.25,41.22,41.22,0,0,0-7.3,2.32A15.16,15.16,0,0,0,89,447.25a6.77,6.77,0,0,0-1.84,4,17.62,17.62,0,0,0,.7,6.67l.07.27a7.71,7.71,0,0,1-14.61,4.87c-.34-.85-.66-1.71-1-2.61l.12,0A7.71,7.71,0,0,0,77.94,451l-.07-.27a17.67,17.67,0,0,1-.7-6.68A6.77,6.77,0,0,1,79,440a14.81,14.81,0,0,1,4.74-3.09,39.64,39.64,0,0,1,7.3-2.32,114.24,114.24,0,0,1,17.44-2.26c6.1-.39,12.36-.54,18.71-.63l19.38-.23c6.58-.07,13.27-.44,20-1a237.94,237.94,0,0,0,40.71-6.5A143.05,143.05,0,0,0,247.5,407.2c1.61-1,3.18-2.05,4.75-3.13l2.33-1.65,2.35-1.79a100.25,100.25,0,0,0,8.85-7.74,103.3,103.3,0,0,0,7.88-8.62,112.72,112.72,0,0,0,6.89-9.26C289.09,362.3,313.69,328.33,309.35,342.08Z"/><path class="cls-29" d="M350.46,357.45c-4.89,8.19-9.6,15.56-14,22.94S328,395,324.64,402.14a108.15,108.15,0,0,0-7.74,21.06c-1.61,6.77-1.93,13-.9,18.3s3.52,9.9,8,14.69c4.34,4.62,10.26,8.8,17.4,12.54s15.1,7.26,23.51,11.14,17.35,8.29,26,14.44,16.9,14.42,22,25.22a50.92,50.92,0,0,1,4.7,17.26,52.8,52.8,0,0,1-1.5,17.41,66.21,66.21,0,0,1-15.67,28.11A87.17,87.17,0,0,1,376.2,600.7c-2.18,1.18-4.59,2.25-6.82,3.19-1.13.47-2.24.9-3.36,1.34l-3.32,1.23c-4.41,1.58-8.74,3-13,4.38-8.56,2.76-16.94,5.42-25,8.53S308.82,626,302.1,630.54,290,640.81,287.94,647.77l0,.11a5.49,5.49,0,0,1-10.65-2.65,37.65,37.65,0,0,1,6.46-14.37A56.94,56.94,0,0,1,294.2,620c7.66-6.16,16-10.68,24.35-14.73s16.82-7.47,25.06-10.9c4.12-1.71,8.19-3.41,12.09-5.19l2.88-1.34c.93-.46,1.87-.91,2.77-1.38s1.81-.93,2.62-1.42l1.25-.73,1.25-.79a66.44,66.44,0,0,0,17.22-15.41c4.6-6,7.79-12.66,8.82-19.1a27.79,27.79,0,0,0,0-9.28,25,25,0,0,0-3.11-8.29,33.12,33.12,0,0,0-6-7.29A44.8,44.8,0,0,0,375,518c-6.33-3.78-13.75-6.84-21.9-9.8s-16.85-5.9-25.93-9.82a99.56,99.56,0,0,1-27.34-16.77l-1.62-1.44-.8-.72-.77-.8-3-3.24c-.5-.55-1-1.06-1.49-1.66l-1.42-1.82a42.94,42.94,0,0,1-2.71-3.77,62.23,62.23,0,0,1-8-17,73.09,73.09,0,0,1-2.92-17.95,91.18,91.18,0,0,1,1-17,147.09,147.09,0,0,1,8.15-30.14c3.51-9.35,7.57-18.09,11.69-26.52s8.4-16.5,12.09-24a23,23,0,0,1,41.35,20.24,18.17,18.17,0,0,1-.88,1.63Z"/><path class="cls-30" d="M416.06,554.2a66.21,66.21,0,0,1-15.67,28.11A87.17,87.17,0,0,1,376.2,600.7c-1.64.88-3.4,1.71-5.12,2.46-.57.25-1.14.5-1.7.73l-2,.81-1.34.53-3.32,1.23c-4.41,1.58-8.74,3-13,4.38l-7.83,2.53c-5.85,1.91-11.59,3.85-17.18,6-8.05,3.1-15.86,6.61-22.57,11.17S290,640.81,287.94,647.77l0,.11a5.49,5.49,0,0,1-6.82,3.72,5.32,5.32,0,0,1-1.57-.76,5.08,5.08,0,0,0,.39-1l0-.11c2.05-7,7.47-12.69,14.16-17.23s14.52-8.07,22.57-11.17,16.45-5.77,25-8.53c4.28-1.39,8.61-2.8,13-4.38l3.32-1.23c1.12-.44,2.23-.87,3.36-1.34,1.48-.62,3-1.31,4.56-2,.77-.37,1.53-.75,2.26-1.15l1.08-.58a86.6,86.6,0,0,0,23.11-17.81,66.21,66.21,0,0,0,15.67-28.11,52.54,52.54,0,0,0,1.49-17.41,50.68,50.68,0,0,0-4.69-17.26c-5.11-10.8-13.41-19.19-22-25.22s-17.56-10.57-26-14.44c-5.88-2.71-11.56-5.22-16.87-7.78-1.76-.85-3.47-1.7-5.14-2.57l-1.5-.79c-7.14-3.74-13.06-7.92-17.4-12.54-4.47-4.79-7-9.34-8-14.69s-.71-11.53.89-18.3a108.87,108.87,0,0,1,7.75-21.06c3.38-7.18,7.46-14.42,11.83-21.75s9.1-14.75,14-22.94l0-.06a18.17,18.17,0,0,0,.88-1.63,22.63,22.63,0,0,0,1-2.4h0c.19-.52.36-1,.5-1.57a16.66,16.66,0,0,1,8.83-8.94,23,23,0,0,1-2.34,10.92,18.17,18.17,0,0,1-.88,1.63l0,.06q-1.2,2-2.39,4c-4,6.64-7.93,12.81-11.6,19-4.37,7.33-8.45,14.57-11.83,21.75a108.87,108.87,0,0,0-7.75,21.06c-1.6,6.77-1.92,13-.89,18.3s3.52,9.9,8,14.69a64.52,64.52,0,0,0,16.91,12.27c.16.1.32.18.49.27,1.44.77,2.91,1.52,4.42,2.27,5.93,2.95,12.39,5.78,19.09,8.87,8.39,3.87,17.35,8.29,26,14.44s16.9,14.42,22,25.22a50.68,50.68,0,0,1,4.69,17.26A52.54,52.54,0,0,1,416.06,554.2Z"/><path class="cls-29" d="M402.88,321.52c3.84,7.76,8.32,16.13,12.58,24.79a292.92,292.92,0,0,1,12.06,27.47c1.79,4.86,3.42,9.89,4.81,15.12a114.72,114.72,0,0,1,3.19,16.42,88.47,88.47,0,0,1,.36,17.89,69.8,69.8,0,0,1-4.17,18.64,63.51,63.51,0,0,1-9.59,16.89c-.49.61-1,1.29-1.48,1.86l-1.56,1.69-3.14,3.36c-1.09,1-2.22,2-3.34,3a42.51,42.51,0,0,1-3.42,2.84c-9.33,7.18-19.19,11.86-28.39,15.58s-18,6.61-26.05,9.76a94.61,94.61,0,0,0-20.93,10.75c-5.66,4.21-9.75,9.18-11.59,14.71a25.11,25.11,0,0,0-1.26,8.85,31.06,31.06,0,0,0,2,9.66,51.08,51.08,0,0,0,12.33,18.45,66.68,66.68,0,0,0,9.14,7.53l1.23.85,1.27.8,1.28.79,1.51.9c2.05,1.21,4.07,2.45,6.1,3.69q12.1,7.45,23.68,15.71c7.72,5.51,15.25,11.34,22.51,17.6a173.77,173.77,0,0,1,20.49,20.64,91.16,91.16,0,0,1,8.62,12.38A51.87,51.87,0,0,1,437,655a6.54,6.54,0,0,1-12.67,3.24l-.07-.22a38.73,38.73,0,0,0-5.16-10.47,77.09,77.09,0,0,0-8-9.77,157.6,157.6,0,0,0-19.9-17.23c-7.16-5.3-14.65-10.26-22.35-14.94s-15.58-9.09-23.57-13.23q-3-1.56-6-3l-1.53-.76-1.74-.91-1.74-.92-1.7-1a90,90,0,0,1-13-9.13,75.49,75.49,0,0,1-20.1-26,56.84,56.84,0,0,1-4.87-17.08,52.26,52.26,0,0,1,1.11-18.6,53.42,53.42,0,0,1,7.59-17,66.33,66.33,0,0,1,11.75-13.22c8.71-7.41,18.07-12.58,26.95-16.84s17.43-7.82,25.11-11.59,14.29-7.81,19.29-12.35a17.15,17.15,0,0,0,1.77-1.74c.55-.59,1.14-1.15,1.68-1.74s.95-1.25,1.43-1.85l.73-.91a9.35,9.35,0,0,0,.59-.91,25.8,25.8,0,0,0,3.44-7.46c1.45-5.2,1.42-11.34.07-18.2a75.5,75.5,0,0,0-2.95-10.59c-1.26-3.62-2.77-7.29-4.45-11a249.88,249.88,0,0,0-12-22.46c-4.47-7.61-9.3-15.21-14.31-23.68h0A23,23,0,0,1,402.06,320C402.34,320.48,402.64,321,402.88,321.52Z"/><path class="cls-30" d="M433.92,662a6.15,6.15,0,0,1-2,.79,6.54,6.54,0,0,1-7.62-4.52l-.07-.22a38.73,38.73,0,0,0-5.16-10.47,76.33,76.33,0,0,0-8-9.77,156.81,156.81,0,0,0-19.89-17.23c-7.16-5.3-14.65-10.26-22.35-14.94l-1.49-.9-1.42-.85c-6.77-4-13.68-7.86-20.66-11.48-.84-.44-1.68-.87-2.53-1.29-1.16-.6-2.32-1.19-3.49-1.76l-1.53-.76-1.74-.91-1.74-.92-1.7-1a90,90,0,0,1-13-9.13,75.49,75.49,0,0,1-20.1-26,57.14,57.14,0,0,1-4.88-17.08,52.49,52.49,0,0,1,1.12-18.6,53.42,53.42,0,0,1,7.59-17,66.33,66.33,0,0,1,11.75-13.22,110.07,110.07,0,0,1,19.82-13.24c2-1.08,4-2.09,6-3.06l1.12-.54c6.69-3.2,13.16-6,19.23-8.8,2-.93,4-1.85,5.88-2.79,7.66-3.75,14.29-7.81,19.29-12.35a17.15,17.15,0,0,0,1.77-1.74c.55-.59,1.14-1.15,1.68-1.74s.95-1.25,1.43-1.85l.73-.91a9.35,9.35,0,0,0,.59-.91,25.8,25.8,0,0,0,3.44-7.46c1.45-5.2,1.42-11.34.07-18.2a75.5,75.5,0,0,0-2.95-10.59c-1.26-3.62-2.77-7.29-4.45-11a249.88,249.88,0,0,0-12-22.46c-1.45-2.47-2.94-4.93-4.46-7.43h0c-3.05-5-6.23-10.13-9.48-15.62,5.48,1.72,11.51,6.85,11.51,6.85h0c3.61,6,7.12,11.59,10.42,17.22a249.88,249.88,0,0,1,12,22.46c1.68,3.7,3.19,7.37,4.45,11a75.5,75.5,0,0,1,2.95,10.59c1.35,6.86,1.38,13-.07,18.2a25.8,25.8,0,0,1-3.44,7.46,9.35,9.35,0,0,1-.59.91l-.73.91c-.48.6-1,1.22-1.43,1.85s-1.13,1.15-1.68,1.74a17.15,17.15,0,0,1-1.77,1.74c-5,4.54-11.63,8.6-19.29,12.35-3.84,1.89-7.89,3.72-12.1,5.61s-8.56,3.85-13,6c-1.39.67-2.8,1.36-4.21,2.08q-2.88,1.46-5.78,3.09a105.92,105.92,0,0,0-17,11.67A66.33,66.33,0,0,0,311.32,499a53.42,53.42,0,0,0-7.59,17,52.49,52.49,0,0,0-1.12,18.6,57.14,57.14,0,0,0,4.88,17.08,75.49,75.49,0,0,0,20.1,26,90,90,0,0,0,13,9.13l1.7,1,1.74.92,1.74.91,1.53.76q3,1.48,6,3,8.09,4.18,16,8.75l1.8,1c1.93,1.13,3.86,2.28,5.77,3.44,7.7,4.68,15.19,9.64,22.35,14.94a156.81,156.81,0,0,1,19.89,17.23,76.33,76.33,0,0,1,8,9.77A38.73,38.73,0,0,1,432.23,659l.07.22A6.5,6.5,0,0,0,433.92,662Z"/><path class="cls-31" d="M113.82,193.19a41,41,0,0,1-27.31,2.38c-9.17-2.44-17.71-6.23-24.91,1.93-15,17,17,33.32,28.67,19.61,1.76-2.08,5.64-4.34,4.18.4-1.85,6-7.84,9.38-12.29,10.5-11,2.75-25.27-.87-31-11.35-9.49-17.31,9.16-36.11,26.16-35.41,10.34.43,17.58,3.75,27.67-.38,4.73-1.94,10.34-3.71,12.85,2.68A7.58,7.58,0,0,1,113.82,193.19Z"/><path class="cls-32" d="M108.25,176h0a22.67,22.67,0,0,1,22.67,22.67v3.74a0,0,0,0,1,0,0H85.58a0,0,0,0,1,0,0v-3.74A22.67,22.67,0,0,1,108.25,176Z" transform="translate(-55.11 333.65) rotate(-101.7)"/><path class="cls-32" d="M87.05,438.84s-10.4-72-6.42-118.71C66.71,322.28,57.21,298.64,55,268.36c-15.88,14.16-9.5,113.57,18.82,167.75Z"/><path class="cls-31" d="M100,481.08l-11.7-45.84a6.13,6.13,0,0,0-2.8-3.73,6.07,6.07,0,0,0-4.61-.66,27.3,27.3,0,0,0-19.7,33.21l1.21,4.73a27.3,27.3,0,0,0,33.19,19.7A6.09,6.09,0,0,0,100,481.08Zm-29.71-14.3L69.1,462a19.2,19.2,0,0,1,8.16-20.84,3.1,3.1,0,0,1,4.66,1.87l8.73,34.21a3.1,3.1,0,0,1-3.19,3.87A19.19,19.19,0,0,1,70.31,466.78Z"/><path class="cls-29" d="M85.55,459.81c0-.5-.08-.07.13.44a7.73,7.73,0,0,0,1,1.89,14.25,14.25,0,0,0,3.58,3.65A12.13,12.13,0,0,0,99.68,468c3.31-.6,6.73-2.76,9.72-5.76.75-.74,1.49-1.57,2.17-2.36a22.11,22.11,0,0,0,4.37-7.83,30.47,30.47,0,0,0,1-12.66,48.1,48.1,0,0,0-3.52-13.08,52.85,52.85,0,0,0-6.88-11.91,34,34,0,0,0-4.57-4.91,13.38,13.38,0,0,0-5-2.95l-.12,0a3.12,3.12,0,0,1,1.27-6.11,15,15,0,0,1,4.43,1.55,25.28,25.28,0,0,1,3.59,2.29,41.49,41.49,0,0,1,5.89,5.55,60.86,60.86,0,0,1,8.76,13.11A57.06,57.06,0,0,1,126,438.07a40.11,40.11,0,0,1-.34,16.7,33.17,33.17,0,0,1-3.21,8.14A34.36,34.36,0,0,1,120,466.6a39.54,39.54,0,0,1-2.69,3.22,36,36,0,0,1-6.55,5.72,26.28,26.28,0,0,1-8.55,3.84,23.33,23.33,0,0,1-9.81.27,25.28,25.28,0,0,1-9-3.6,26.6,26.6,0,0,1-7-6.52A20.86,20.86,0,0,1,73.75,465a13.61,13.61,0,0,1-1.1-6.78,6.5,6.5,0,0,1,12.9,1.62Z"/><path class="cls-30" d="M118.08,456.21a25.22,25.22,0,0,1-2.88,6.09,24.76,24.76,0,0,1-2,2.67c-.76.89-1.6,1.82-2.43,2.64-3.35,3.36-7.18,5.78-10.88,6.45a12.61,12.61,0,0,1-2.44.24,14,14,0,0,1-8.12-2.74,16,16,0,0,1-4-4.09c-.5-.74-7.72-14-6.72-16,4,1,7,3,7,7,0,.12,0,1.57.08,1.75a7.73,7.73,0,0,0,1,1.89,14.25,14.25,0,0,0,3.58,3.65A12.12,12.12,0,0,0,99.67,468c3.32-.6,6.74-2.76,9.73-5.76.75-.74,1.49-1.57,2.17-2.36a22.11,22.11,0,0,0,4.37-7.83,30.47,30.47,0,0,0,1-12.66,48.1,48.1,0,0,0-3.52-13.08,52.85,52.85,0,0,0-6.88-11.91,34,34,0,0,0-4.57-4.91,13.34,13.34,0,0,0-5-2.95l-.12,0a3.14,3.14,0,0,1-2.39-3.07,3.45,3.45,0,0,0,2.28,1.8l.13,0a14.81,14.81,0,0,1,5.56,3.3,38.27,38.27,0,0,1,5.11,5.49,59.54,59.54,0,0,1,7.7,13.33,53.77,53.77,0,0,1,3.94,14.63A34,34,0,0,1,118.08,456.21Z"/><rect class="cls-33" x="562.6" y="460.5" width="58" height="132"/><path class="cls-29" d="M434.48,296.17c.92,16.88,3.23,33.34,8.1,48.21a98.17,98.17,0,0,0,9.33,20.68,74.44,74.44,0,0,0,6.3,8.86c1.15,1.38,2.34,2.71,3.59,4,.63.62,1.23,1.29,1.9,1.87l1,.91.49.45.58.5a131.36,131.36,0,0,0,41.46,24.45,91.93,91.93,0,0,0,22.84,5,70.61,70.61,0,0,0,11.36,0l.7,0h.18l.24,0,.47-.06,1.91-.22c1.28-.13,2.55-.25,3.82-.35,2.55-.19,5.09-.32,7.63-.37a143,143,0,0,1,30,2.67A147,147,0,0,1,615,421.26a118.11,118.11,0,0,1,26.39,15.06,75.2,75.2,0,0,1,11.7,11.1,44.77,44.77,0,0,1,8.83,15.77,30.93,30.93,0,0,1,1.26,10.39,27.91,27.91,0,0,1-2.7,10.5,31.33,31.33,0,0,1-5.74,8.24,41.67,41.67,0,0,1-6.87,5.77,65.66,65.66,0,0,1-14.36,7.16,114.1,114.1,0,0,1-14.34,4.15,204.5,204.5,0,0,1-28.35,4c-9.38.73-18.72,1-28,1a7.92,7.92,0,0,1-.42-15.83h0c9-.46,17.85-1.18,26.61-2.33a184.87,184.87,0,0,0,25.6-5,94.91,94.91,0,0,0,11.75-4.06,46,46,0,0,0,9.83-5.51,15.52,15.52,0,0,0,5.3-6.24,6.61,6.61,0,0,0,.48-2.72,9.47,9.47,0,0,0-.64-3.09,23.77,23.77,0,0,0-5.05-7.6,53,53,0,0,0-8.55-7.23A94.78,94.78,0,0,0,606.08,444a120.7,120.7,0,0,0-48.56-6.81q-3,.22-6,.61c-1,.13-2,.28-3,.43l-3.28.56a99.79,99.79,0,0,1-15.94,1.47,121.75,121.75,0,0,1-31-3.87,155.53,155.53,0,0,1-28.74-10.54,172.23,172.23,0,0,1-26.18-15.57l-.78-.56-.82-.63-1.66-1.27c-1.13-.83-2.16-1.75-3.24-2.64-2.12-1.8-4.17-3.69-6.13-5.65A111.44,111.44,0,0,1,420,387a137.78,137.78,0,0,1-15.8-27.81c-8.24-19.24-12.63-39-15.44-58.37l0-.1a23,23,0,0,1,45.58-6.62C434.38,294.79,434.44,295.5,434.48,296.17Z"/><path class="cls-30" d="M641.71,474.84a7.89,7.89,0,0,1,.27,1.89,6.61,6.61,0,0,1-.48,2.72,15.48,15.48,0,0,1-5.31,6.24,45.64,45.64,0,0,1-9.82,5.51,94.91,94.91,0,0,1-11.75,4.06,184.87,184.87,0,0,1-25.6,5c-8.76,1.15-17.66,1.87-26.61,2.33h0a7.89,7.89,0,0,0-7.24,5.93,8,8,0,0,1-.26-2,7.92,7.92,0,0,1,7.5-7.9h0c9-.46,17.85-1.18,26.61-2.33a184.87,184.87,0,0,0,25.6-5,94.91,94.91,0,0,0,11.75-4.06,45.64,45.64,0,0,0,9.82-5.51,15.48,15.48,0,0,0,5.31-6.24C641.58,475.24,641.65,475,641.71,474.84Z"/><path class="cls-30" d="M557.52,437.17q-3,.22-6,.61c-1,.13-2,.28-3,.43l-3.28.56a99.9,99.9,0,0,1-15.94,1.47,121.75,121.75,0,0,1-31-3.87,155.89,155.89,0,0,1-28.75-10.54,172.13,172.13,0,0,1-26.17-15.57l-.78-.56-.83-.63-1.65-1.27c-1.13-.83-2.16-1.75-3.24-2.64-2.13-1.8-1.43-.78-2.86-3.16-3-5-9.75-14.62-13-19-6.52-8.77-14-21-20.4-30.5,10.44,10.3,16.48,19.23,23,28,3.25,4.38,6.2,7.09,10.13,11,2,2,4,3.85,6.13,5.65,1.08.89,2.11,1.81,3.24,2.64l1.65,1.27.83.63.78.56a172.13,172.13,0,0,0,26.17,15.57,155.89,155.89,0,0,0,28.75,10.54,121.75,121.75,0,0,0,31,3.87,99.9,99.9,0,0,0,15.94-1.47l3.28-.56c1-.15,2-.3,3-.43q3-.39,6-.61A120.7,120.7,0,0,1,609.08,436a94.78,94.78,0,0,1,21.66,10.83,53.87,53.87,0,0,1,8.55,7.23,23.77,23.77,0,0,1,5.05,7.6,7.15,7.15,0,0,1,.64,3.09c-.79,6.68-2.8,12-3.15,6.65a11.6,11.6,0,0,0-.49-1.74,23.77,23.77,0,0,0-5.05-7.6,53.87,53.87,0,0,0-8.55-7.23A94.78,94.78,0,0,0,606.08,444,120.7,120.7,0,0,0,557.52,437.17Z"/><path class="cls-29" d="M626.17,532.54c-5.69,1.06-11.28,2-16.94,2.93s-11.31,1.75-17,2.49-11.43,1.38-17.27,1.78c-2.93.19-5.87.33-8.94.29-.77,0-1.54,0-2.35-.08l-1.19-.08-1.27-.13c-.41,0-.83-.1-1.31-.19s-.9-.16-1.39-.28-1.07-.31-1.6-.48a14.08,14.08,0,0,1-2-1,5,5,0,1,1,5.38-8.43c0-.07-.09-.11-.06-.09a3.25,3.25,0,0,1,.45.08l.7.08a5.92,5.92,0,0,0,.79.06l.86,0H564c.61,0,1.26,0,1.91-.06,2.59-.14,5.29-.44,8-.79,5.43-.73,10.92-1.71,16.4-2.78s11-2.27,16.44-3.51,11-2.57,16.33-3.94h0a7.22,7.22,0,1,1,3.57,14Z"/><path class="cls-30" d="M632,526.38c0-.26-.09-.51-.15-.77a7.22,7.22,0,0,0-8.78-5.2h0c-5.37,1.37-10.88,2.68-16.34,3.93s-11,2.43-16.43,3.51-11,2.06-16.4,2.78c-2.71.36-5.41.66-8,.79-.65,0-1.3.07-1.91.06H563l-.86,0a6.06,6.06,0,0,1-.79-.05l-.7-.08a2.26,2.26,0,0,0-.44-.08.09.09,0,0,1,0,.09,5,5,0,0,0-6.91,1.53,4.93,4.93,0,0,0-.68,1.69,4.93,4.93,0,0,1,.68-3.65,5,5,0,0,1,6.91-1.53.09.09,0,0,0,0-.09,3.39,3.39,0,0,1,.44.08l.7.08a5.92,5.92,0,0,0,.79.06l.86,0H564c.61,0,1.26,0,1.91-.06,2.59-.14,5.29-.44,8-.79,5.43-.73,10.92-1.71,16.4-2.78s11-2.27,16.43-3.51,11-2.57,16.34-3.94h0a7.23,7.23,0,0,1,8.78,5.21A7,7,0,0,1,632,526.38Z"/><path class="cls-29" d="M623.4,555c-8.14,1.23-16.19,2.27-24.32,3.18s-16.24,1.69-24.41,2.23-16.36.88-24.62.67a103.36,103.36,0,0,1-12.47-1,41.62,41.62,0,0,1-6.33-1.41,20.66,20.66,0,0,1-3.2-1.27,12.05,12.05,0,0,1-3.13-2.21,2.37,2.37,0,0,1,3.29-3.42l.07.06a11.07,11.07,0,0,0,4.39,2,38.12,38.12,0,0,0,5.59,1,98.55,98.55,0,0,0,11.82.41c8-.15,16-.85,24-1.74s16-2,24-3.28S614,547.56,621.8,546h0a4.57,4.57,0,0,1,1.77,9Z"/><path class="cls-30" d="M627.17,551.49a4.56,4.56,0,0,0-5.33-3.49h0C614,549.56,606,551,598,552.21s-16,2.38-24,3.28-16,1.59-24,1.74a98.55,98.55,0,0,1-11.82-.41,38.12,38.12,0,0,1-5.59-1,11.07,11.07,0,0,1-4.39-2l-.08-.06a2.37,2.37,0,0,0-3.25.06,2.3,2.3,0,0,0-.48.7,2.36,2.36,0,0,1,3.73-2.76l.08.06a11.07,11.07,0,0,0,4.39,2,38.12,38.12,0,0,0,5.59,1,98.55,98.55,0,0,0,11.82.41c8-.15,16-.85,24-1.74s16-2,24-3.28S614,547.56,621.8,546h0a4.56,4.56,0,0,1,5.36,3.59A4.49,4.49,0,0,1,627.17,551.49Z"/><path class="cls-33" d="M562.6,592.5h12a0,0,0,0,1,0,0v77a6,6,0,0,1-6,6h0a6,6,0,0,1-6-6v-77A0,0,0,0,1,562.6,592.5Z"/><path class="cls-33" d="M608.6,592.5h12a0,0,0,0,1,0,0v77a6,6,0,0,1-6,6h0a6,6,0,0,1-6-6v-77A0,0,0,0,1,608.6,592.5Z"/><path class="cls-33" d="M562,486.5h7.29a4.35,4.35,0,0,1,4.35,4.35V562.5a8,8,0,0,1-8,8h0a8,8,0,0,1-8-8V490.85A4.35,4.35,0,0,1,562,486.5Z"/><path class="cls-33" d="M613,486.5h7.29a4.35,4.35,0,0,1,4.35,4.35V564.5a8,8,0,0,1-8,8h0a8,8,0,0,1-8-8V490.85A4.35,4.35,0,0,1,613,486.5Z"/><path class="cls-33" d="M562.6,461.5v-30s22.84,23,22.42,30Z"/><path class="cls-33" d="M620.6,461.5v-30s-22.84,23-22.42,30Z"/><circle class="cls-31" cx="579.6" cy="476.5" r="7"/><circle class="cls-31" cx="605.6" cy="476.5" r="7"/><path class="cls-29" d="M295.6,194.5v49H266.83a12.22,12.22,0,0,1-12.23-12.23V206.73a12.22,12.22,0,0,1,12.23-12.23Z"/><path class="cls-29" d="M421.83,194.5H450.6a0,0,0,0,1,0,0v49a0,0,0,0,1,0,0H421.83a12.23,12.23,0,0,1-12.23-12.23V206.73A12.23,12.23,0,0,1,421.83,194.5Z" transform="translate(860.2 438) rotate(180)"/><path class="cls-33" d="M637.3,229.11c-9.62-2.76-17-6.93-21.84-12.39-4.63-5.19-6.76-11.27-6.16-17.57,1.22-12.68,13.35-22.88,28.84-24.25l.78,8.87c-12.71,1.12-20.06,9-20.75,16.23-.84,8.75,7.23,16.43,21.59,20.55Z"/><rect class="cls-33" x="636.75" y="171.38" width="58.77" height="64.12"/><rect class="cls-34" x="644.46" y="171.38" width="2.97" height="64.12"/><rect class="cls-34" x="657.72" y="171.38" width="2.97" height="64.12"/><rect class="cls-34" x="670.98" y="171.38" width="2.97" height="64.12"/><rect class="cls-34" x="684.24" y="171.38" width="2.97" height="64.12"/><rect class="cls-32" x="636.75" y="185.04" width="58.77" height="8.31"/><rect class="cls-32" x="636.75" y="211.75" width="58.77" height="8.31"/><path class="cls-29" d="M636.25,195.85a45.81,45.81,0,0,1,7.52,12,35.82,35.82,0,0,1,2.14,7.09,32,32,0,0,1,.51,3.86,27.48,27.48,0,0,1-.1,4.14,20.24,20.24,0,0,1-2.77,8.59,18.2,18.2,0,0,1-6.74,6.44c-.65.33-1.31.65-2,.95s-1.3.45-2,.66l-1,.3-.94.18-1.89.32c-1.21.11-2.42.2-3.58.19s-2.3-.06-3.38-.2a51.18,51.18,0,0,1-12.06-2.93c-1.9-.63-3.69-1.43-5.49-2.18s-3.52-1.62-5.24-2.47a175,175,0,0,1-19.43-11.66,2.46,2.46,0,0,1,2.39-4.27h0a172.16,172.16,0,0,0,20.28,7.83c1.71.5,3.42,1,5.12,1.41s3.41.81,5.1,1,3.35.47,5,.65l2.41.09c.79,0,1.54-.06,2.31-.07s1.44-.19,2.15-.26,1.3-.31,1.91-.47l.81-.32.39-.15.32-.2c.2-.13.44-.23.61-.36a5.58,5.58,0,0,1,.46-.39,2.88,2.88,0,0,0,.8-1.47,6,6,0,0,0,0-2,12.07,12.07,0,0,0-.28-1.38c-.2-.52-.3-1-.56-1.56a18.74,18.74,0,0,0-1.74-3.25,26.28,26.28,0,0,0-5.42-5.84,10.17,10.17,0,0,1,12.65-15.92,10.63,10.63,0,0,1,1.33,1.26Z"/><path class="cls-30" d="M632.14,223.09a3.29,3.29,0,0,1-.9,1.65,4,4,0,0,0-.5.44c-.2.14-.47.25-.69.4l-.36.22-.44.17-.9.36-.11,0c.16-.1.34-.19.48-.29a5.58,5.58,0,0,1,.46-.39,3,3,0,0,0,.8-1.47,6.27,6.27,0,0,0,0-2,12.07,12.07,0,0,0-.28-1.38c-.2-.52-.3-1-.56-1.56a19.45,19.45,0,0,0-1.74-3.25,26.1,26.1,0,0,0-5.43-5.84,10.15,10.15,0,0,1-3.1-11.74,11.36,11.36,0,0,0,4.3,8.92,29.22,29.22,0,0,1,6.08,6.55,20.53,20.53,0,0,1,1.95,3.64c.3.61.4,1.16.63,1.75s.28,1.1.31,1.55A6.89,6.89,0,0,1,632.14,223.09Z"/><path class="cls-32" d="M456.17,156.5H249L229.1,136.57h0a15.07,15.07,0,0,1,15.07-15.07H461a15.07,15.07,0,0,1,15.07,15.07h0Z"/><polygon class="cls-32" points="437.6 142.85 267.6 142.85 317.45 56.5 387.75 56.5 437.6 142.85"/><rect class="cls-29" x="347.13" y="94.23" width="26.47" height="9.45"/><polygon class="cls-29" points="335.79 107.46 335.79 116.92 373.6 116.92 373.6 107.46 362.26 107.46 335.79 107.46"/><polygon class="cls-29" points="324.44 120.7 324.44 130.15 373.6 130.15 373.6 120.7 350.91 120.7 324.44 120.7"/><rect class="cls-33" x="269.6" y="200.5" width="35" height="37" rx="8.27"/><path class="cls-33" d="M424.52,175C391.7,200,348.67,210.61,317.4,215.06c-7.7,1.09-15,1.88-21.8,2.44-10.61.88-19.85,1.2-27,1.27l-3.43,0c-4.78,0-8.38-.1-10.53-.19v-8c2.56.1,7.83.24,15.09.11,7-.11,15.86-.46,25.91-1.32,36.31-3.08,88.27-12.77,125.23-41.66Z"/><rect class="cls-33" x="400.52" y="200.5" width="35" height="37" rx="8.27" transform="translate(836.04 438) rotate(180)"/><path class="cls-33" d="M280.6,175c32.82,25.07,75.85,35.64,107.12,40.09,7.7,1.09,15,1.88,21.8,2.44,10.61.88,19.85,1.2,27,1.27l3.43,0c4.78,0,8.38-.1,10.53-.19v-8c-2.56.1-7.83.24-15.09.11-7-.11-15.86-.46-25.91-1.32-36.31-3.08-88.27-12.77-125.23-41.66Z"/><path class="cls-30" d="M374.33,350.92l-2,8.77c-10.3-11.78-24.23,1.72-24.23,1.72l-3.69-6.05h0a13.67,13.67,0,0,1,.5-1.57,16.66,16.66,0,0,1,8.83-8.94,14.75,14.75,0,0,1,5.89-1.34,10.68,10.68,0,0,1,3.22.57C368.3,345.79,374.33,350.92,374.33,350.92Z"/><ellipse class="cls-32" cx="292.6" cy="289" rx="2" ry="5.5"/><ellipse class="cls-32" cx="199.6" cy="267" rx="2" ry="5.5"/><ellipse class="cls-32" cx="293.1" cy="307.5" rx="7" ry="2.5" transform="translate(-129.65 265.76) rotate(-40.73)"/><ellipse class="cls-32" cx="198.1" cy="245.5" rx="2.5" ry="6" transform="translate(-96.21 131.94) rotate(-30)"/><ellipse class="cls-32" cx="236.6" cy="331.5" rx="7" ry="2"/><ellipse class="cls-32" cx="217.1" cy="411.5" rx="6.5" ry="2"/><ellipse class="cls-32" cx="203.6" cy="418.5" rx="4" ry="2" transform="translate(-144.46 109.55) rotate(-22.46)"/><ellipse class="cls-32" cx="317.6" cy="358.5" rx="3" ry="5"/><ellipse class="cls-32" cx="312.1" cy="371.5" rx="2.5" ry="5"/><ellipse class="cls-32" cx="303.6" cy="466" rx="1.5" ry="6" transform="translate(-243.36 365.19) rotate(-46.47)"/><ellipse class="cls-32" cx="421.1" cy="437" rx="3.5" ry="6.5"/><ellipse class="cls-32" cx="400.1" cy="554" rx="3.5" ry="6.5"/><ellipse class="cls-32" cx="407.6" cy="450.5" rx="6" ry="2" transform="translate(-109.38 769.59) rotate(-79.55)"/><ellipse class="cls-32" cx="488.6" cy="328" rx="7" ry="3.5"/><ellipse class="cls-32" cx="473.1" cy="337" rx="4.5" ry="1.5"/><ellipse class="cls-32" cx="510.1" cy="416" rx="4.5" ry="1.5"/><ellipse class="cls-32" cx="522.1" cy="217" rx="5.5" ry="1.5" transform="translate(17.28 471.62) rotate(-49.33)"/><ellipse class="cls-32" cx="463.1" cy="396.5" rx="5.5" ry="4"/><ellipse class="cls-32" cx="526.1" cy="420.5" rx="7.5" ry="3"/><ellipse class="cls-32" cx="344.1" cy="577.5" rx="3" ry="7.5" transform="translate(-324.7 509.59) rotate(-53.41)"/><ellipse class="cls-32" cx="421.1" cy="302" rx="2.5" ry="7.5" transform="translate(31.53 643.7) rotate(-76.9)"/><ellipse class="cls-32" cx="409.22" cy="308.5" rx="2.94" ry="6" transform="matrix(0.35, -0.94, 0.94, 0.35, -24.17, 582)"/><path class="cls-32" d="M358.55,245.54a5.56,5.56,0,0,1,0,.65c0,.17,0,.31,0,.44,0,.28,0,.55-.05.79-.05.51-.11,1-.17,1.44-.14.92-.31,1.81-.52,2.68a32.9,32.9,0,0,1-14.32,20.34,37.73,37.73,0,0,1-8.35,3.95,52.72,52.72,0,0,1-16.73,2.38,91.76,91.76,0,0,1-15.85-1.6,1.12,1.12,0,0,1,.07-2.22h0a88.92,88.92,0,0,0,14.88-2.79,44.09,44.09,0,0,0,12.84-5.81,20.78,20.78,0,0,0,7.59-9.05,15.86,15.86,0,0,0,1.16-5.09,15,15,0,0,0,0-2.51c-.05-.4-.1-.79-.18-1.15a4.29,4.29,0,0,0-.13-.49.46.46,0,0,0-.07-.17s0-.05,0,0,0,0,0,.17a10,10,0,1,1,19.9-1.92Z"/><path class="cls-32" d="M375.59,247.46c0-.2,0-.16,0-.17s0,0,0,0a.45.45,0,0,0-.08.17,4.4,4.4,0,0,0-.12.49,9.89,9.89,0,0,0-.18,1.15,15,15,0,0,0,0,2.51,16.11,16.11,0,0,0,1.15,5.09,20.85,20.85,0,0,0,7.59,9.05,44.21,44.21,0,0,0,12.84,5.81,88.85,88.85,0,0,0,14.89,2.79h0a1.12,1.12,0,0,1,1,1.24,1.1,1.1,0,0,1-.92,1,91.76,91.76,0,0,1-15.85,1.6,52.72,52.72,0,0,1-16.73-2.38,37.73,37.73,0,0,1-8.35-3.95,32.44,32.44,0,0,1-7.42-6.5,33,33,0,0,1-5.3-8.82,34.59,34.59,0,0,1-1.61-5c-.2-.87-.37-1.76-.51-2.68-.06-.47-.13-.93-.17-1.44,0-.24,0-.51-.05-.79,0-.13,0-.27,0-.44s0-.29,0-.65a10,10,0,0,1,19.91,1.92Z"/></svg>