<svg id="Layer_1" data-name="Layer 1" xmlns="http://www.w3.org/2000/svg" xmlns:xlink="http://www.w3.org/1999/xlink" viewBox="0 0 732 732"><defs><style>.cls-1{fill:none;}.cls-2{clip-path:url(#clip-path);}.cls-3{fill:#f59120;}.cls-4{opacity:0.25;}.cls-5{fill:#f7941e;}.cls-6{fill:#fff;}.cls-7{fill:#d25004;}.cls-8{fill:#f48c7f;}.cls-9{fill:#603917;}.cls-10{fill:#324a5e;}.cls-11{fill:#4c6575;}.cls-12{fill:#184655;}.cls-13{fill:#f5b568;}.cls-14{fill:#f05640;}.cls-15{opacity:0.5;}.cls-16{fill:#754c24;}</style><clipPath id="clip-path"><rect class="cls-1" width="732" height="732" rx="50.1"/></clipPath></defs><title>regulament</title><g class="cls-2"><rect class="cls-3" width="732" height="732"/><g class="cls-4"><circle class="cls-5" cx="79" cy="647.33" r="96.5"/><path class="cls-6" d="M91.28,631c0-.7,0-1.38.1-2.05H83.09V633h8.29C91.32,632.34,91.28,631.66,91.28,631Z"/><path class="cls-6" d="M106.44,649.38h5.3V636.73a6.14,6.14,0,1,1,4.09,0v12.65h5.29l5.74-5.75A18.2,18.2,0,0,0,114,612.55h-.41a18.21,18.21,0,0,0-12.88,31.08Z"/><circle class="cls-6" cx="113.78" cy="630.97" r="2.05"/><path class="cls-6" d="M107.64,653.47h12.28v4.09H107.64Z"/><circle class="cls-6" cx="113.78" cy="684.16" r="10.23"/><path class="cls-6" d="M132.3,689.7l4-1v-9.08l-5-1.25-1-2.5,2.65-4.41L126.49,665l-4.42,2.65-2.5-1-1.25-5h-9.08l-1.25,5-2.49,1L101.08,665l-6.42,6.42,2.65,4.41-1,2.34-1.1.41-4,1v9.08l5,1.25,1,2.5-2.65,4.41,6.42,6.42,4.42-2.65,2.49,1,1.25,5h9.08l1.25-5,2.5-1,4.42,2.65,6.42-6.42-2.65-4.41,1-2.34Zm-18.52,8.78a14.32,14.32,0,1,1,14.32-14.32A14.34,14.34,0,0,1,113.78,698.48Z"/><path class="cls-6" d="M74.91,604.37H38.08v16.37h2.76l10.23,8.18H74.91Zm-28.65,8.18H42.17v-4.09h4.09Zm24.56,8.19H50.36v-4.1H70.82Zm0-8.19H50.36v-4.09H70.82Z"/><path class="cls-6" d="M77,588H36a6.14,6.14,0,0,0-6.13,6.14v26.6H34V604.37a4.09,4.09,0,0,1,4.09-4.09H74.91A4.09,4.09,0,0,1,79,604.37v24.55h4.09V594.14A6.14,6.14,0,0,0,77,588Zm-26.59,8.18h-4.1v-4.09h4.1Zm16.36,0H54.45v-4.09H66.72Z"/><path class="cls-6" d="M40.84,641.2H38.08v16.36H74.91V633H51.07Zm21.79,12.27H42.17v-4.09H62.63Zm8.19,0h-4.1v-4.09h4.1Zm0-8.18H50.36V641.2H70.82Z"/><path class="cls-6" d="M79,657.56a4.1,4.1,0,0,1-4.09,4.1H38.08a4.1,4.1,0,0,1-4.09-4.1V641.2H29.9v26.59A6.14,6.14,0,0,0,36,673.93H77a6.14,6.14,0,0,0,6.14-6.14V633H79ZM62.63,669.84H50.36v-4.09H62.63Z"/><path class="cls-6" d="M39.41,637.1,44.52,633H29.9v-4.09H44.52l-5.11-4.09H21.71L26.32,631l-4.61,6.13Z"/></g><g class="cls-4"><circle class="cls-5" cx="55.5" cy="60.67" r="96.5"/><path class="cls-6" d="M62.93,61.78a7.92,7.92,0,1,1-7.39-5.07,8.28,8.28,0,0,1,1.23.09L69.09,41.55a4,4,0,0,1,6.16,5Zm-5,41.57c-.77,0-1.56.07-2.34.07A38.8,38.8,0,1,1,94.33,63.91a4,4,0,1,0,7.91-.15A46.71,46.71,0,0,0,59.5,18.08V14a4,4,0,0,0-7.92,0v4.12a46.71,46.71,0,0,0,4,93.25c.94,0,1.88,0,2.81-.08a4,4,0,1,0-.47-7.9ZM82.5,19.77l10.68,8.87a4,4,0,0,0,2.53.91,4,4,0,0,0,2.53-7L87.56,13.68a4,4,0,0,0-5.06,6.09ZM15.38,29.55a3.9,3.9,0,0,0,2.49-.89L28.75,19.8a4,4,0,0,0-5-6.14L12.87,22.53a4,4,0,0,0,2.51,7Zm94.79,58a7,7,0,0,1-3.39,6L79.32,110.3a7.06,7.06,0,0,1-10.72-6V70.89a7.06,7.06,0,0,1,10.72-6l27.46,16.7a7,7,0,0,1,3.39,6Zm-8.72,0L76.52,72.43v30.31Z"/></g><g class="cls-4"><circle class="cls-5" cx="666.5" cy="71" r="96.5"/><path class="cls-6" d="M730.32,102.43l-8.93-9a4,4,0,0,0-5.7,0l-.21.21-.58-.59a7.63,7.63,0,0,1-1.67-2.49,1.42,1.42,0,0,0-.14-.36,7.73,7.73,0,0,1-.44-2.58V85.13a2,2,0,0,0,.89.22,1.92,1.92,0,0,0,.38-3.8,1.87,1.87,0,0,0-1.28.2,10.7,10.7,0,0,0-3.15-7.16l-8.67-8.69a10.3,10.3,0,0,0-13.16-1.18l-.92-.93V42a10.81,10.81,0,0,0-2.68-7.13,7.68,7.68,0,0,1-1.91-5.07v-1.6h.13a4,4,0,0,0,4-4V11.52a4,4,0,0,0-4-4H646.71a4,4,0,0,0-4,4V24.19a4,4,0,0,0,4,4H647v.84a7.66,7.66,0,0,1-2.24,5.43l-3.84,3.85A10.72,10.72,0,0,0,637.76,46V58.25a10.38,10.38,0,0,0,1.1,4.65,10.17,10.17,0,0,0-6.68,3l-8.67,8.69a10.72,10.72,0,0,0-3.16,7.64v5.44a7.63,7.63,0,0,1-2.25,5.43l-.58.58h0l-.21-.21a4,4,0,0,0-5.69,0l-8.94,9a4,4,0,0,0,0,5.7l3.06,3.07a1.91,1.91,0,1,0,2.69-2.7l-3.06-3.06a.21.21,0,0,1,0-.31l8.94-9a.22.22,0,0,1,.3,0l1.56,1.56h0L637.39,119l2.38,2.38a.23.23,0,0,1,0,.31l-8.94,9a.22.22,0,0,1-.3,0l-16.71-16.73a1.9,1.9,0,1,0-2.69,2.69l16.7,16.73a4,4,0,0,0,5.69,0l8.94-9a4,4,0,0,0,0-5.69l-.09-.1,1.12-1.13a7.66,7.66,0,0,1,4.93-2.23,10.75,10.75,0,0,0,6.93-3.15l8.22-8.23a6.51,6.51,0,0,0,4.71-5A6.51,6.51,0,0,0,677.56,93V88.48a6.5,6.5,0,0,0,9.18-5.92V69.19l5.86,5.89a1.91,1.91,0,0,0,2.7-2.69l-4.89-4.91a6.52,6.52,0,0,1,7.71,1.11l8.68,8.69a7,7,0,0,1,2,5v5.44a11.44,11.44,0,0,0,3.36,8.12l.59.59L710,99.15l-16.71,16.73-.93-.93,0,0-.16-.16a11.43,11.43,0,0,0-7.37-3.34,7,7,0,0,1-4.5-2l-6.25-6.23a1.91,1.91,0,1,0-2.69,2.7l6.26,6.22a10.75,10.75,0,0,0,6.93,3.15,7.66,7.66,0,0,1,4.93,2.23l.09.09a1.21,1.21,0,0,0,.16.16l.87.88-.09.1a4,4,0,0,0,0,5.69l8.94,9a4,4,0,0,0,5.69,0l25.15-25.2A4,4,0,0,0,730.32,102.43ZM713.93,83.5h0l-.35-.07Zm-61.27,25.88a7,7,0,0,1-4.48,2,11.43,11.43,0,0,0-7.38,3.34l-1.12,1.12-1-1,0,0L620.21,96.38l.59-.59a11.44,11.44,0,0,0,3.36-8.12V82.23a7,7,0,0,1,2-5l8.68-8.69a6.41,6.41,0,0,1,4.59-1.9,6.5,6.5,0,0,1,3.13.8l-4.9,4.9a1.91,1.91,0,0,0,2.7,2.69l5.84-5.85V93a6.51,6.51,0,0,0,9.32,5.86,6.48,6.48,0,0,0,3.22,4.38Zm30.27-26.82a2.69,2.69,0,1,1-5.37,0V61.32a1.91,1.91,0,1,0-3.81,0V93a2.68,2.68,0,0,1-5.33.45V61.3a1.91,1.91,0,0,0-1.91-1.91,1.85,1.85,0,0,0-.93.25,1.9,1.9,0,0,0-1,1.68V93a5.53,5.53,0,0,0,0,.71v3.84a2.69,2.69,0,1,1-5.38,0V61.27a1.9,1.9,0,1,0-3.8,0V93a2.69,2.69,0,1,1-5.38,0V57.58a1.91,1.91,0,1,0-3.81,0v6.55a1.57,1.57,0,0,0-.45.22,6.51,6.51,0,0,1-4.22-6.1V46a7,7,0,0,1,2-4.95l3.84-3.85a11.4,11.4,0,0,0,3.36-8.12v-.84h3.83a1.91,1.91,0,0,0,0-3.81h-7.93a.21.21,0,0,1-.22-.21V11.52a.22.22,0,0,1,.22-.22h35.57a.22.22,0,0,1,.22.22V24.19a.21.21,0,0,1-.22.21h-18.7a1.91,1.91,0,0,0,0,3.81h14.76v1.6a11.49,11.49,0,0,0,2.85,7.58A7,7,0,0,1,682.93,42Zm44.7,22.88-25.16,25.2a.22.22,0,0,1-.3,0l-8.94-9a.23.23,0,0,1,0-.31l1.44-1.44h0l14.6-14.63,9.12-9.13a.22.22,0,0,1,.3,0l8.94,9A.21.21,0,0,1,727.63,105.44Z"/></g><g class="cls-4"><circle class="cls-5" cx="673" cy="637" r="96.5"/><path class="cls-6" d="M638.37,715a2.24,2.24,0,0,1-2.2-1.8l-12.75-63.43a11.25,11.25,0,0,1,1.85-8.7l13.13-18.48a11.26,11.26,0,0,1,7.77-4.64V593.1a2.24,2.24,0,0,1,4.48,0v24.77h12.53a11.18,11.18,0,0,1,9.36,5l7.58,11.51a6.3,6.3,0,0,1,.86,5.1,6.23,6.23,0,0,1-3.23,3.93,11.15,11.15,0,0,1-2.71.93,8.92,8.92,0,0,1,.64,2.19c.07.42.14.85.21,1.3h24.22a2.24,2.24,0,0,0,2.24-2.25v-77a2.24,2.24,0,0,0-2.24-2.24H652.9a2.25,2.25,0,0,0-2.25,2.24v15.45a2.24,2.24,0,0,1-4.48,0V568.68A6.74,6.74,0,0,1,652.9,562h47.21a6.74,6.74,0,0,1,6.73,6.72v77a6.74,6.74,0,0,1-6.73,6.73h-10a32.68,32.68,0,0,0-3.3,14.28v5.82a2.24,2.24,0,1,1-4.48,0v-5.82a37.18,37.18,0,0,1,2.86-14.28h-8.72A119,119,0,0,1,677.3,666a124.47,124.47,0,0,1-1.62,19.44,9.07,9.07,0,0,1-8.17,7.63,25.71,25.71,0,0,1,2.47,15l1.57-1a23.14,23.14,0,0,0,10.79-19.62v-6a2.24,2.24,0,0,1,4.48,0v6A27.6,27.6,0,0,1,674,710.88l-6,3.77a2.24,2.24,0,0,1-3.37-2.45c2.06-8,1.21-14-2.86-20.07l-6-9a2.24,2.24,0,0,1,1.87-3.48h7.24a2.24,2.24,0,0,1,0,4.48h-3l3,4.48h1.85a4.61,4.61,0,0,0,4.57-3.89c.43-2.7.92-6.3,1.23-10.41a4.62,4.62,0,0,0-4.52-3.66H647.45a2.24,2.24,0,0,1,0-4.48H668a9,9,0,0,1,4.84,1.39c0-.52,0-1,0-1.57,0-1.75-.05-3.46-.13-5.12a4.62,4.62,0,0,0-4.55-3.79h-25.3a2.25,2.25,0,0,1,0-4.49h25.3a9.06,9.06,0,0,1,4,.9c-.26-2.37-.56-4.49-.84-6.22a4.56,4.56,0,0,0-4.57-3.9H637.8a2.24,2.24,0,0,1,0-4.48h9.32l4.07-7a2.25,2.25,0,0,1,1.93-1.11h8.67a2.27,2.27,0,0,1,1.84.95l3.92,5.59a6.43,6.43,0,0,0,8.19,2.06,1.66,1.66,0,0,0,.91-1.08,1.81,1.81,0,0,0-.27-1.48l-7.58-11.51a6.71,6.71,0,0,0-5.62-3H647.54a6.75,6.75,0,0,0-5.49,2.83l-13.12,18.49a6.72,6.72,0,0,0-1.11,5.22l12.75,63.43a2.23,2.23,0,0,1-2.2,2.68Zm14-76.08h10.83l-2.52-3.58h-6.22Zm68.09-15.79a2.4,2.4,0,1,1,2.39-2.4A2.41,2.41,0,0,1,720.41,623.13Zm0-9.27a2.24,2.24,0,0,1-2.25-2.24V579.81a2.25,2.25,0,0,1,4.49,0v31.81A2.24,2.24,0,0,1,720.41,613.86Z"/></g><path class="cls-7" d="M366,517.1c-83.32,0-151.1-67.78-151.1-151.1S282.68,214.9,366,214.9,517.1,282.68,517.1,366,449.32,517.1,366,517.1Zm0-294.73c-79.2,0-143.63,64.43-143.63,143.63S286.8,509.63,366,509.63,509.63,445.2,509.63,366,445.2,222.37,366,222.37Z"/><path class="cls-7" d="M366,713.13A347.13,347.13,0,0,1,120.54,120.54,347.13,347.13,0,0,1,611.46,611.46,344.89,344.89,0,0,1,366,713.13Zm0-686.79C178.71,26.34,26.34,178.71,26.34,366S178.71,705.66,366,705.66,705.66,553.29,705.66,366,553.29,26.34,366,26.34Z"/><path class="cls-7" d="M366,695A328.95,328.95,0,0,1,133.4,133.4,328.95,328.95,0,1,1,598.6,598.6,326.79,326.79,0,0,1,366,695Zm0-650.43C188.73,44.52,44.52,188.73,44.52,366S188.73,687.48,366,687.48,687.48,543.27,687.48,366,543.27,44.52,366,44.52Z"/><path class="cls-7" d="M366,458.16A92.16,92.16,0,1,1,458.16,366,92.26,92.26,0,0,1,366,458.16Zm0-176.85A84.69,84.69,0,1,0,450.69,366,84.78,84.78,0,0,0,366,281.31Z"/><path class="cls-7" d="M366,393.35A27.35,27.35,0,1,1,393.35,366,27.38,27.38,0,0,1,366,393.35Zm0-47.24A19.89,19.89,0,1,0,385.89,366,19.91,19.91,0,0,0,366,346.11Z"/><rect class="cls-7" x="362.27" y="-69.12" width="7.47" height="870.23"/><rect class="cls-7" x="-69.12" y="362.27" width="870.23" height="7.47"/><rect class="cls-7" x="-199.36" y="360.86" width="1135.07" height="7.47" transform="translate(-149.97 366.51) rotate(-44.93)"/><rect class="cls-7" x="369.93" y="-179.77" width="7.47" height="1106.87" transform="translate(-154.78 373.66) rotate(-45)"/><rect class="cls-7" x="-69.12" y="362.27" width="870.23" height="7.47" transform="translate(-119.13 546.45) rotate(-65.4)"/><rect class="cls-7" x="362.27" y="-69.12" width="7.47" height="870.23" transform="translate(-119.14 546.41) rotate(-65.4)"/><rect class="cls-7" x="-69.12" y="362.27" width="870.23" height="7.47" transform="translate(-104.6 150.47) rotate(-20.39)"/><rect class="cls-7" x="362.27" y="-69.12" width="7.47" height="870.23" transform="translate(-104.62 150.52) rotate(-20.4)"/><path class="cls-8" d="M168.45,456.75a3.48,3.48,0,0,0-4.61.76,12.83,12.83,0,0,0-2.3,3.85c-1,3.06-.17,7.57,1.21,8.5s5.15-8.4,6.35-11A1.54,1.54,0,0,0,168.45,456.75Z"/><rect class="cls-9" x="131.15" y="62.76" width="469.7" height="611.23" rx="36.49" transform="translate(-0.66 0.66) rotate(-0.1)"/><rect class="cls-6" x="155.6" y="79.81" width="420.8" height="573.74" transform="translate(-0.66 0.66) rotate(-0.1)"/><path class="cls-10" d="M456.66,54.49A4.66,4.66,0,0,0,452,49.83l-176.68.32a4.67,4.67,0,0,0-4.67,4.68l0,18.36,186-.33Z"/><path class="cls-10" d="M363.6,27.66a27.87,27.87,0,1,0,27.91,27.81A27.87,27.87,0,0,0,363.6,27.66Zm.08,45.73a17.87,17.87,0,1,1,17.84-17.9A17.86,17.86,0,0,1,363.68,73.39Z"/><path class="cls-11" d="M453.8,50.19a4.67,4.67,0,0,1,2.86,4.3l0,18.37-186,.33a23.05,23.05,0,0,0,23.08,23l140-.26a23,23,0,0,0,23-23.07l0-18.37A4.67,4.67,0,0,0,453.8,50.19Z"/><path class="cls-11" d="M275.3,50.15h0a4.68,4.68,0,0,0-3.88,2.06A4.68,4.68,0,0,1,275.3,50.15Z"/><path class="cls-11" d="M270.84,53.44a4.5,4.5,0,0,1,.35-.84A4.5,4.5,0,0,0,270.84,53.44Z"/><path class="cls-12" d="M527.63,248.69l-59.82.1L467.7,189l59.82-.11Zm-57.38-2.34,54.93-.1-.1-54.93-54.93.1Z"/><path class="cls-12" d="M527.81,348.22l-59.82.11-.11-59.82,59.82-.11Zm-57.38-2.34,54.93-.1-.1-54.93-54.93.1Z"/><path class="cls-12" d="M528,447.76l-59.82.11-.11-59.82,59.82-.11Zm-57.38-2.34,54.93-.1-.1-54.93-54.93.1Z"/><path class="cls-12" d="M528.17,547.29l-59.82.11-.11-59.82,59.82-.11ZM470.79,545l54.93-.1-.1-54.93-54.93.1Z"/><rect class="cls-13" x="186.64" y="190.47" width="256.01" height="8.61" transform="translate(-0.35 0.57) rotate(-0.1)"/><rect class="cls-13" x="186.68" y="214.86" width="256.01" height="8.61" transform="translate(-0.39 0.57) rotate(-0.1)"/><rect class="cls-13" x="186.73" y="239.24" width="256.01" height="8.61" transform="translate(-0.44 0.57) rotate(-0.1)"/><rect class="cls-13" x="186.82" y="293.41" width="256.01" height="8.61" transform="translate(-0.54 0.57) rotate(-0.1)"/><rect class="cls-13" x="186.87" y="317.79" width="256.01" height="8.61" transform="translate(-0.58 0.57) rotate(-0.1)"/><rect class="cls-13" x="186.91" y="342.17" width="256.01" height="8.61" transform="translate(-0.62 0.57) rotate(-0.1)"/><rect class="cls-13" x="187" y="390.94" width="256.01" height="8.61" transform="translate(-0.71 0.57) rotate(-0.1)"/><rect class="cls-13" x="187.04" y="415.32" width="256.01" height="8.61" transform="translate(-0.76 0.57) rotate(-0.1)"/><rect class="cls-13" x="187.09" y="439.7" width="256.01" height="8.61" transform="translate(-0.8 0.57) rotate(-0.1)"/><rect class="cls-13" x="187.18" y="488.47" width="256.01" height="8.61" transform="translate(-0.89 0.57) rotate(-0.1)"/><rect class="cls-13" x="187.22" y="512.85" width="256.01" height="8.61" transform="translate(-0.93 0.57) rotate(-0.1)"/><rect class="cls-13" x="187.26" y="537.23" width="256.01" height="8.61" transform="translate(-0.98 0.57) rotate(-0.1)"/><rect class="cls-13" x="187.38" y="600.23" width="295.35" height="8.61" transform="translate(-1.09 0.6) rotate(-0.1)"/><rect class="cls-13" x="187.41" y="621.04" width="353.59" height="8.61" transform="translate(-1.13 0.66) rotate(-0.1)"/><polygon class="cls-14" points="497.42 238.91 478.85 207.04 485.49 203.16 496.27 221.66 513.88 179.43 520.98 182.39 497.42 238.91"/><polygon class="cls-14" points="497.6 339.75 479.03 307.88 485.67 304 496.46 322.5 514.06 280.27 521.16 283.23 497.6 339.75"/><polygon class="cls-14" points="497.96 536.9 479.38 505.03 486.03 501.16 496.81 519.66 514.41 477.43 521.52 480.39 497.96 536.9"/><polygon class="cls-14" points="518.65 402.81 513.3 397.41 498.01 412.56 482.67 397.46 477.33 402.89 492.61 417.91 477.39 432.99 482.75 438.4 498.03 423.25 513.37 438.34 518.71 432.92 503.44 417.89 518.65 402.81"/><g class="cls-15"><path class="cls-13" d="M198.42,461.47a110,110,0,0,0-42.64,8.6l0,14a97.5,97.5,0,0,1,95.47,169.67l21,0q2.27-2,4.43-4.21a110.24,110.24,0,0,0-78.29-188Z"/></g><g class="cls-15"><path class="cls-13" d="M198.47,491.35a79.91,79.91,0,0,0-42.63,12.37l0,7.63a74,74,0,1,1,.21,120.87l0,7.63a80.34,80.34,0,1,0,42.38-148.5Z"/></g><path class="cls-16" d="M215.72,157.65V120.21H232a10.46,10.46,0,0,1,4.67,1.06,12,12,0,0,1,3.66,2.77,13,13,0,0,1,2.4,3.9,12,12,0,0,1,.87,4.46,12.5,12.5,0,0,1-.53,3.63,12.74,12.74,0,0,1-1.47,3.22,10.5,10.5,0,0,1-2.32,2.56,9.63,9.63,0,0,1-3,1.61l8.91,14.23h-6.7l-8.22-13h-8.65v13Zm5.91-18.24H232a4.84,4.84,0,0,0,2.29-.55,5.49,5.49,0,0,0,1.77-1.53,7.72,7.72,0,0,0,1.16-2.25,8.45,8.45,0,0,0,.42-2.68,7.31,7.31,0,0,0-.5-2.69,7.87,7.87,0,0,0-1.32-2.22,6.37,6.37,0,0,0-1.9-1.5,4.86,4.86,0,0,0-2.24-.56h-10Z"/><path class="cls-16" d="M262.76,158.18a14.78,14.78,0,0,1-5.85-1.13A13.71,13.71,0,0,1,252.4,154a13.94,13.94,0,0,1-2.9-4.53,14.6,14.6,0,0,1-1-5.49,14.82,14.82,0,0,1,1-5.51,14.06,14.06,0,0,1,2.9-4.58,13.49,13.49,0,0,1,4.51-3.12,14.9,14.9,0,0,1,5.91-1.13,14.23,14.23,0,0,1,5.82,1.16,13.8,13.8,0,0,1,4.46,3.09,13.11,13.11,0,0,1,2.82,4.48,14.87,14.87,0,0,1,1,5.35,11.24,11.24,0,0,1-.05,1.19c0,.37-.07.67-.1.92h-22.1a9.61,9.61,0,0,0,.87,3.32,8.71,8.71,0,0,0,1.85,2.56,8.09,8.09,0,0,0,5.61,2.24,9.41,9.41,0,0,0,2.3-.29,8,8,0,0,0,2.08-.84,7.6,7.6,0,0,0,1.69-1.35,6.37,6.37,0,0,0,1.16-1.74l4.95,1.43a11.42,11.42,0,0,1-4.71,5.08A14.64,14.64,0,0,1,262.76,158.18Zm8.39-16.4a9.42,9.42,0,0,0-.87-3.21,8.36,8.36,0,0,0-1.82-2.51,8.26,8.26,0,0,0-2.59-1.61,8.55,8.55,0,0,0-3.11-.58,8.25,8.25,0,0,0-5.64,2.19,7.8,7.8,0,0,0-1.79,2.51,9.63,9.63,0,0,0-.85,3.21Z"/><path class="cls-16" d="M292.5,157.92a11.29,11.29,0,0,1-5.09-1.14,12.22,12.22,0,0,1-4-3.08,14.42,14.42,0,0,1-2.58-4.48,15.32,15.32,0,0,1-.93-5.33,16.43,16.43,0,0,1,.93-5.56,13.66,13.66,0,0,1,2.61-4.54,12.67,12.67,0,0,1,4-3.06,11.86,11.86,0,0,1,5.19-1.13,10.72,10.72,0,0,1,5.86,1.58,13.57,13.57,0,0,1,4.11,4.12v-5.22h5.11v26.78a12.21,12.21,0,0,1-1.1,5.33,11.21,11.21,0,0,1-3.09,3.93,13.81,13.81,0,0,1-4.66,2.45,19.41,19.41,0,0,1-5.8.84,16.45,16.45,0,0,1-7.6-1.55,15,15,0,0,1-5.11-4.35l3.27-3.06a10.08,10.08,0,0,0,4.08,3.37,12.51,12.51,0,0,0,5.36,1.16,11.89,11.89,0,0,0,3.4-.47,7.93,7.93,0,0,0,2.82-1.48,7,7,0,0,0,1.92-2.53,8.47,8.47,0,0,0,.72-3.64v-4.21a10.18,10.18,0,0,1-4.07,3.9A11.46,11.46,0,0,1,292.5,157.92Zm1.9-4.69a7.21,7.21,0,0,0,2.53-.45,8.84,8.84,0,0,0,2.24-1.22,8.6,8.6,0,0,0,1.77-1.74,6.51,6.51,0,0,0,1.06-2.08v-7.22a9.93,9.93,0,0,0-3.27-4.3,7.76,7.76,0,0,0-4.75-1.66,6.93,6.93,0,0,0-3.4.82,8.07,8.07,0,0,0-2.56,2.16,10,10,0,0,0-1.63,3,10.5,10.5,0,0,0-.58,3.48,9.58,9.58,0,0,0,.65,3.56,9.2,9.2,0,0,0,1.82,2.9,8.9,8.9,0,0,0,2.72,2A7.87,7.87,0,0,0,294.4,153.23Z"/><path class="cls-16" d="M323.09,158.18a7.76,7.76,0,0,1-6.49-2.82q-2.21-2.82-2.21-8.41V130.08h5.8v15.71q0,7.44,5.22,7.44a8.21,8.21,0,0,0,4.75-1.53,9.87,9.87,0,0,0,3.42-4.43V130.08h5.8V150.8a2.18,2.18,0,0,0,.37,1.42,1.88,1.88,0,0,0,1.32.48v5c-.63.11-1.18.18-1.63.22s-.87,0-1.22,0q-3.27-.27-3.69-3l-.1-2.85a12.3,12.3,0,0,1-4.8,4.57A13.9,13.9,0,0,1,323.09,158.18Z"/><path class="cls-16" d="M346.92,119.16h5.8v30.37a3.43,3.43,0,0,0,.8,2.4,2.82,2.82,0,0,0,2.21.87,6.29,6.29,0,0,0,1.37-.18,7.57,7.57,0,0,0,1.48-.5l.84,4.69a12.8,12.8,0,0,1-3,.92,16.25,16.25,0,0,1-3.12.35,6.47,6.47,0,0,1-4.69-1.64,6.17,6.17,0,0,1-1.69-4.64Z"/><path class="cls-16" d="M370,158.18a10.25,10.25,0,0,1-3.72-.66,8.84,8.84,0,0,1-2.95-1.82,8.26,8.26,0,0,1-2-2.74,8.17,8.17,0,0,1-.71-3.43,7.42,7.42,0,0,1,.84-3.53,8.2,8.2,0,0,1,2.4-2.74,11.74,11.74,0,0,1,3.69-1.79,16.28,16.28,0,0,1,4.72-.64,21.54,21.54,0,0,1,3.85.35,18.37,18.37,0,0,1,3.43.92v-1.9a6.38,6.38,0,0,0-1.74-4.77,6.86,6.86,0,0,0-5-1.72,12.16,12.16,0,0,0-4.35.82,22.37,22.37,0,0,0-4.41,2.35l-1.79-3.69a19.56,19.56,0,0,1,11.08-3.59c3.79,0,6.75,1,8.85,2.9s3.17,4.71,3.17,8.33v10a2.12,2.12,0,0,0,.37,1.42,1.77,1.77,0,0,0,1.26.48v5a14.4,14.4,0,0,1-1.55.22c-.48,0-.91,0-1.29,0a4.06,4.06,0,0,1-2.56-.9,3.5,3.5,0,0,1-1.08-2.11l-.16-1.74a12.26,12.26,0,0,1-4.56,3.72A13.43,13.43,0,0,1,370,158.18Zm1.58-4.27a10.41,10.41,0,0,0,4-.76,6.89,6.89,0,0,0,2.93-2.14,2.67,2.67,0,0,0,1.11-2v-3.64a17.77,17.77,0,0,0-6.38-1.21,8.84,8.84,0,0,0-5.09,1.34,4.12,4.12,0,0,0-2,3.56,4.48,4.48,0,0,0,1.53,3.45A5.52,5.52,0,0,0,371.6,153.91Z"/><path class="cls-16" d="M434.72,157.65h-5.8V142.2q0-3.84-1.29-5.64a4.25,4.25,0,0,0-3.66-1.79,6.7,6.7,0,0,0-4.54,1.82,10.12,10.12,0,0,0-2.95,4.72v16.34h-5.8V142.2c0-2.6-.42-4.49-1.24-5.66a4.19,4.19,0,0,0-3.67-1.77,6.82,6.82,0,0,0-4.51,1.79,9.9,9.9,0,0,0-3,4.69v16.4h-5.81V130.08h5.28v5.53a11.59,11.59,0,0,1,4.3-4.45,11.8,11.8,0,0,1,6.09-1.56,7.75,7.75,0,0,1,5.43,1.79,8.09,8.09,0,0,1,2.48,4.49,12.58,12.58,0,0,1,4.37-4.67,11.26,11.26,0,0,1,6-1.61,8.1,8.1,0,0,1,4,.92A7.16,7.16,0,0,1,433,133a10.43,10.43,0,0,1,1.35,3.56,22.66,22.66,0,0,1,.39,4.29Z"/><path class="cls-16" d="M453.81,158.18a14.78,14.78,0,0,1-5.85-1.13,13.71,13.71,0,0,1-4.51-3.09,13.94,13.94,0,0,1-2.9-4.53,14.8,14.8,0,0,1-1-5.49,15,15,0,0,1,1-5.51,14.06,14.06,0,0,1,2.9-4.58,13.49,13.49,0,0,1,4.51-3.12,14.93,14.93,0,0,1,5.91-1.13,14.23,14.23,0,0,1,5.82,1.16,13.8,13.8,0,0,1,4.46,3.09,13.11,13.11,0,0,1,2.82,4.48,14.88,14.88,0,0,1,1,5.35,11.14,11.14,0,0,1-.06,1.19c0,.37-.07.67-.1.92h-22.1a9.61,9.61,0,0,0,.87,3.32,8.71,8.71,0,0,0,1.85,2.56,8.09,8.09,0,0,0,5.61,2.24,9.41,9.41,0,0,0,2.3-.29,8,8,0,0,0,2.08-.84,7.38,7.38,0,0,0,1.69-1.35,6.37,6.37,0,0,0,1.16-1.74l5,1.43a11.5,11.5,0,0,1-4.72,5.08A14.64,14.64,0,0,1,453.81,158.18Zm8.39-16.4a9.42,9.42,0,0,0-.87-3.21,8.36,8.36,0,0,0-1.82-2.51,8.26,8.26,0,0,0-2.59-1.61,8.55,8.55,0,0,0-3.11-.58,8.25,8.25,0,0,0-5.64,2.19,7.8,7.8,0,0,0-1.79,2.51,9.63,9.63,0,0,0-.85,3.21Z"/><path class="cls-16" d="M497.37,157.65h-5.8V142.2q0-3.9-1.27-5.66a4.18,4.18,0,0,0-3.63-1.77,7.5,7.5,0,0,0-2.56.47,8.91,8.91,0,0,0-2.4,1.35,10.42,10.42,0,0,0-2,2,9.49,9.49,0,0,0-1.34,2.61v16.4h-5.81V130.08h5.28v5.53a11.14,11.14,0,0,1,4.59-4.4,13.87,13.87,0,0,1,6.64-1.61,8.34,8.34,0,0,1,4.09.9,6.69,6.69,0,0,1,2.53,2.45,10.92,10.92,0,0,1,1.29,3.59,23.55,23.55,0,0,1,.37,4.29Z"/><path class="cls-16" d="M519.25,156.23c-.77.35-1.8.75-3.08,1.19a12.87,12.87,0,0,1-4.19.66,8.75,8.75,0,0,1-2.56-.37,6.45,6.45,0,0,1-2.11-1.11,4.94,4.94,0,0,1-1.45-1.92,7.12,7.12,0,0,1-.53-2.88V134.56h-3.69v-4.48h3.69V121h5.8v9.08h6v4.48h-6V150a2.52,2.52,0,0,0,.85,2.13,3.21,3.21,0,0,0,2,.66,6.45,6.45,0,0,0,2.32-.42,17.37,17.37,0,0,0,1.64-.69Z"/></g></svg>